<svg width="63" height="60" viewBox="0 0 63 60" fill="none" xmlns="http://www.w3.org/2000/svg">
<path d="M0.644531 0H62.6445V60H0.644531V0Z" fill="black"/>
<path d="M29.122 25.7974H11.6445L14.7285 14.1346V14H26.0037L29.122 25.7974ZM24.5178 22.5621L23.1357 17.2528H17.5909L16.2256 22.5621H24.5178Z" fill="#007BFF"/>
<path d="M35.4988 20.4216V14H39.2066V20.1679C39.2066 21.4148 39.7624 22.5103 41.3135 22.5103H45.83C47.3972 22.5103 47.9369 21.4148 47.9369 20.1679V14H51.6446V20.4216C51.6446 24.0789 49.4368 26 45.8272 26H41.3106C37.7067 26 35.4988 24.0789 35.4988 20.4216Z" fill="#007BFF"/>
<path d="M27.7055 37.4554H21.5201V46H17.8124V37.4554H11.6445V34.2025H27.7062L27.7055 37.4554Z" fill="#007BFF"/>
<path d="M51.6447 46H34.5043V34.2025H51.6447V46ZM47.9369 42.7478V37.4386H38.212V42.7478H47.9369Z" fill="#007BFF"/>
</svg> 