<svg width="82" height="94" viewBox="0 0 82 94" fill="none" xmlns="http://www.w3.org/2000/svg">
<g clip-path="url(#clip0_698_4348)">
<path d="M3.05179 25.0386C1.55483 24.1743 1.55483 22.773 3.05179 21.9087L38.288 1.56467C39.785 0.700382 42.212 0.700382 43.709 1.56467L78.9452 21.9087C80.4422 22.773 80.4422 24.1743 78.9452 25.0386L43.709 45.3826C42.212 46.2469 39.785 46.2469 38.288 45.3826L3.05179 25.0386Z" fill="#39FF14"/>
<path d="M0.341309 23.4736L40.9985 -0.000259588L0.341309 23.4736ZM78.9452 21.9087C80.9042 23.0397 80.9042 24.8735 78.9452 26.0046L44.5456 45.8656C42.5866 46.9966 39.4104 46.9966 37.4515 45.8656L39.1246 44.8996C40.1595 45.4971 41.8375 45.4971 42.8724 44.8996L78.1086 24.5556C79.6056 23.6913 79.9801 22.5062 78.9452 21.9087ZM44.5456 45.8656C42.5866 46.9966 39.4104 46.9966 37.4515 45.8656L3.05179 26.0046C1.09281 24.8735 1.09281 23.0397 3.05179 21.9087L3.05179 21.9087C2.01686 22.5062 2.3914 23.6913 3.88836 24.5556L39.1246 44.8996C40.1595 45.4971 41.8375 45.4971 42.8724 44.8996L44.5456 45.8656ZM40.9985 -0.000259588L81.6557 23.4736L40.9985 -0.000259588Z" fill="black"/>
<path d="M36.4442 22.8166L24.6009 29.6543L18.7876 23.8849L18.6964 23.8323L26.3369 19.4211L36.4442 22.8166ZM31.1319 23.3522L26.5976 21.8158L22.8403 23.985L25.5128 26.5963L31.1319 23.3522Z" fill="black"/>
<path d="M37.1227 18.2186L32.7712 15.7063L35.2837 14.2557L39.4632 16.6688C40.3081 17.1566 41.4271 17.3677 42.4782 16.7609L45.5387 14.9939C46.6007 14.3808 46.224 13.741 45.3791 13.2532L41.1996 10.8402L43.7121 9.38961L48.0635 11.9019C50.5418 13.3327 50.3475 14.9481 47.9015 16.3603L44.841 18.1273C42.3988 19.5373 39.6009 19.6494 37.1227 18.2186Z" fill="black"/>
<path d="M43.3859 27.9317L39.1945 30.3516L44.9846 33.6945L42.4721 35.1451L36.6821 31.8022L32.5026 34.2152L30.2983 32.9426L41.1822 26.6589L43.3859 27.9317Z" fill="black"/>
<path d="M65.3981 21.909L53.7833 28.6148L45.7891 23.9993L57.4038 17.2935L65.3981 21.909ZM60.6819 22.0872L57.0842 20.0101L50.4943 23.8147L54.092 25.8919L60.6819 22.0872Z" fill="black"/>
</g>
<g clip-path="url(#clip1_698_4348)">
<path d="M0.341309 26.6035C0.341309 24.8749 1.55484 24.1743 3.05182 25.0386L38.2884 45.3828C39.7854 46.2471 40.9989 48.349 40.9989 50.0776V90.7653C40.9989 92.4938 39.7854 93.1944 38.2884 92.3301L3.05182 71.9859C1.55485 71.1216 0.341309 69.0197 0.341309 67.2911V26.6035Z" fill="#39FF14"/>
<path d="M0.341309 26.6035C0.341309 24.3414 1.92939 23.4245 3.88839 24.5556L38.2884 44.4168C40.2474 45.5479 41.8355 48.2985 41.8355 50.5606L40.1623 49.5946C40.1623 48.3995 39.3233 46.9463 38.2884 46.3488L3.05182 26.0046C1.55484 25.1403 0.341309 25.4084 0.341309 26.6035ZM40.9989 93.8951L0.341309 70.421L40.9989 93.8951ZM0.341309 70.421V23.4736V70.421ZM38.2884 44.4168C40.2474 45.5479 41.8355 48.2985 41.8355 50.5606V90.2823C41.8355 92.5443 40.2474 93.4612 38.2884 92.3301C39.3233 92.9277 40.1623 92.0108 40.1623 90.2823V49.5946C40.1623 48.3995 39.3233 46.9463 38.2884 46.3488V44.4168Z" fill="black"/>
<rect width="7.82455" height="7.82456" rx="3.91228" transform="matrix(0.866026 0.5 0 1 7.11279 35.2102)" fill="black"/>
<rect width="7.82455" height="7.82456" rx="3.91228" transform="matrix(0.866026 0.5 0 1 27.4395 70.4192)" fill="black"/>
<rect width="7.82455" height="7.82456" rx="3.91228" transform="matrix(0.866026 0.5 0 1 17.2776 52.8154)" fill="black"/>
</g>
<g clip-path="url(#clip2_698_4348)">
<path d="M41.0022 50.0771C41.0022 48.3485 42.2157 46.2466 43.7127 45.3824L78.9493 25.0385C80.4463 24.1742 81.6598 24.8749 81.6598 26.6034V67.2911C81.6598 69.0197 80.4463 71.1216 78.9493 71.9858L43.7127 92.3297C42.2157 93.194 41.0022 92.4933 41.0022 90.7648V50.0771Z" fill="#39FF14"/>
<path d="M40.1656 50.5601C40.1656 48.298 41.7537 45.5474 43.7127 44.4164L78.1127 24.5555C80.0717 23.4245 81.6598 24.3414 81.6598 26.6034C81.6598 25.4084 80.4463 25.1402 78.9493 26.0045L43.7127 46.3483C42.6778 46.9459 41.8388 48.399 41.8388 49.5941L40.1656 50.5601ZM81.6598 70.4209L41.0022 93.8946L81.6598 70.4209ZM43.7127 92.3297C41.7537 93.4607 40.1656 92.5438 40.1656 90.2818V50.5601C40.1656 48.298 41.7537 45.5474 43.7127 44.4164V46.3483C42.6778 46.9459 41.8388 48.399 41.8388 49.5941V90.2818C41.8388 92.0103 42.6778 92.9272 43.7127 92.3297ZM81.6598 23.4736V70.4209V23.4736Z" fill="black"/>
<path d="M47.7785 76.2977L50.289 74.8483V77.5777L47.7766 79.0283L47.7785 76.2977Z" fill="black"/>
<path d="M50.2891 55.0449V56.3106L56.5583 52.6911V55.1968L50.2891 58.8164V61.7701L47.7766 63.2207V53.9897L57.3358 48.4708V50.9765L50.2891 55.0449Z" fill="black"/>
<path d="M63.9414 49.6818V44.6572L66.4539 43.2067V48.0327C66.4539 49.0084 66.8305 49.6481 67.8815 49.0413L70.9421 47.2743C72.004 46.6611 72.3697 45.5928 72.3697 44.6172V39.7911L74.8822 38.3406V43.3652C74.8822 46.2268 73.3861 48.5938 70.9402 50.0059L67.8796 51.7729C65.4375 53.1829 63.9414 52.5435 63.9414 49.6818Z" fill="black"/>
<path d="M74.883 54.1485V63.3795L72.4161 64.8037L66.2718 62.8785V68.3511L63.8049 69.7754V60.5444L66.2718 59.1202L72.4161 61.0059V55.5728L74.883 54.1485Z" fill="black"/>
</g>
<defs>
<clipPath id="clip0_698_4348">
<rect width="46.9475" height="46.9475" fill="white" transform="matrix(0.866026 -0.499999 0.866026 0.499999 0.341797 23.4736)"/>
</clipPath>
<clipPath id="clip1_698_4348">
<rect width="46.9475" height="46.9473" rx="1.56491" transform="matrix(0.866026 0.499999 0 1 0.341797 23.4736)" fill="white"/>
</clipPath>
<clipPath id="clip2_698_4348">
<rect width="46.9475" height="46.9473" fill="white" transform="matrix(0.866026 -0.499999 0 1 40.9993 46.9473)"/>
</clipPath>
</defs>
</svg> 