<svg width="235" height="64" viewBox="0 0 235 64" fill="none" xmlns="http://www.w3.org/2000/svg">
<path d="M10.7762 63.5011L234.245 63.5012L223.758 50.594L0.289062 50.5939L10.7762 63.5011Z" fill="#1B8D29"/>
<path d="M223.755 50.5998L223.755 0.0332837L234.242 12.9407L234.242 63.5078L223.755 50.5998Z" fill="#29CD3C"/>
<path d="M0.000226316 0H223.753V50.5939H0.000226316V0Z" fill="#39FF14"/>
<path d="M88.6885 34.9558V16.754H95.9343C99.5199 16.754 101.711 18.6215 101.711 21.6593C101.711 23.6762 100.815 25.1204 99.0966 25.8424C101.014 26.4649 101.985 27.9091 101.985 30.0256C101.985 33.1381 99.8187 34.9558 96.0588 34.9558H88.6885ZM95.6605 19.5677H91.8757V24.5228H95.7352C97.4781 24.5228 98.4492 23.6015 98.4492 21.983C98.4492 20.4143 97.4532 19.5677 95.6605 19.5677ZM95.9343 27.2119H91.8757V32.1421H95.9343C97.7271 32.1421 98.7231 31.2706 98.7231 29.6272C98.7231 28.0834 97.7022 27.2119 95.9343 27.2119ZM104.783 28.3075V16.754H107.97V28.1083C107.97 30.7228 109.389 32.167 111.979 32.167C114.569 32.167 116.013 30.6979 116.013 28.1083V16.754H119.2V28.3075C119.2 32.5654 116.411 35.2546 111.979 35.2546C107.572 35.2546 104.783 32.5903 104.783 28.3075ZM127.503 27.7846L121.352 16.754H124.913L128.499 23.3774C128.773 23.8754 128.947 24.2738 129.146 24.722C129.37 24.2738 129.47 23.975 129.794 23.3774L133.354 16.754H136.815L130.69 27.7846V34.9558H127.503V27.7846Z" fill="#0D0D0D"/>
</svg> 