<svg width="19" height="24" viewBox="0 0 19 24" fill="none" xmlns="http://www.w3.org/2000/svg">
<path d="M10.4857 9.37045C10.6507 8.87545 11.3497 8.87545 11.5147 9.37045L12.4822 12.276C12.6952 12.9147 13.054 13.495 13.5302 13.9709C14.0064 14.4469 14.5869 14.8053 15.2257 15.018L18.1297 15.9855C18.6247 16.1505 18.6247 16.8495 18.1297 17.0145L15.2242 17.982C14.5855 18.1949 14.0052 18.5537 13.5292 19.0299C13.0533 19.5061 12.6948 20.0866 12.4822 20.7255L11.5147 23.6295C11.4791 23.7378 11.4102 23.8322 11.3178 23.8992C11.2254 23.9661 11.1143 24.0021 11.0002 24.0021C10.8861 24.0021 10.775 23.9661 10.6826 23.8992C10.5902 23.8322 10.5213 23.7378 10.4857 23.6295L9.5182 20.724C9.3054 20.0854 8.94683 19.5052 8.47089 19.0293C7.99496 18.5533 7.41474 18.1948 6.7762 17.982L3.8707 17.0145C3.76231 16.9789 3.66792 16.91 3.60101 16.8176C3.53409 16.7252 3.49806 16.614 3.49806 16.5C3.49806 16.3859 3.53409 16.2747 3.60101 16.1823C3.66792 16.0899 3.76231 16.021 3.8707 15.9855L6.7762 15.018C7.41474 14.8051 7.99496 14.4466 8.47089 13.9706C8.94683 13.4947 9.3054 12.9145 9.5182 12.276L10.4857 9.37045ZM4.6912 1.72195C4.71271 1.65699 4.75415 1.60047 4.80962 1.5604C4.86509 1.52034 4.93178 1.49877 5.0002 1.49877C5.06863 1.49877 5.13532 1.52034 5.19079 1.5604C5.24626 1.60047 5.28769 1.65699 5.3092 1.72195L5.8897 3.46495C6.1492 4.24195 6.7582 4.85095 7.5352 5.11045L9.2782 5.69095C9.34316 5.71246 9.39969 5.7539 9.43975 5.80937C9.47982 5.86484 9.50138 5.93152 9.50138 5.99995C9.50138 6.06838 9.47982 6.13507 9.43975 6.19054C9.39969 6.24601 9.34316 6.28744 9.2782 6.30895L7.5352 6.88945C7.15199 7.01713 6.80378 7.2323 6.51817 7.51791C6.23255 7.80353 6.01738 8.15174 5.8897 8.53495L5.3092 10.278C5.28769 10.3429 5.24626 10.3994 5.19079 10.4395C5.13532 10.4796 5.06863 10.5011 5.0002 10.5011C4.93178 10.5011 4.86509 10.4796 4.80962 10.4395C4.75415 10.3994 4.71271 10.3429 4.6912 10.278L4.1107 8.53495C3.98303 8.15174 3.76786 7.80353 3.48224 7.51791C3.19663 7.2323 2.84842 7.01713 2.4652 6.88945L0.722204 6.30895C0.657246 6.28744 0.600718 6.24601 0.560653 6.19054C0.520588 6.13507 0.499023 6.06838 0.499023 5.99995C0.499023 5.93152 0.520588 5.86484 0.560653 5.80937C0.600718 5.7539 0.657246 5.71246 0.722204 5.69095L2.4652 5.11045C2.84842 4.98278 3.19663 4.76761 3.48224 4.48199C3.76786 4.19637 3.98303 3.84816 4.1107 3.46495L4.6912 1.72195ZM15.2947 0.148451C15.3095 0.105741 15.3373 0.0687051 15.3741 0.0424936C15.4109 0.0162821 15.455 0.00219727 15.5002 0.00219727C15.5454 0.00219727 15.5895 0.0162821 15.6263 0.0424936C15.6631 0.0687051 15.6909 0.105741 15.7057 0.148451L16.0927 1.30945C16.2652 1.82845 16.6717 2.23495 17.1907 2.40745L18.3517 2.79445C18.3944 2.80926 18.4314 2.83701 18.4577 2.87384C18.4839 2.91067 18.498 2.95475 18.498 2.99995C18.498 3.04516 18.4839 3.08924 18.4577 3.12607C18.4314 3.1629 18.3944 3.19064 18.3517 3.20545L17.1907 3.59245C16.9349 3.67754 16.7025 3.82108 16.5119 4.01168C16.3213 4.20227 16.1778 4.43468 16.0927 4.69045L15.7057 5.85145C15.6909 5.89416 15.6631 5.9312 15.6263 5.95741C15.5895 5.98362 15.5454 5.99771 15.5002 5.99771C15.455 5.99771 15.4109 5.98362 15.3741 5.95741C15.3373 5.9312 15.3095 5.89416 15.2947 5.85145L14.9077 4.69045C14.8226 4.43468 14.6791 4.20227 14.4885 4.01168C14.2979 3.82108 14.0655 3.67754 13.8097 3.59245L12.6502 3.20545C12.6075 3.19064 12.5705 3.1629 12.5442 3.12607C12.518 3.08924 12.5039 3.04516 12.5039 2.99995C12.5039 2.95475 12.518 2.91067 12.5442 2.87384C12.5705 2.83701 12.6075 2.80926 12.6502 2.79445L13.8112 2.40745C14.3302 2.23495 14.7367 1.82845 14.9092 1.30945L15.2947 0.149951V0.148451Z" fill="#007BFF"/>
</svg> 