<svg width="413" height="110" viewBox="0 0 413 110" fill="none" xmlns="http://www.w3.org/2000/svg">
<path d="M20 109.217L413 109.217L393 84.2126H0L20 109.217Z" fill="#CC00CC"/>
<path d="M393 84.2183L393 8.74228e-07L413 25L413 109.218L393 84.2183Z" fill="#DD00DD"/>
<path d="M2.57232 2.5722H390.428V81.4278H2.5722L2.57232 2.5722Z" fill="#FF00FF" stroke="#FF00FF" stroke-width="5.14439"/>
<path d="M107.559 32.272C107.559 24.08 114.343 18.384 124.199 18.384C133.671 18.384 139.687 23.632 139.943 32.08H131.751C131.559 28.048 128.679 25.68 124.071 25.68C119.015 25.68 115.751 28.112 115.751 32.016C115.751 35.344 117.543 37.2 121.447 38.096L128.807 39.696C136.807 41.424 140.711 45.52 140.711 52.496C140.711 61.2 133.927 66.832 123.623 66.832C113.639 66.832 107.111 61.52 106.919 53.136H115.111C115.175 57.104 118.375 59.472 123.623 59.472C129.063 59.472 132.519 57.104 132.519 53.2C132.519 50.064 130.919 48.208 127.079 47.376L119.655 45.712C111.719 43.984 107.559 39.44 107.559 32.272ZM157.225 66L143.273 19.216H151.785L159.208 43.92C159.913 46.48 160.617 49.104 161.321 53.2C162.089 49.04 162.793 46.608 163.625 43.92L170.985 19.216H180.009L187.241 43.92C188.009 46.544 188.713 49.232 189.481 53.2C190.377 48.848 191.017 46.352 191.721 43.984L199.273 19.216H207.593L193.385 66H185.449L175.465 31.952L165.289 66H157.225ZM212.716 66H204.204L221.1 19.216H229.484L246.38 66H237.74L233.964 55.184H216.492L212.716 66ZM224.236 33.168L218.924 48.272H231.596L226.22 33.168C225.836 31.952 225.388 30.544 225.26 29.584C225.068 30.48 224.684 31.888 224.236 33.168ZM270.743 49.872H260.439V66H252.247V19.216H270.743C280.151 19.216 286.231 25.36 286.231 34.512C286.231 43.536 280.087 49.872 270.743 49.872ZM269.143 26.512H260.439V42.576H269.015C274.647 42.576 277.655 39.568 277.655 34.448C277.655 29.328 274.583 26.512 269.143 26.512Z" fill="#0D0D0D"/>
</svg> 