<svg width="229" height="57" viewBox="0 0 229 57" fill="none" xmlns="http://www.w3.org/2000/svg">
<path d="M4.77601 56.5011L228.244 56.5012L223.469 50.5001L0 50.5L4.77601 56.5011Z" fill="#252525"/>
<path d="M223.5 50.5666L223.5 2.07287e-07L228.242 5.94065L228.242 56.5078L223.5 50.5666Z" fill="#434242"/>
<path d="M0.000226316 1.52588e-05H223.753V50.5939H0.000226316V1.52588e-05Z" fill="#353535"/>
<path d="M82.6885 35V16.7982H89.9343C93.5199 16.7982 95.7111 18.6657 95.7111 21.7035C95.7111 23.7203 94.8147 25.1645 93.0966 25.8866C95.0139 26.5091 95.985 27.9533 95.985 30.0698C95.985 33.1823 93.8187 35 90.0588 35H82.6885ZM89.6605 19.6119H85.8757V24.5669H89.7352C91.4781 24.5669 92.4492 23.6456 92.4492 22.0272C92.4492 20.4585 91.4532 19.6119 89.6605 19.6119ZM89.9343 27.2561H85.8757V32.1863H89.9343C91.7271 32.1863 92.7231 31.3148 92.7231 29.6714C92.7231 28.1276 91.7022 27.2561 89.9343 27.2561ZM98.783 28.3517V16.7982H101.97V28.1525C101.97 30.767 103.389 32.2112 105.979 32.2112C108.569 32.2112 110.013 30.7421 110.013 28.1525V16.7982H113.2V28.3517C113.2 32.6096 110.411 35.2988 105.979 35.2988C101.572 35.2988 98.783 32.6345 98.783 28.3517ZM121.503 27.8288L115.352 16.7982H118.913L122.499 23.4215C122.773 23.9195 122.947 24.3179 123.146 24.7661C123.37 24.3179 123.47 24.0191 123.794 23.4215L127.354 16.7982H130.815L124.69 27.8288V35H121.503V27.8288Z" fill="#9A9A9A"/>
</svg>
