<svg width="28" height="28" viewBox="0 0 28 28" fill="none" xmlns="http://www.w3.org/2000/svg">
<path d="M23.8 8.39988H22.4V4.19994C22.4 3.08605 21.9575 2.01778 21.1698 1.23013C20.3822 0.442493 19.3139 0 18.2 0H4.2C3.08609 0 2.0178 0.442493 1.23015 1.23013C0.442499 2.01778 0 3.08605 0 4.19994V20.9997C0.00137967 21.2761 0.084543 21.5459 0.239009 21.7751C0.393476 22.0043 0.612333 22.1827 0.868 22.2877C1.03415 22.3661 1.21635 22.4044 1.4 22.3997C1.58425 22.4008 1.7669 22.3654 1.93747 22.2958C2.10804 22.2261 2.26318 22.1234 2.394 21.9937L6.328 18.0457H8.4V20.0617C8.4 21.1756 8.8425 22.2439 9.63015 23.0315C10.4178 23.8192 11.4861 24.2617 12.6 24.2617H22.288L25.606 27.5936C25.7368 27.7234 25.892 27.826 26.0625 27.8957C26.2331 27.9654 26.4158 28.0007 26.6 27.9996C26.7836 28.0043 26.9658 27.966 27.132 27.8876C27.3877 27.7826 27.6065 27.6042 27.761 27.375C27.9155 27.1458 27.9986 26.876 28 26.5996V12.5998C28 11.4859 27.5575 10.4177 26.7698 9.63002C25.9822 8.84238 24.9139 8.39988 23.8 8.39988ZM8.4 12.5998V15.2458H5.754C5.56975 15.2447 5.3871 15.28 5.21653 15.3497C5.04596 15.4194 4.89082 15.522 4.76 15.6518L2.8 17.6258V4.19994C2.8 3.82864 2.9475 3.47255 3.21005 3.21001C3.4726 2.94746 3.8287 2.79996 4.2 2.79996H18.2C18.5713 2.79996 18.9274 2.94746 19.1899 3.21001C19.4525 3.47255 19.6 3.82864 19.6 4.19994V8.39988H12.6C11.4861 8.39988 10.4178 8.84238 9.63015 9.63002C8.8425 10.4177 8.4 11.4859 8.4 12.5998ZM25.2 23.2257L23.8 21.8257C23.6703 21.6934 23.5157 21.5882 23.3451 21.5161C23.1745 21.444 22.9912 21.4065 22.806 21.4057H12.6C12.2287 21.4057 11.8726 21.2582 11.6101 20.9957C11.3475 20.7331 11.2 20.377 11.2 20.0057V12.5998C11.2 12.2285 11.3475 11.8724 11.6101 11.6099C11.8726 11.3473 12.2287 11.1998 12.6 11.1998H23.8C24.1713 11.1998 24.5274 11.3473 24.79 11.6099C25.0525 11.8724 25.2 12.2285 25.2 12.5998V23.2257Z" fill="black"/>
</svg>
