<svg width="31" height="27" viewBox="0 0 31 27" fill="none" xmlns="http://www.w3.org/2000/svg">
<path d="M18.1964 12.264H12.894V13.779H18.1964V12.264Z" fill="white"/>
<path d="M18.1964 1.91521H12.894V3.43018H18.1964V1.91521Z" fill="white"/>
<path d="M18.1964 22.6128H12.894V24.1278H18.1964V22.6128Z" fill="white"/>
<path d="M23.1068 12.264H21.5918V13.779H23.1068V12.264Z" fill="white"/>
<path d="M30.1038 12.264H28.5889V13.779H30.1038V12.264Z" fill="white"/>
<path d="M23.1068 0.0214844H21.5918V1.53646H23.1068V0.0214844Z" fill="white"/>
<path d="M23.1068 24.5065H21.5918V26.0215H23.1068V24.5065Z" fill="white"/>
<path d="M9.472 0.0214844H7.95703V1.53646H9.472V0.0214844Z" fill="white"/>
<path d="M9.472 12.264H7.95703V13.779H9.472V12.264Z" fill="white"/>
<path d="M2.41243 12.264H0.897461V13.779H2.41243V12.264Z" fill="white"/>
<path d="M9.472 24.5065H7.95703V26.0215H9.472V24.5065Z" fill="white"/>
<path d="M19.7113 6.96163H18.1963V8.4766H19.7113V6.96163Z" fill="white"/>
<path d="M19.7113 17.3104H18.1963V18.8254H19.7113V17.3104Z" fill="white"/>
<path d="M12.8939 6.96163H11.3789V8.4766H12.8939V6.96163Z" fill="white"/>
<path d="M12.8939 17.3104H11.3789V18.8254H12.8939V17.3104Z" fill="white"/>
<path d="M14.7876 10.3703L14.7876 15.6727L16.3026 15.6727L16.3026 10.3703L14.7876 10.3703Z" fill="white"/>
<path d="M14.7876 0.0215034L14.7876 5.3239L16.3026 5.3239L16.3026 0.0215034L14.7876 0.0215034Z" fill="white"/>
<path d="M7.715 6.96162H2.4126V8.47659H7.715V6.96162Z" fill="white"/>
<path d="M4.30615 5.06792L4.30615 10.3703L5.82112 10.3703L5.82112 5.06792L4.30615 5.06792Z" fill="white"/>
<path d="M28.4088 6.96162H23.1064V8.47659H28.4088V6.96162Z" fill="white"/>
<path d="M25.0005 5.06792L25.0005 10.3703L26.5155 10.3703L26.5155 5.06792L25.0005 5.06792Z" fill="white"/>
<path d="M7.715 19.2041H2.4126V20.7191H7.715V19.2041Z" fill="white"/>
<path d="M4.30615 17.3104L4.30615 22.6128L5.82112 22.6128L5.82112 17.3104L4.30615 17.3104Z" fill="white"/>
<path d="M28.4088 19.2041H23.1064V20.7191H28.4088V19.2041Z" fill="white"/>
<path d="M25.0005 17.3104L25.0005 22.6128L26.5155 22.6128L26.5155 17.3104L25.0005 17.3104Z" fill="white"/>
<path d="M14.7876 20.7191L14.7876 26.0215L16.3026 26.0215L16.3026 20.7191L14.7876 20.7191Z" fill="white"/>
</svg>
