<svg width="277" height="108" viewBox="0 0 277 108" fill="none" xmlns="http://www.w3.org/2000/svg">
<path d="M26 108L276.999 108L264 92.0003L13 92.0002L26 108Z" fill="#1B8D29"/>
<path d="M264 92.0002L264 17L277 33.0002L277 108.001L264 92.0002Z" fill="#29CD3C"/>
<rect x="13" y="17.0002" width="251" height="75" fill="#03FF24"/>
<path d="M58.0464 66.5H49.9286V43.9367H57.8304C64.4975 43.9367 69.0966 48.5358 69.0966 55.2646C69.0966 61.9009 64.5901 66.5 58.0464 66.5ZM57.46 47.5789H53.8795V62.8578H57.676C62.1825 62.8578 64.9296 59.9563 64.9296 55.2646C64.9296 50.4804 62.1208 47.5789 57.46 47.5789ZM93.3648 55.2029C93.3648 62.0552 88.8583 66.8704 82.3764 66.8704C75.9253 66.8704 71.4805 62.0861 71.4805 55.2029C71.4805 48.3506 75.9562 43.5354 82.4072 43.5354C88.8583 43.5354 93.3648 48.3197 93.3648 55.2029ZM89.1978 55.2029C89.1978 50.3878 86.5433 47.332 82.4072 47.332C78.2711 47.332 75.6166 50.3878 75.6166 55.2029C75.6166 60.0181 78.2711 63.0738 82.4072 63.0738C86.5433 63.0738 89.1978 59.9563 89.1978 55.2029ZM100.89 66.5L94.1608 43.9367H98.266L101.847 55.8511C102.186 57.0858 102.526 58.3513 102.865 60.3267C103.236 58.3204 103.575 57.1475 103.976 55.8511L107.526 43.9367H111.878L115.366 55.8511C115.736 57.1166 116.076 58.413 116.446 60.3267C116.878 58.2278 117.187 57.024 117.527 55.882L121.169 43.9367H125.182L118.329 66.5H114.502L109.687 50.0791L104.779 66.5H100.89ZM132.039 66.5H128.149V43.9367H132.07L142.657 59.9255V43.9367H146.546V66.5H142.657L132.039 50.5112V66.5ZM155.491 43.9367V62.8578H164.936V66.5H151.54V43.9367H155.491ZM187.652 55.2029C187.652 62.0552 183.145 66.8704 176.663 66.8704C170.212 66.8704 165.768 62.0861 165.768 55.2029C165.768 48.3506 170.243 43.5354 176.694 43.5354C183.145 43.5354 187.652 48.3197 187.652 55.2029ZM183.485 55.2029C183.485 50.3878 180.83 47.332 176.694 47.332C172.558 47.332 169.904 50.3878 169.904 55.2029C169.904 60.0181 172.558 63.0738 176.694 63.0738C180.83 63.0738 183.485 59.9563 183.485 55.2029ZM192.158 66.5H188.053L196.202 43.9367H200.245L208.394 66.5H204.227L202.406 61.2836H193.979L192.158 66.5ZM197.714 50.6656L195.152 57.95H201.264L198.671 50.6656C198.486 50.0791 198.27 49.4 198.208 48.937C198.116 49.3692 197.93 50.0482 197.714 50.6656ZM219.341 66.5H211.223V43.9367H219.125C225.792 43.9367 230.391 48.5358 230.391 55.2646C230.391 61.9009 225.885 66.5 219.341 66.5ZM218.755 47.5789H215.174V62.8578H218.971C223.477 62.8578 226.224 59.9563 226.224 55.2646C226.224 50.4804 223.416 47.5789 218.755 47.5789Z" fill="black"/>
</svg>
