<svg width="277" height="108" viewBox="0 0 277 108" fill="none" xmlns="http://www.w3.org/2000/svg">
<path d="M26 107.5L276.999 107.5L273 102.5L22 102.5L26 107.5Z" fill="#1B8D29"/>
<path d="M273 102.5L273 27.5L277 32.5001L277 107.501L273 102.5Z" fill="#29CD3C"/>
<rect x="22" y="27.5" width="251" height="75" fill="#03FF24"/>
<path d="M67.0464 76.5H58.9286V53.9367H66.8304C73.4975 53.9367 78.0966 58.5358 78.0966 65.2646C78.0966 71.9009 73.5901 76.5 67.0464 76.5ZM66.46 57.5789H62.8795V72.8578H66.676C71.1825 72.8578 73.9296 69.9563 73.9296 65.2646C73.9296 60.4804 71.1208 57.5789 66.46 57.5789ZM102.365 65.2029C102.365 72.0552 97.8583 76.8704 91.3764 76.8704C84.9253 76.8704 80.4805 72.0861 80.4805 65.2029C80.4805 58.3506 84.9562 53.5354 91.4072 53.5354C97.8583 53.5354 102.365 58.3197 102.365 65.2029ZM98.1978 65.2029C98.1978 60.3878 95.5433 57.332 91.4072 57.332C87.2711 57.332 84.6166 60.3878 84.6166 65.2029C84.6166 70.0181 87.2711 73.0738 91.4072 73.0738C95.5433 73.0738 98.1978 69.9563 98.1978 65.2029ZM109.89 76.5L103.161 53.9367H107.266L110.847 65.8511C111.186 67.0858 111.526 68.3513 111.865 70.3267C112.236 68.3204 112.575 67.1475 112.976 65.8511L116.526 53.9367H120.878L124.366 65.8511C124.736 67.1166 125.076 68.413 125.446 70.3267C125.878 68.2278 126.187 67.024 126.527 65.882L130.169 53.9367H134.182L127.329 76.5H123.502L118.687 60.0791L113.779 76.5H109.89ZM141.039 76.5H137.149V53.9367H141.07L151.657 69.9255V53.9367H155.546V76.5H151.657L141.039 60.5112V76.5ZM164.491 53.9367V72.8578H173.936V76.5H160.54V53.9367H164.491ZM196.652 65.2029C196.652 72.0552 192.145 76.8704 185.663 76.8704C179.212 76.8704 174.768 72.0861 174.768 65.2029C174.768 58.3506 179.243 53.5354 185.694 53.5354C192.145 53.5354 196.652 58.3197 196.652 65.2029ZM192.485 65.2029C192.485 60.3878 189.83 57.332 185.694 57.332C181.558 57.332 178.904 60.3878 178.904 65.2029C178.904 70.0181 181.558 73.0738 185.694 73.0738C189.83 73.0738 192.485 69.9563 192.485 65.2029ZM201.158 76.5H197.053L205.202 53.9367H209.245L217.394 76.5H213.227L211.406 71.2836H202.979L201.158 76.5ZM206.714 60.6656L204.152 67.95H210.264L207.671 60.6656C207.486 60.0791 207.27 59.4 207.208 58.937C207.116 59.3692 206.93 60.0482 206.714 60.6656ZM228.341 76.5H220.223V53.9367H228.125C234.792 53.9367 239.391 58.5358 239.391 65.2646C239.391 71.9009 234.885 76.5 228.341 76.5ZM227.755 57.5789H224.174V72.8578H227.971C232.477 72.8578 235.224 69.9563 235.224 65.2646C235.224 60.4804 232.416 57.5789 227.755 57.5789Z" fill="black"/>
</svg>
