<svg width="277" height="108" viewBox="0 0 277 108" fill="none" xmlns="http://www.w3.org/2000/svg">
<path d="M26 107.5L276.999 107.5L273 102.5L22 102.5L26 107.5Z" fill="#1B8D29"/>
<path d="M273 102.5L273 27.5L277 32.5001L277 107.501L273 102.5Z" fill="#29CD3C"/>
<rect x="22" y="27.5" width="251" height="75" fill="#03FF24"/>
<path d="M48.9894 75.5H41.6254V55.032H48.7934C54.8414 55.032 59.0134 59.204 59.0134 65.308C59.0134 71.328 54.9254 75.5 48.9894 75.5ZM48.4574 58.336H45.2094V72.196H48.6534C52.7414 72.196 55.2334 69.564 55.2334 65.308C55.2334 60.968 52.6854 58.336 48.4574 58.336ZM81.028 65.252C81.028 71.468 76.94 75.836 71.06 75.836C65.208 75.836 61.176 71.496 61.176 65.252C61.176 59.036 65.236 54.668 71.088 54.668C76.94 54.668 81.028 59.008 81.028 65.252ZM77.248 65.252C77.248 60.884 74.84 58.112 71.088 58.112C67.336 58.112 64.928 60.884 64.928 65.252C64.928 69.62 67.336 72.392 71.088 72.392C74.84 72.392 77.248 69.564 77.248 65.252ZM87.8541 75.5L81.7501 55.032H85.4741L88.7221 65.84C89.0301 66.96 89.3381 68.108 89.6461 69.9C89.9821 68.08 90.2901 67.016 90.6541 65.84L93.8741 55.032H97.8221L100.986 65.84C101.322 66.988 101.63 68.164 101.966 69.9C102.358 67.996 102.638 66.904 102.946 65.868L106.25 55.032H109.89L103.674 75.5H100.202L95.8341 60.604L91.3821 75.5H87.8541ZM116.11 75.5H112.582V55.032H116.138L125.742 69.536V55.032H129.27V75.5H125.742L116.11 60.996V75.5ZM137.385 55.032V72.196H145.953V75.5H133.801V55.032H137.385ZM166.559 65.252C166.559 71.468 162.471 75.836 156.591 75.836C150.739 75.836 146.707 71.496 146.707 65.252C146.707 59.036 150.767 54.668 156.619 54.668C162.471 54.668 166.559 59.008 166.559 65.252ZM162.779 65.252C162.779 60.884 160.371 58.112 156.619 58.112C152.867 58.112 150.459 60.884 150.459 65.252C150.459 69.62 152.867 72.392 156.619 72.392C160.371 72.392 162.779 69.564 162.779 65.252ZM170.647 75.5H166.923L174.315 55.032H177.983L185.375 75.5H181.595L179.943 70.768H172.299L170.647 75.5ZM175.687 61.136L173.363 67.744H178.907L176.555 61.136C176.387 60.604 176.191 59.988 176.135 59.568C176.051 59.96 175.883 60.576 175.687 61.136ZM195.306 75.5H187.942V55.032H195.11C201.158 55.032 205.33 59.204 205.33 65.308C205.33 71.328 201.242 75.5 195.306 75.5ZM194.774 58.336H191.526V72.196H194.97C199.058 72.196 201.55 69.564 201.55 65.308C201.55 60.968 199.002 58.336 194.774 58.336ZM212.252 55.032V75.5H208.668V55.032H212.252ZM220.317 75.5H216.789V55.032H220.345L229.949 69.536V55.032H233.477V75.5H229.949L220.317 60.996V75.5ZM246.968 58.056C242.908 58.056 240.584 60.996 240.584 65.42C240.584 69.984 243.216 72.476 246.996 72.476C250.552 72.476 252.708 70.516 252.708 67.24V67.156H246.52V63.992H256.04V75.5H253.016L252.792 73.148C251.672 74.716 249.348 75.808 246.576 75.808C240.836 75.808 236.832 71.636 236.832 65.336C236.832 59.12 240.892 54.696 247.052 54.696C251.728 54.696 255.34 57.412 255.928 61.584H252.148C251.504 59.176 249.432 58.056 246.968 58.056Z" fill="black"/>
</svg>
