<svg width="264" height="91" viewBox="0 0 264 91" fill="none" xmlns="http://www.w3.org/2000/svg">
<path d="M13 90.4999L263.999 90.5L260 85.5L9 85.4999L13 90.4999Z" fill="#1B8D29"/>
<path d="M260 85.5001L260 10.5L264 15.5001L264 90.501L260 85.5001Z" fill="#29CD3C"/>
<rect x="9" y="10.5" width="251" height="75" fill="#03FF24"/>
<path d="M54.0464 59.5H45.9286V36.9367H53.8304C60.4975 36.9367 65.0966 41.5358 65.0966 48.2646C65.0966 54.9009 60.5901 59.5 54.0464 59.5ZM53.46 40.5789H49.8795V55.8578H53.676C58.1825 55.8578 60.9296 52.9563 60.9296 48.2646C60.9296 43.4804 58.1208 40.5789 53.46 40.5789ZM89.3648 48.2029C89.3648 55.0552 84.8583 59.8704 78.3764 59.8704C71.9253 59.8704 67.4805 55.0861 67.4805 48.2029C67.4805 41.3506 71.9562 36.5354 78.4072 36.5354C84.8583 36.5354 89.3648 41.3197 89.3648 48.2029ZM85.1978 48.2029C85.1978 43.3878 82.5433 40.332 78.4072 40.332C74.2711 40.332 71.6166 43.3878 71.6166 48.2029C71.6166 53.0181 74.2711 56.0738 78.4072 56.0738C82.5433 56.0738 85.1978 52.9563 85.1978 48.2029ZM96.8897 59.5L90.1608 36.9367H94.266L97.8465 48.8511C98.1861 50.0858 98.5256 51.3513 98.8651 53.3267C99.2355 51.3204 99.5751 50.1475 99.9763 48.8511L103.526 36.9367H107.878L111.366 48.8511C111.736 50.1166 112.076 51.413 112.446 53.3267C112.878 51.2278 113.187 50.024 113.527 48.882L117.169 36.9367H121.182L114.329 59.5H110.502L105.687 43.0791L100.779 59.5H96.8897ZM128.039 59.5H124.149V36.9367H128.07L138.657 52.9255V36.9367H142.546V59.5H138.657L128.039 43.5112V59.5ZM151.491 36.9367V55.8578H160.936V59.5H147.54V36.9367H151.491ZM183.652 48.2029C183.652 55.0552 179.145 59.8704 172.663 59.8704C166.212 59.8704 161.768 55.0861 161.768 48.2029C161.768 41.3506 166.243 36.5354 172.694 36.5354C179.145 36.5354 183.652 41.3197 183.652 48.2029ZM179.485 48.2029C179.485 43.3878 176.83 40.332 172.694 40.332C168.558 40.332 165.904 43.3878 165.904 48.2029C165.904 53.0181 168.558 56.0738 172.694 56.0738C176.83 56.0738 179.485 52.9563 179.485 48.2029ZM188.158 59.5H184.053L192.202 36.9367H196.245L204.394 59.5H200.227L198.406 54.2836H189.979L188.158 59.5ZM193.714 43.6656L191.152 50.95H197.264L194.671 43.6656C194.486 43.0791 194.27 42.4 194.208 41.937C194.116 42.3692 193.93 43.0482 193.714 43.6656ZM215.341 59.5H207.223V36.9367H215.125C221.792 36.9367 226.391 41.5358 226.391 48.2646C226.391 54.9009 221.885 59.5 215.341 59.5ZM214.755 40.5789H211.174V55.8578H214.971C219.477 55.8578 222.224 52.9563 222.224 48.2646C222.224 43.4804 219.416 40.5789 214.755 40.5789Z" fill="black"/>
</svg>
