<svg width="264" height="91" viewBox="0 0 264 91" fill="none" xmlns="http://www.w3.org/2000/svg">
<path d="M13 91.0002L263.999 91.0003L251 75.0003L0 75.0002L13 91.0002Z" fill="#1B8D29"/>
<path d="M251 75.0002L251 3.87152e-05L264 16.0002L264 91.0011L251 75.0002Z" fill="#29CD3C"/>
<rect y="0.000244141" width="251" height="75" fill="#03FF24"/>
<path d="M45.0464 49.5H36.9286V26.9367H44.8304C51.4975 26.9367 56.0966 31.5358 56.0966 38.2646C56.0966 44.9009 51.5901 49.5 45.0464 49.5ZM44.46 30.5789H40.8795V45.8578H44.676C49.1825 45.8578 51.9296 42.9563 51.9296 38.2646C51.9296 33.4804 49.1208 30.5789 44.46 30.5789ZM80.3648 38.2029C80.3648 45.0552 75.8583 49.8704 69.3764 49.8704C62.9253 49.8704 58.4805 45.0861 58.4805 38.2029C58.4805 31.3506 62.9562 26.5354 69.4072 26.5354C75.8583 26.5354 80.3648 31.3197 80.3648 38.2029ZM76.1978 38.2029C76.1978 33.3878 73.5433 30.332 69.4072 30.332C65.2711 30.332 62.6166 33.3878 62.6166 38.2029C62.6166 43.0181 65.2711 46.0738 69.4072 46.0738C73.5433 46.0738 76.1978 42.9563 76.1978 38.2029ZM87.8897 49.5L81.1608 26.9367H85.266L88.8465 38.8511C89.1861 40.0858 89.5256 41.3513 89.8651 43.3267C90.2355 41.3204 90.5751 40.1475 90.9763 38.8511L94.5259 26.9367H98.8781L102.366 38.8511C102.736 40.1166 103.076 41.413 103.446 43.3267C103.878 41.2278 104.187 40.024 104.527 38.882L108.169 26.9367H112.182L105.329 49.5H101.502L96.6866 33.0791L91.7788 49.5H87.8897ZM119.039 49.5H115.149V26.9367H119.07L129.657 42.9255V26.9367H133.546V49.5H129.657L119.039 33.5112V49.5ZM142.491 26.9367V45.8578H151.936V49.5H138.54V26.9367H142.491ZM174.652 38.2029C174.652 45.0552 170.145 49.8704 163.663 49.8704C157.212 49.8704 152.768 45.0861 152.768 38.2029C152.768 31.3506 157.243 26.5354 163.694 26.5354C170.145 26.5354 174.652 31.3197 174.652 38.2029ZM170.485 38.2029C170.485 33.3878 167.83 30.332 163.694 30.332C159.558 30.332 156.904 33.3878 156.904 38.2029C156.904 43.0181 159.558 46.0738 163.694 46.0738C167.83 46.0738 170.485 42.9563 170.485 38.2029ZM179.158 49.5H175.053L183.202 26.9367H187.245L195.394 49.5H191.227L189.406 44.2836H180.979L179.158 49.5ZM184.714 33.6656L182.152 40.95H188.264L185.671 33.6656C185.486 33.0791 185.27 32.4 185.208 31.937C185.116 32.3692 184.93 33.0482 184.714 33.6656ZM206.341 49.5H198.223V26.9367H206.125C212.792 26.9367 217.391 31.5358 217.391 38.2646C217.391 44.9009 212.885 49.5 206.341 49.5ZM205.755 30.5789H202.174V45.8578H205.971C210.477 45.8578 213.224 42.9563 213.224 38.2646C213.224 33.4804 210.416 30.5789 205.755 30.5789Z" fill="black"/>
</svg>
