<svg width="277" height="108" viewBox="0 0 277 108" fill="none" xmlns="http://www.w3.org/2000/svg">
<path d="M26 107.5L276.999 107.5L273 102.5L22 102.5L26 107.5Z" fill="#252525"/>
<path d="M273 102.5L273 27.5L277 32.5001L277 107.501L273 102.5Z" fill="#434242"/>
<rect x="22" y="27.5" width="251" height="75" fill="black"/>
<path d="M91.6016 68.7217H86.6321V76.5H82.6812V53.9367H91.6016C96.139 53.9367 99.0713 56.8999 99.0713 61.3137C99.0713 65.6659 96.1081 68.7217 91.6016 68.7217ZM90.8299 57.4555H86.6321V65.2029H90.7682C93.4844 65.2029 94.9352 63.7522 94.9352 61.2829C94.9352 58.8136 93.4536 57.4555 90.8299 57.4555ZM122.983 65.2029C122.983 72.0552 118.476 76.8704 111.994 76.8704C105.543 76.8704 101.098 72.0861 101.098 65.2029C101.098 58.3506 105.574 53.5354 112.025 53.5354C118.476 53.5354 122.983 58.3197 122.983 65.2029ZM118.816 65.2029C118.816 60.3878 116.161 57.332 112.025 57.332C107.889 57.332 105.234 60.3878 105.234 65.2029C105.234 70.0181 107.889 73.0738 112.025 73.0738C116.161 73.0738 118.816 69.9563 118.816 65.2029ZM125.363 60.2334C125.363 56.2825 128.635 53.5354 133.389 53.5354C137.957 53.5354 140.858 56.0665 140.982 60.1408H137.031C136.938 58.1962 135.549 57.0542 133.327 57.0542C130.888 57.0542 129.314 58.2271 129.314 60.11C129.314 61.715 130.179 62.6101 132.061 63.0423L135.611 63.8139C139.469 64.6473 141.352 66.6228 141.352 69.9872C141.352 74.185 138.08 76.9013 133.111 76.9013C128.296 76.9013 125.147 74.3394 125.055 70.2959H129.006C129.036 72.2096 130.58 73.3516 133.111 73.3516C135.734 73.3516 137.401 72.2096 137.401 70.3267C137.401 68.8143 136.63 67.9192 134.778 67.5179L131.197 66.7154C127.37 65.882 125.363 63.6905 125.363 60.2334ZM142.649 57.5789V53.9367H159.811V57.5789H153.206V76.5H149.255V57.5789H142.649ZM166.782 53.9367V76.5H162.831V53.9367H166.782ZM175.673 76.5H171.784V53.9367H175.704L186.291 69.9255V53.9367H190.18V76.5H186.291L175.673 60.5112V76.5ZM205.052 57.2703C200.576 57.2703 198.014 60.5112 198.014 65.3881C198.014 70.4193 200.916 73.1664 205.083 73.1664C209.003 73.1664 211.379 71.0058 211.379 67.3944V67.3018H204.558V63.8139H215.053V76.5H211.719L211.472 73.9072C210.237 75.6357 207.676 76.8395 204.62 76.8395C198.292 76.8395 193.878 72.2404 193.878 65.2955C193.878 58.4432 198.354 53.5663 205.144 53.5663C210.299 53.5663 214.281 56.5603 214.929 61.1594H210.762C210.052 58.5049 207.768 57.2703 205.052 57.2703Z" fill="white"/>
</svg>
