<svg width="264" height="91" viewBox="0 0 264 91" fill="none" xmlns="http://www.w3.org/2000/svg">
<path d="M13.0001 91.0014L264.003 91.0014L260.004 86.0013L9 86.0012L13.0001 91.0014Z" fill="#252525"/>
<path d="M260.004 86.0014L260.004 11.0002L264.004 16.0003L264.004 91.0023L260.004 86.0014Z" fill="#434242"/>
<rect x="9" y="11.0001" width="251.004" height="75.0011" fill="black"/>
<path d="M78.6017 52.2219H73.6322V60.0004H69.6812V37.4367H78.6017C83.1392 37.4367 86.0715 40.3999 86.0715 44.8139C86.0715 49.1661 83.1083 52.2219 78.6017 52.2219ZM77.8301 40.9555H73.6322V48.7031H77.7683C80.4846 48.7031 81.9353 47.2524 81.9353 44.783C81.9353 42.3137 80.4537 40.9555 77.8301 40.9555ZM109.983 48.7031C109.983 55.5555 105.477 60.3708 98.9946 60.3708C92.5434 60.3708 88.0986 55.5864 88.0986 48.7031C88.0986 41.8507 92.5743 37.0355 99.0254 37.0355C105.477 37.0355 109.983 41.8198 109.983 48.7031ZM105.816 48.7031C105.816 43.8879 103.162 40.8321 99.0254 40.8321C94.8893 40.8321 92.2347 43.8879 92.2347 48.7031C92.2347 53.5183 94.8893 56.5741 99.0254 56.5741C103.162 56.5741 105.816 53.4566 105.816 48.7031ZM112.364 43.7336C112.364 39.7826 115.636 37.0355 120.389 37.0355C124.958 37.0355 127.859 39.5665 127.983 43.6409H124.032C123.939 41.6963 122.55 40.5543 120.328 40.5543C117.889 40.5543 116.315 41.7272 116.315 43.6101C116.315 45.2152 117.179 46.1103 119.062 46.5424L122.612 47.3141C126.47 48.1475 128.353 50.123 128.353 53.4875C128.353 57.6854 125.081 60.4016 120.112 60.4016C115.296 60.4016 112.148 57.8397 112.055 53.7961H116.006C116.037 55.7099 117.58 56.852 120.112 56.852C122.735 56.852 124.402 55.7099 124.402 53.827C124.402 52.3145 123.63 51.4194 121.778 51.0181L118.198 50.2156C114.37 49.3822 112.364 47.1906 112.364 43.7336ZM129.65 41.079V37.4367H146.812V41.079H140.207V60.0004H136.256V41.079H129.65ZM153.783 37.4367V60.0004H149.832V37.4367H153.783ZM162.674 60.0004H158.785V37.4367H162.705L173.292 53.4257V37.4367H177.182V60.0004H173.292L162.674 44.0114V60.0004ZM192.054 40.7703C187.578 40.7703 185.016 44.0114 185.016 48.8883C185.016 53.9196 187.918 56.6667 192.085 56.6667C196.005 56.6667 198.381 54.5061 198.381 50.8947V50.8021H191.56V47.3141H202.055V60.0004H198.721L198.474 57.4076C197.239 59.1361 194.677 60.3399 191.622 60.3399C185.294 60.3399 180.88 55.7407 180.88 48.7957C180.88 41.9433 185.356 37.0663 192.146 37.0663C197.301 37.0663 201.283 40.0604 201.931 44.6596H197.764C197.054 42.005 194.77 40.7703 192.054 40.7703Z" fill="white"/>
</svg>
