<svg width="277" height="108" viewBox="0 0 277 108" fill="none" xmlns="http://www.w3.org/2000/svg">
<path d="M26 108L276.999 108L264 92.0003L13 92.0002L26 108Z" fill="#252525"/>
<path d="M264 92.0002L264 17L277 33.0002L277 108.001L264 92.0002Z" fill="#434242"/>
<rect x="13" y="17.0002" width="251" height="75" fill="black"/>
<path d="M67.6933 58.7217H62.7238V66.5H58.7729V43.9367H67.6933C72.2306 43.9367 75.1629 46.8999 75.1629 51.3137C75.1629 55.6659 72.1998 58.7217 67.6933 58.7217ZM66.9216 47.4555H62.7238V55.2029H66.8599C69.5761 55.2029 71.0268 53.7522 71.0268 51.2829C71.0268 48.8136 69.5453 47.4555 66.9216 47.4555ZM99.0742 55.2029C99.0742 62.0552 94.5678 66.8704 88.0858 66.8704C81.6347 66.8704 77.19 62.0861 77.19 55.2029C77.19 48.3506 81.6656 43.5354 88.1167 43.5354C94.5678 43.5354 99.0742 48.3197 99.0742 55.2029ZM94.9073 55.2029C94.9073 50.3878 92.2528 47.332 88.1167 47.332C83.9806 47.332 81.3261 50.3878 81.3261 55.2029C81.3261 60.0181 83.9806 63.0738 88.1167 63.0738C92.2528 63.0738 94.9073 59.9563 94.9073 55.2029ZM101.455 50.2334C101.455 46.2825 104.727 43.5354 109.48 43.5354C114.049 43.5354 116.95 46.0665 117.073 50.1408H113.123C113.03 48.1962 111.641 47.0542 109.419 47.0542C106.98 47.0542 105.406 48.2271 105.406 50.11C105.406 51.715 106.27 52.6101 108.153 53.0423L111.703 53.8139C115.561 54.6473 117.444 56.6228 117.444 59.9872C117.444 64.185 114.172 66.9013 109.203 66.9013C104.387 66.9013 101.239 64.3394 101.146 60.2959H105.097C105.128 62.2096 106.671 63.3516 109.203 63.3516C111.826 63.3516 113.493 62.2096 113.493 60.3267C113.493 58.8143 112.721 57.9192 110.869 57.5179L107.289 56.7154C103.461 55.882 101.455 53.6905 101.455 50.2334ZM118.741 47.5789V43.9367H135.903V47.5789H129.297V66.5H125.347V47.5789H118.741ZM167.83 55.2029C167.83 62.0552 163.324 66.8704 156.842 66.8704C150.391 66.8704 145.946 62.0861 145.946 55.2029C145.946 48.3506 150.422 43.5354 156.873 43.5354C163.324 43.5354 167.83 48.3197 167.83 55.2029ZM163.663 55.2029C163.663 50.3878 161.009 47.332 156.873 47.332C152.737 47.332 150.082 50.3878 150.082 55.2029C150.082 60.0181 152.737 63.0738 156.873 63.0738C161.009 63.0738 163.663 59.9563 163.663 55.2029ZM175.397 66.5H171.507V43.9367H175.427L186.015 59.9255V43.9367H189.904V66.5H186.015L175.397 50.5112V66.5ZM208.897 55.2338L201.397 43.9367H206.088L208.836 47.9802C209.761 49.3692 210.533 50.6656 211.367 52.2089L216.614 43.9367H221.213L213.836 55.2029L221.244 66.5H216.583L214.052 62.7652C213.064 61.2527 212.262 59.8946 211.367 58.2587L205.872 66.5H201.242L208.897 55.2338Z" fill="white"/>
</svg>
