<svg width="277" height="108" viewBox="0 0 277 108" fill="none" xmlns="http://www.w3.org/2000/svg">
<path d="M26 107.5L276.999 107.5L273 102.5L22 102.5L26 107.5Z" fill="#252525"/>
<path d="M273 102.5L273 27.5L277 32.5001L277 107.501L273 102.5Z" fill="#434242"/>
<rect x="22" y="27.5" width="251" height="75" fill="black"/>
<path d="M76.6933 68.7217H71.7238V76.5H67.7729V53.9367H76.6933C81.2306 53.9367 84.1629 56.8999 84.1629 61.3137C84.1629 65.6659 81.1998 68.7217 76.6933 68.7217ZM75.9216 57.4555H71.7238V65.2029H75.8599C78.5761 65.2029 80.0268 63.7522 80.0268 61.2829C80.0268 58.8136 78.5453 57.4555 75.9216 57.4555ZM108.074 65.2029C108.074 72.0552 103.568 76.8704 97.0858 76.8704C90.6347 76.8704 86.19 72.0861 86.19 65.2029C86.19 58.3506 90.6656 53.5354 97.1167 53.5354C103.568 53.5354 108.074 58.3197 108.074 65.2029ZM103.907 65.2029C103.907 60.3878 101.253 57.332 97.1167 57.332C92.9806 57.332 90.3261 60.3878 90.3261 65.2029C90.3261 70.0181 92.9806 73.0738 97.1167 73.0738C101.253 73.0738 103.907 69.9563 103.907 65.2029ZM110.455 60.2334C110.455 56.2825 113.727 53.5354 118.48 53.5354C123.049 53.5354 125.95 56.0665 126.073 60.1408H122.123C122.03 58.1962 120.641 57.0542 118.419 57.0542C115.98 57.0542 114.406 58.2271 114.406 60.11C114.406 61.715 115.27 62.6101 117.153 63.0423L120.703 63.8139C124.561 64.6473 126.444 66.6228 126.444 69.9872C126.444 74.185 123.172 76.9013 118.203 76.9013C113.387 76.9013 110.239 74.3394 110.146 70.2959H114.097C114.128 72.2096 115.671 73.3516 118.203 73.3516C120.826 73.3516 122.493 72.2096 122.493 70.3267C122.493 68.8143 121.721 67.9192 119.869 67.5179L116.289 66.7154C112.461 65.882 110.455 63.6905 110.455 60.2334ZM127.741 57.5789V53.9367H144.903V57.5789H138.297V76.5H134.347V57.5789H127.741ZM176.83 65.2029C176.83 72.0552 172.324 76.8704 165.842 76.8704C159.391 76.8704 154.946 72.0861 154.946 65.2029C154.946 58.3506 159.422 53.5354 165.873 53.5354C172.324 53.5354 176.83 58.3197 176.83 65.2029ZM172.663 65.2029C172.663 60.3878 170.009 57.332 165.873 57.332C161.737 57.332 159.082 60.3878 159.082 65.2029C159.082 70.0181 161.737 73.0738 165.873 73.0738C170.009 73.0738 172.663 69.9563 172.663 65.2029ZM184.397 76.5H180.507V53.9367H184.427L195.015 69.9255V53.9367H198.904V76.5H195.015L184.397 60.5112V76.5ZM217.897 65.2338L210.397 53.9367H215.088L217.836 57.9802C218.761 59.3692 219.533 60.6656 220.367 62.2089L225.614 53.9367H230.213L222.836 65.2029L230.244 76.5H225.583L223.052 72.7652C222.064 71.2527 221.262 69.8946 220.367 68.2587L214.872 76.5H210.242L217.897 65.2338Z" fill="white"/>
</svg>
