<svg width="56" height="58" viewBox="0 0 56 58" fill="none" xmlns="http://www.w3.org/2000/svg">
<path d="M5.25136 57.0476L55.8398 57.0476L50.5965 50.594L0.0078125 50.594L5.25136 57.0476Z" fill="#1B8D29"/>
<path d="M50.5924 50.5807L50.5924 0.000477066L55.8359 6.45417L55.8359 57.0347L50.5924 50.5807Z" fill="#29CD3C"/>
<path d="M0 0H50.5939V50.5939H0V0Z" fill="#03FF24"/>
<path d="M21.1744 11C24.5645 17.7802 14.3942 21.1703 14.3942 27.9506C14.3942 34.7308 21.1744 38.1209 21.1744 38.1209C17.8521 31.4085 27.9546 27.9506 27.9546 21.1703C27.9546 14.3901 21.1744 11 21.1744 11ZM31.3447 21.1703C34.7348 27.9506 24.5645 31.3407 24.5645 38.1209H34.7348C36.0909 38.1209 38.125 36.4259 38.125 31.3407C38.125 24.5605 31.3447 21.1703 31.3447 21.1703Z" fill="black"/>
</svg>
