<svg width="56" height="58" viewBox="0 0 56 58" fill="none" xmlns="http://www.w3.org/2000/svg">
<path d="M5.25136 57.0476L55.8398 57.0476L50.5965 50.594L0.0078125 50.594L5.25136 57.0476Z" fill="#252525"/>
<path d="M50.5924 50.5807L50.5924 0.000477066L55.8359 6.45417L55.8359 57.0347L50.5924 50.5807Z" fill="#434242"/>
<path d="M0 0H50.5939V50.5939H0V0Z" fill="#252525"/>
<path d="M20.7802 11C24.1703 17.7802 14 21.1703 14 27.9506C14 34.7308 20.7802 38.1209 20.7802 38.1209C17.4579 31.4085 27.5605 27.9506 27.5605 21.1703C27.5605 14.3901 20.7802 11 20.7802 11ZM30.9506 21.1703C34.3407 27.9506 24.1703 31.3407 24.1703 38.1209H34.3407C35.6967 38.1209 37.7308 36.4259 37.7308 31.3407C37.7308 24.5605 30.9506 21.1703 30.9506 21.1703Z" fill="#434242"/>
</svg>
