<svg width="229" height="57" viewBox="0 0 229 57" fill="none" xmlns="http://www.w3.org/2000/svg">
<path d="M4.77601 56.5011L228.244 56.5012L223.469 50.5001L0 50.5L4.77601 56.5011Z" fill="#252525"/>
<path d="M223.5 50.5666L223.5 2.07287e-07L228.242 5.94065L228.242 56.5078L223.5 50.5666Z" fill="#434242"/>
<path d="M0 0H223.753V50.5939H0V0Z" fill="#353535"/>
<path d="M78.6883 21.8778C78.6883 18.6906 81.3276 16.4745 85.1622 16.4745C88.8474 16.4745 91.188 18.5163 91.2876 21.8031H88.1004C88.0257 20.2344 86.9052 19.3131 85.1124 19.3131C83.1453 19.3131 81.8754 20.2593 81.8754 21.7782C81.8754 23.0729 82.5726 23.795 84.0915 24.1436L86.955 24.7661C90.0675 25.4384 91.5864 27.032 91.5864 29.7461C91.5864 33.1325 88.947 35.3237 84.9381 35.3237C81.0537 35.3237 78.514 33.257 78.4393 29.9951H81.6264C81.6513 31.5389 82.8963 32.4602 84.9381 32.4602C87.0546 32.4602 88.3992 31.5389 88.3992 30.02C88.3992 28.7999 87.7767 28.0778 86.2827 27.7541L83.3943 27.1067C80.3067 26.4344 78.6883 24.6665 78.6883 21.8778ZM105.774 35H94.4697V16.7982H105.774V19.7364H97.6569V24.4175H104.928V27.2312H97.6569V32.0618H105.774V35ZM112.417 16.7982V32.0618H120.036V35H109.23V16.7982H112.417ZM125.815 16.7982V32.0618H133.435V35H122.628V16.7982H125.815Z" fill="#9A9A9A"/>
</svg>
