<svg width="621" height="168" viewBox="0 0 621 168" fill="none" xmlns="http://www.w3.org/2000/svg">
<path d="M40 167.999L621 167.999L601 142.994H20L40 167.999Z" fill="#1B8D29"/>
<path d="M601 143L601 42L621 67L621 168L601 143Z" fill="#29CD3C"/>
<path d="M22.5722 44.5722H598.428V140.428H22.5722V44.5722Z" fill="#08F31A" stroke="#08F31B" stroke-width="5.14439"/>
<path d="M208.476 102.681L222.09 101.828C222.384 104.039 222.985 105.723 223.89 106.882C225.364 108.756 227.47 109.693 230.207 109.693C232.25 109.693 233.819 109.219 234.914 108.271C236.03 107.303 236.588 106.187 236.588 104.923C236.588 103.723 236.061 102.649 235.008 101.701C233.956 100.754 231.513 99.8589 227.68 99.0166C221.405 97.6057 216.93 95.7316 214.256 93.3942C211.561 91.0568 210.213 88.0771 210.213 84.4552C210.213 82.0757 210.897 79.8331 212.266 77.7273C213.656 75.6005 215.73 73.9369 218.489 72.7367C221.268 71.5153 225.069 70.9046 229.891 70.9046C235.809 70.9046 240.315 72.0102 243.41 74.2212C246.527 76.4112 248.38 79.9068 248.97 84.7079L235.482 85.4976C235.124 83.4129 234.366 81.8967 233.208 80.9491C232.071 80.0015 230.492 79.5277 228.47 79.5277C226.807 79.5277 225.554 79.8857 224.711 80.6017C223.869 81.2966 223.448 82.1494 223.448 83.1602C223.448 83.8972 223.795 84.5605 224.49 85.1501C225.164 85.7608 226.764 86.3293 229.291 86.8558C235.545 88.2035 240.02 89.5722 242.716 90.962C245.432 92.3308 247.401 94.0364 248.622 96.079C249.865 98.1216 250.486 100.406 250.486 102.933C250.486 105.902 249.665 108.64 248.022 111.146C246.38 113.652 244.084 115.557 241.136 116.863C238.188 118.147 234.471 118.79 229.986 118.79C222.111 118.79 216.657 117.274 213.624 114.241C210.592 111.209 208.876 107.355 208.476 102.681ZM252.95 71.6943H266.532L271.428 97.5636L278.566 71.6943H292.117L299.287 97.5636L304.183 71.6943H317.702L307.499 118H293.475L285.357 88.8457L277.271 118H263.247L252.95 71.6943ZM350.899 110.356H334.6L332.358 118H317.733L335.137 71.6943H350.741L368.145 118H353.173L350.899 110.356ZM347.898 100.343L342.781 83.6971L337.696 100.343H347.898ZM372.694 71.6943H396.478C401.658 71.6943 405.533 72.9262 408.102 75.3899C410.692 77.8537 411.987 81.3597 411.987 85.9082C411.987 90.583 410.576 94.2365 407.755 96.8687C404.954 99.5009 400.669 100.817 394.899 100.817H387.065V118H372.694V71.6943ZM387.065 91.4358H390.572C393.33 91.4358 395.267 90.962 396.383 90.0144C397.5 89.0458 398.058 87.8139 398.058 86.3188C398.058 84.8658 397.573 83.634 396.605 82.6232C395.636 81.6124 393.814 81.1071 391.14 81.1071H387.065V91.4358Z" fill="#0D0D0D"/>
</svg>
