<svg width="413" height="111" viewBox="0 0 413 111" fill="none" xmlns="http://www.w3.org/2000/svg">
<path d="M21 110.998H413L407 103H14L21 110.998Z" fill="#1B8D29"/>
<path d="M407 103.047L407 17L413 25L413 111L407 103.047Z" fill="#29CD3C"/>
<path d="M14.0095 17.0001H407.01V103H14.0095V17.0001Z" fill="#03FF24"/>
<path d="M87.0629 53.704C87.0629 47.56 92.1509 43.288 99.5429 43.288C106.647 43.288 111.159 47.224 111.351 53.56H105.207C105.063 50.536 102.903 48.76 99.4469 48.76C95.6549 48.76 93.2069 50.584 93.2069 53.512C93.2069 56.008 94.5509 57.4 97.4789 58.072L102.999 59.272C108.999 60.568 111.927 63.64 111.927 68.872C111.927 75.4 106.839 79.624 99.1109 79.624C91.6229 79.624 86.7269 75.64 86.5829 69.352H92.7269C92.7749 72.328 95.1749 74.104 99.1109 74.104C103.191 74.104 105.783 72.328 105.783 69.4C105.783 67.048 104.583 65.656 101.703 65.032L96.1349 63.784C90.1829 62.488 87.0629 59.08 87.0629 53.704ZM124.312 79L113.848 43.912H120.232L125.8 62.44C126.328 64.36 126.856 66.328 127.384 69.4C127.96 66.28 128.488 64.456 129.112 62.44L134.632 43.912H141.4L146.824 62.44C147.4 64.408 147.928 66.424 148.504 69.4C149.176 66.136 149.656 64.264 150.184 62.488L155.848 43.912H162.088L151.432 79H145.48L137.992 53.464L130.36 79H124.312ZM165.931 79H159.547L172.219 43.912H178.507L191.179 79H184.699L181.867 70.888H168.763L165.931 79ZM174.571 54.376L170.587 65.704H180.091L176.059 54.376C175.771 53.464 175.435 52.408 175.339 51.688C175.195 52.36 174.907 53.416 174.571 54.376ZM209.451 66.904H201.723V79H195.579V43.912H209.451C216.507 43.912 221.067 48.52 221.067 55.384C221.067 62.152 216.459 66.904 209.451 66.904ZM208.251 49.384H201.723V61.432H208.155C212.379 61.432 214.635 59.176 214.635 55.336C214.635 51.496 212.331 49.384 208.251 49.384ZM240.107 66.904H232.379V79H226.235V43.912H240.107C247.163 43.912 251.723 48.52 251.723 55.384C251.723 62.152 247.115 66.904 240.107 66.904ZM238.907 49.384H232.379V61.432H238.811C243.035 61.432 245.291 59.176 245.291 55.336C245.291 51.496 242.987 49.384 238.907 49.384ZM263.035 43.912V79H256.891V43.912H263.035ZM276.861 79H270.813V43.912H276.909L293.373 68.776V43.912H299.421V79H293.373L276.861 54.136V79ZM322.548 49.096C315.588 49.096 311.604 54.136 311.604 61.72C311.604 69.544 316.116 73.816 322.596 73.816C328.692 73.816 332.388 70.456 332.388 64.84V64.696H321.78V59.272H338.1V79H332.916L332.532 74.968C330.612 77.656 326.628 79.528 321.876 79.528C312.036 79.528 305.172 72.376 305.172 61.576C305.172 50.92 312.132 43.336 322.692 43.336C330.708 43.336 336.9 47.992 337.908 55.144H331.428C330.324 51.016 326.772 49.096 322.548 49.096Z" fill="black"/>
</svg>
