<svg width="413" height="143" viewBox="0 0 413 143" fill="none" xmlns="http://www.w3.org/2000/svg">
<path d="M20 142.217L413 142.217L393 117.213H0L20 142.217Z" fill="#1B8D29"/>
<path d="M393 117.218L393 0.218263L413 25.2183V142.218L393 117.218Z" fill="#29CD3C"/>
<path d="M2.57232 2.79046H390.428V114.64H2.5722L2.57232 2.79046Z" fill="#08F31A" stroke="#08F31B" stroke-width="5.14439"/>
<path d="M107.559 49.4903C107.559 41.2983 114.343 35.6023 124.199 35.6023C133.671 35.6023 139.687 40.8503 139.943 49.2983H131.751C131.559 45.2663 128.679 42.8983 124.071 42.8983C119.015 42.8983 115.751 45.3303 115.751 49.2343C115.751 52.5623 117.543 54.4183 121.447 55.3143L128.807 56.9143C136.807 58.6423 140.711 62.7383 140.711 69.7143C140.711 78.4183 133.927 84.0503 123.623 84.0503C113.639 84.0503 107.111 78.7383 106.919 70.3543H115.111C115.175 74.3223 118.375 76.6903 123.623 76.6903C129.063 76.6903 132.519 74.3223 132.519 70.4183C132.519 67.2823 130.919 65.4263 127.079 64.5943L119.655 62.9303C111.719 61.2023 107.559 56.6583 107.559 49.4903ZM157.225 83.2183L143.273 36.4343H151.785L159.208 61.1383C159.913 63.6983 160.617 66.3223 161.321 70.4183C162.089 66.2583 162.793 63.8263 163.625 61.1383L170.985 36.4343H180.009L187.241 61.1383C188.009 63.7623 188.713 66.4503 189.481 70.4183C190.377 66.0663 191.017 63.5703 191.721 61.2023L199.273 36.4343H207.593L193.385 83.2183H185.449L175.465 49.1703L165.289 83.2183H157.225ZM212.716 83.2183H204.204L221.1 36.4343H229.484L246.38 83.2183H237.74L233.964 72.4023H216.492L212.716 83.2183ZM224.236 50.3863L218.924 65.4903H231.596L226.22 50.3863C225.836 49.1703 225.388 47.7623 225.26 46.8023C225.068 47.6983 224.684 49.1063 224.236 50.3863ZM270.743 67.0903H260.439V83.2183H252.247V36.4343H270.743C280.151 36.4343 286.231 42.5783 286.231 51.7303C286.231 60.7543 280.087 67.0903 270.743 67.0903ZM269.143 43.7303H260.439V59.7943H269.015C274.647 59.7943 277.655 56.7863 277.655 51.6663C277.655 46.5463 274.583 43.7303 269.143 43.7303Z" fill="#0D0D0D"/>
</svg>
