<svg width="621" height="168" viewBox="0 0 621 168" fill="none" xmlns="http://www.w3.org/2000/svg">
<path d="M40 167.999L621 167.999L601 142.994H20L40 167.999Z" fill="#1B8D29"/>
<path d="M601 143L601 42L621 67L621 168L601 143Z" fill="#29CD3C"/>
<path d="M22.5722 44.5722H598.428V140.428H22.5722V44.5722Z" fill="#08F31A" stroke="#08F31B" stroke-width="5.14439"/>
<path d="M168.117 99.6328L178.219 99C178.438 100.641 178.883 101.891 179.555 102.75C180.648 104.141 182.211 104.836 184.242 104.836C185.758 104.836 186.922 104.484 187.734 103.781C188.562 103.062 188.977 102.234 188.977 101.297C188.977 100.406 188.586 99.6094 187.805 98.9062C187.023 98.2031 185.211 97.5391 182.367 96.9141C177.711 95.8672 174.391 94.4766 172.406 92.7422C170.406 91.0078 169.406 88.7969 169.406 86.1094C169.406 84.3438 169.914 82.6797 170.93 81.1172C171.961 79.5391 173.5 78.3047 175.547 77.4141C177.609 76.5078 180.43 76.0547 184.008 76.0547C188.398 76.0547 191.742 76.875 194.039 78.5156C196.352 80.1406 197.727 82.7344 198.164 86.2969L188.156 86.8828C187.891 85.3359 187.328 84.2109 186.469 83.5078C185.625 82.8047 184.453 82.4531 182.953 82.4531C181.719 82.4531 180.789 82.7188 180.164 83.25C179.539 83.7656 179.227 84.3984 179.227 85.1484C179.227 85.6953 179.484 86.1875 180 86.625C180.5 87.0781 181.688 87.5 183.562 87.8906C188.203 88.8906 191.523 89.9062 193.523 90.9375C195.539 91.9531 197 93.2188 197.906 94.7344C198.828 96.25 199.289 97.9453 199.289 99.8203C199.289 102.023 198.68 104.055 197.461 105.914C196.242 107.773 194.539 109.188 192.352 110.156C190.164 111.109 187.406 111.586 184.078 111.586C178.234 111.586 174.188 110.461 171.938 108.211C169.688 105.961 168.414 103.102 168.117 99.6328ZM201.117 76.6406H211.195L214.828 95.8359L220.125 76.6406H230.18L235.5 95.8359L239.133 76.6406H249.164L241.594 111H231.188L225.164 89.3672L219.164 111H208.758L201.117 76.6406ZM273.797 105.328H261.703L260.039 111H249.188L262.102 76.6406H273.68L286.594 111H275.484L273.797 105.328ZM271.57 97.8984L267.773 85.5469L264 97.8984H271.57ZM289.969 76.6406H307.617C311.461 76.6406 314.336 77.5547 316.242 79.3828C318.164 81.2109 319.125 83.8125 319.125 87.1875C319.125 90.6562 318.078 93.3672 315.984 95.3203C313.906 97.2734 310.727 98.25 306.445 98.25H300.633V111H289.969V76.6406ZM300.633 91.2891H303.234C305.281 91.2891 306.719 90.9375 307.547 90.2344C308.375 89.5156 308.789 88.6016 308.789 87.4922C308.789 86.4141 308.43 85.5 307.711 84.75C306.992 84 305.641 83.625 303.656 83.625H300.633V91.2891ZM324.656 76.6406H342.305C346.148 76.6406 349.023 77.5547 350.93 79.3828C352.852 81.2109 353.812 83.8125 353.812 87.1875C353.812 90.6562 352.766 93.3672 350.672 95.3203C348.594 97.2734 345.414 98.25 341.133 98.25H335.32V111H324.656V76.6406ZM335.32 91.2891H337.922C339.969 91.2891 341.406 90.9375 342.234 90.2344C343.062 89.5156 343.477 88.6016 343.477 87.4922C343.477 86.4141 343.117 85.5 342.398 84.75C341.68 84 340.328 83.625 338.344 83.625H335.32V91.2891ZM359.812 76.6406H370.453V111H359.812V76.6406ZM378.164 76.6406H388.078L401.016 95.6484V76.6406H411.023V111H401.016L388.148 92.1328V111H378.164V76.6406ZM435.352 98.5547V91.4062H451.758V106.055C448.617 108.195 445.836 109.656 443.414 110.438C441.008 111.203 438.148 111.586 434.836 111.586C430.758 111.586 427.43 110.891 424.852 109.5C422.289 108.109 420.297 106.039 418.875 103.289C417.469 100.539 416.766 97.3828 416.766 93.8203C416.766 90.0703 417.539 86.8125 419.086 84.0469C420.633 81.2656 422.898 79.1562 425.883 77.7188C428.211 76.6094 431.344 76.0547 435.281 76.0547C439.078 76.0547 441.914 76.3984 443.789 77.0859C445.68 77.7734 447.242 78.8438 448.477 80.2969C449.727 81.7344 450.664 83.5625 451.289 85.7812L441.047 87.6094C440.625 86.3125 439.906 85.3203 438.891 84.6328C437.891 83.9453 436.609 83.6016 435.047 83.6016C432.719 83.6016 430.859 84.4141 429.469 86.0391C428.094 87.6484 427.406 90.2031 427.406 93.7031C427.406 97.4219 428.102 100.078 429.492 101.672C430.898 103.266 432.852 104.062 435.352 104.062C436.539 104.062 437.672 103.891 438.75 103.547C439.828 103.203 441.062 102.617 442.453 101.789V98.5547H435.352Z" fill="#0D0D0D"/>
</svg>
