<svg width="433" height="168" viewBox="0 0 433 168" fill="none" xmlns="http://www.w3.org/2000/svg">
<path d="M40.981 167.998H432.981L426.981 160H33.981L40.981 167.998Z" fill="#1B8D29"/>
<path d="M426.981 160.047L426.981 74L432.981 82L432.981 168L426.981 160.047Z" fill="#29CD3C"/>
<path d="M33.9905 74.0001H426.99V160H33.9905V74.0001Z" fill="#03FF24"/>
<path d="M107.044 110.704C107.044 104.56 112.132 100.288 119.524 100.288C126.628 100.288 131.14 104.224 131.332 110.56H125.188C125.044 107.536 122.884 105.76 119.428 105.76C115.636 105.76 113.188 107.584 113.188 110.512C113.188 113.008 114.532 114.4 117.46 115.072L122.98 116.272C128.98 117.568 131.908 120.64 131.908 125.872C131.908 132.4 126.82 136.624 119.092 136.624C111.604 136.624 106.708 132.64 106.564 126.352H112.708C112.756 129.328 115.156 131.104 119.092 131.104C123.172 131.104 125.764 129.328 125.764 126.4C125.764 124.048 124.564 122.656 121.684 122.032L116.116 120.784C110.164 119.488 107.044 116.08 107.044 110.704ZM144.293 136L133.829 100.912H140.213L145.781 119.44C146.309 121.36 146.837 123.328 147.365 126.4C147.941 123.28 148.469 121.456 149.093 119.44L154.613 100.912H161.381L166.805 119.44C167.381 121.408 167.909 123.424 168.485 126.4C169.157 123.136 169.637 121.264 170.165 119.488L175.829 100.912H182.069L171.413 136H165.461L157.973 110.464L150.341 136H144.293ZM185.912 136H179.528L192.2 100.912H198.488L211.16 136H204.68L201.848 127.888H188.744L185.912 136ZM194.552 111.376L190.568 122.704H200.072L196.04 111.376C195.752 110.464 195.416 109.408 195.32 108.688C195.176 109.36 194.888 110.416 194.552 111.376ZM229.432 123.904H221.704V136H215.56V100.912H229.432C236.488 100.912 241.048 105.52 241.048 112.384C241.048 119.152 236.44 123.904 229.432 123.904ZM228.232 106.384H221.704V118.432H228.136C232.36 118.432 234.616 116.176 234.616 112.336C234.616 108.496 232.312 106.384 228.232 106.384ZM260.088 123.904H252.36V136H246.216V100.912H260.088C267.144 100.912 271.704 105.52 271.704 112.384C271.704 119.152 267.096 123.904 260.088 123.904ZM258.888 106.384H252.36V118.432H258.792C263.016 118.432 265.272 116.176 265.272 112.336C265.272 108.496 262.968 106.384 258.888 106.384ZM283.016 100.912V136H276.872V100.912H283.016ZM296.842 136H290.794V100.912H296.89L313.354 125.776V100.912H319.402V136H313.354L296.842 111.136V136ZM342.529 106.096C335.569 106.096 331.585 111.136 331.585 118.72C331.585 126.544 336.097 130.816 342.577 130.816C348.673 130.816 352.369 127.456 352.369 121.84V121.696H341.761V116.272H358.081V136H352.897L352.513 131.968C350.593 134.656 346.609 136.528 341.857 136.528C332.017 136.528 325.153 129.376 325.153 118.576C325.153 107.92 332.113 100.336 342.673 100.336C350.689 100.336 356.881 104.992 357.889 112.144H351.409C350.305 108.016 346.753 106.096 342.529 106.096Z" fill="black"/>
</svg>
