<svg width="413" height="109" viewBox="0 0 413 109" fill="none" xmlns="http://www.w3.org/2000/svg">
<path d="M20.9805 108.998H412.981L406.981 101H13.9805L20.9805 108.998Z" fill="#1B8D29"/>
<path d="M406.981 101.047L406.981 17L412.981 25L412.981 109L406.981 101.047Z" fill="#29CD3C"/>
<path d="M16.5722 19.5722H404.428V98.4278H16.5722V19.5722Z" fill="#08F31A" stroke="#08F31B" stroke-width="5.14439"/>
<path d="M122.539 49.272C122.539 41.08 129.323 35.384 139.179 35.384C148.651 35.384 154.667 40.632 154.923 49.08H146.731C146.539 45.048 143.659 42.68 139.051 42.68C133.995 42.68 130.731 45.112 130.731 49.016C130.731 52.344 132.523 54.2 136.427 55.096L143.787 56.696C151.787 58.424 155.691 62.52 155.691 69.496C155.691 78.2 148.907 83.832 138.603 83.832C128.619 83.832 122.091 78.52 121.899 70.136H130.091C130.155 74.104 133.355 76.472 138.603 76.472C144.043 76.472 147.499 74.104 147.499 70.2C147.499 67.064 145.899 65.208 142.059 64.376L134.635 62.712C126.699 60.984 122.539 56.44 122.539 49.272ZM172.205 83L158.253 36.216H166.765L174.189 60.92C174.893 63.48 175.597 66.104 176.301 70.2C177.069 66.04 177.773 63.608 178.605 60.92L185.965 36.216H194.989L202.221 60.92C202.989 63.544 203.693 66.232 204.461 70.2C205.357 65.848 205.997 63.352 206.701 60.984L214.253 36.216H222.573L208.365 83H200.429L190.445 48.952L180.269 83H172.205ZM227.696 83H219.184L236.08 36.216H244.464L261.36 83H252.72L248.944 72.184H231.472L227.696 83ZM239.216 50.168L233.904 65.272H246.576L241.2 50.168C240.816 48.952 240.368 47.544 240.24 46.584C240.048 47.48 239.664 48.888 239.216 50.168ZM285.723 66.872H275.419V83H267.227V36.216H285.723C295.131 36.216 301.211 42.36 301.211 51.512C301.211 60.536 295.067 66.872 285.723 66.872ZM284.123 43.512H275.419V59.576H283.995C289.627 59.576 292.635 56.568 292.635 51.448C292.635 46.328 289.563 43.512 284.123 43.512Z" fill="#0D0D0D"/>
</svg>
