<svg width="399" height="111" viewBox="0 0 399 111" fill="none" xmlns="http://www.w3.org/2000/svg">
<path d="M7.00004 110.998H399L393 103H0L7.00004 110.998Z" fill="#1B8D29"/>
<path d="M393 103.047L393 17L399 25L399 111L393 103.047Z" fill="#29CD3C"/>
<path d="M0.00952148 17.0001H393.01V103H0.00952148V17.0001Z" fill="#03FF24"/>
<path d="M73.0629 53.704C73.0629 47.56 78.1509 43.288 85.5429 43.288C92.6469 43.288 97.1589 47.224 97.3509 53.56H91.2069C91.0629 50.536 88.9029 48.76 85.4469 48.76C81.6549 48.76 79.2069 50.584 79.2069 53.512C79.2069 56.008 80.5509 57.4 83.4789 58.072L88.9989 59.272C94.9989 60.568 97.9269 63.64 97.9269 68.872C97.9269 75.4 92.8389 79.624 85.1109 79.624C77.6229 79.624 72.7269 75.64 72.5829 69.352H78.7269C78.7749 72.328 81.1749 74.104 85.1109 74.104C89.1909 74.104 91.7829 72.328 91.7829 69.4C91.7829 67.048 90.5829 65.656 87.7029 65.032L82.1349 63.784C76.1829 62.488 73.0629 59.08 73.0629 53.704ZM110.312 79L99.8484 43.912H106.232L111.8 62.44C112.328 64.36 112.856 66.328 113.384 69.4C113.96 66.28 114.488 64.456 115.112 62.44L120.632 43.912H127.4L132.824 62.44C133.4 64.408 133.928 66.424 134.504 69.4C135.176 66.136 135.656 64.264 136.184 62.488L141.848 43.912H148.088L137.432 79H131.48L123.992 53.464L116.36 79H110.312ZM151.931 79H145.547L158.219 43.912H164.507L177.179 79H170.699L167.867 70.888H154.763L151.931 79ZM160.571 54.376L156.587 65.704H166.091L162.059 54.376C161.771 53.464 161.435 52.408 161.339 51.688C161.195 52.36 160.907 53.416 160.571 54.376ZM195.451 66.904H187.723V79H181.579V43.912H195.451C202.507 43.912 207.067 48.52 207.067 55.384C207.067 62.152 202.459 66.904 195.451 66.904ZM194.251 49.384H187.723V61.432H194.155C198.379 61.432 200.635 59.176 200.635 55.336C200.635 51.496 198.331 49.384 194.251 49.384ZM226.107 66.904H218.379V79H212.235V43.912H226.107C233.163 43.912 237.723 48.52 237.723 55.384C237.723 62.152 233.115 66.904 226.107 66.904ZM224.907 49.384H218.379V61.432H224.811C229.035 61.432 231.291 59.176 231.291 55.336C231.291 51.496 228.987 49.384 224.907 49.384ZM249.035 43.912V79H242.891V43.912H249.035ZM262.861 79H256.813V43.912H262.909L279.373 68.776V43.912H285.421V79H279.373L262.861 54.136V79ZM308.548 49.096C301.588 49.096 297.604 54.136 297.604 61.72C297.604 69.544 302.116 73.816 308.596 73.816C314.692 73.816 318.388 70.456 318.388 64.84V64.696H307.78V59.272H324.1V79H318.916L318.532 74.968C316.612 77.656 312.628 79.528 307.876 79.528C298.036 79.528 291.172 72.376 291.172 61.576C291.172 50.92 298.132 43.336 308.692 43.336C316.708 43.336 322.9 47.992 323.908 55.144H317.428C316.324 51.016 312.772 49.096 308.548 49.096Z" fill="black"/>
</svg>
