<svg width="413" height="107" viewBox="0 0 413 107" fill="none" xmlns="http://www.w3.org/2000/svg">
<path d="M20 106.999L413 106.999L393 81.9944H0L20 106.999Z" fill="#1B8D29"/>
<path d="M393 82.0001L393 8.74228e-07L413 25L413 107L393 82.0001Z" fill="#29CD3C"/>
<path d="M-0.00939941 0.00012207H392.99V86.0001H-0.00952148L-0.00939941 0.00012207Z" fill="#03FF24"/>
<path d="M129.294 36.704C129.294 30.56 134.382 26.288 141.774 26.288C148.878 26.288 153.39 30.224 153.582 36.56H147.438C147.294 33.536 145.134 31.76 141.678 31.76C137.886 31.76 135.438 33.584 135.438 36.512C135.438 39.008 136.782 40.4 139.71 41.072L145.23 42.272C151.23 43.568 154.158 46.64 154.158 51.872C154.158 58.4 149.07 62.624 141.342 62.624C133.854 62.624 128.958 58.64 128.814 52.352H134.958C135.006 55.328 137.406 57.104 141.342 57.104C145.422 57.104 148.014 55.328 148.014 52.4C148.014 50.048 146.814 48.656 143.934 48.032L138.366 46.784C132.414 45.488 129.294 42.08 129.294 36.704ZM166.543 62L156.079 26.912H162.463L168.031 45.44C168.559 47.36 169.087 49.328 169.615 52.4C170.191 49.28 170.719 47.456 171.343 45.44L176.863 26.912H183.631L189.055 45.44C189.631 47.408 190.159 49.424 190.735 52.4C191.407 49.136 191.887 47.264 192.415 45.488L198.079 26.912H204.319L193.663 62H187.711L180.223 36.464L172.591 62H166.543ZM208.162 62H201.778L214.45 26.912H220.738L233.41 62H226.93L224.098 53.888H210.994L208.162 62ZM216.802 37.376L212.818 48.704H222.322L218.29 37.376C218.002 36.464 217.666 35.408 217.57 34.688C217.426 35.36 217.138 36.416 216.802 37.376ZM251.682 49.904H243.954V62H237.81V26.912H251.682C258.738 26.912 263.298 31.52 263.298 38.384C263.298 45.152 258.69 49.904 251.682 49.904ZM250.482 32.384H243.954V44.432H250.386C254.61 44.432 256.866 42.176 256.866 38.336C256.866 34.496 254.562 32.384 250.482 32.384Z" fill="black"/>
</svg>
