<svg width="414" height="111" viewBox="0 0 414 111" fill="none" xmlns="http://www.w3.org/2000/svg">
<path d="M21.01 110.998H413.01L407.01 103H14.01L21.01 110.998Z" fill="#1B8D29"/>
<path d="M407.01 103.047L407.01 17L413.01 25L413.01 111L407.01 103.047Z" fill="#29CD3C"/>
<path d="M14 17.0001H407V103H14V17.0001Z" fill="#03FF24"/>
<path d="M147.303 53.704C147.303 47.56 152.391 43.288 159.783 43.288C166.887 43.288 171.399 47.224 171.591 53.56H165.447C165.303 50.536 163.143 48.76 159.687 48.76C155.895 48.76 153.447 50.584 153.447 53.512C153.447 56.008 154.791 57.4 157.719 58.072L163.239 59.272C169.239 60.568 172.167 63.64 172.167 68.872C172.167 75.4 167.079 79.624 159.351 79.624C151.863 79.624 146.967 75.64 146.823 69.352H152.967C153.015 72.328 155.415 74.104 159.351 74.104C163.431 74.104 166.023 72.328 166.023 69.4C166.023 67.048 164.823 65.656 161.943 65.032L156.375 63.784C150.423 62.488 147.303 59.08 147.303 53.704ZM184.553 79L174.089 43.912H180.473L186.041 62.44C186.569 64.36 187.097 66.328 187.625 69.4C188.201 66.28 188.729 64.456 189.353 62.44L194.873 43.912H201.641L207.065 62.44C207.641 64.408 208.169 66.424 208.745 69.4C209.417 66.136 209.897 64.264 210.425 62.488L216.089 43.912H222.329L211.673 79H205.721L198.233 53.464L190.601 79H184.553ZM226.172 79H219.788L232.46 43.912H238.748L251.42 79H244.94L242.108 70.888H229.004L226.172 79ZM234.812 54.376L230.828 65.704H240.332L236.3 54.376C236.012 53.464 235.676 52.408 235.58 51.688C235.436 52.36 235.148 53.416 234.812 54.376ZM269.691 66.904H261.963V79H255.819V43.912H269.691C276.747 43.912 281.307 48.52 281.307 55.384C281.307 62.152 276.699 66.904 269.691 66.904ZM268.491 49.384H261.963V61.432H268.395C272.619 61.432 274.875 59.176 274.875 55.336C274.875 51.496 272.571 49.384 268.491 49.384Z" fill="black"/>
</svg>
