<svg width="433" height="168" viewBox="0 0 433 168" fill="none" xmlns="http://www.w3.org/2000/svg">
<path d="M41.0005 167.998H433.001L427.001 160H34.0005L41.0005 167.998Z" fill="#1B8D29"/>
<path d="M427 160.047L427 74L433 82L433 168L427 160.047Z" fill="#29CD3C"/>
<path d="M33.9905 74.0001H426.99V160H33.9905V74.0001Z" fill="#03FF24"/>
<path d="M167.294 110.704C167.294 104.56 172.382 100.288 179.774 100.288C186.878 100.288 191.39 104.224 191.582 110.56H185.438C185.294 107.536 183.134 105.76 179.678 105.76C175.886 105.76 173.438 107.584 173.438 110.512C173.438 113.008 174.782 114.4 177.71 115.072L183.23 116.272C189.23 117.568 192.158 120.64 192.158 125.872C192.158 132.4 187.07 136.624 179.342 136.624C171.854 136.624 166.958 132.64 166.814 126.352H172.958C173.006 129.328 175.406 131.104 179.342 131.104C183.422 131.104 186.014 129.328 186.014 126.4C186.014 124.048 184.814 122.656 181.934 122.032L176.366 120.784C170.414 119.488 167.294 116.08 167.294 110.704ZM204.543 136L194.079 100.912H200.463L206.031 119.44C206.559 121.36 207.087 123.328 207.615 126.4C208.191 123.28 208.719 121.456 209.343 119.44L214.863 100.912H221.631L227.055 119.44C227.631 121.408 228.159 123.424 228.735 126.4C229.407 123.136 229.887 121.264 230.415 119.488L236.079 100.912H242.319L231.663 136H225.711L218.223 110.464L210.591 136H204.543ZM246.162 136H239.778L252.45 100.912H258.738L271.41 136H264.93L262.098 127.888H248.994L246.162 136ZM254.802 111.376L250.818 122.704H260.322L256.29 111.376C256.002 110.464 255.666 109.408 255.57 108.688C255.426 109.36 255.138 110.416 254.802 111.376ZM289.682 123.904H281.954V136H275.81V100.912H289.682C296.738 100.912 301.298 105.52 301.298 112.384C301.298 119.152 296.69 123.904 289.682 123.904ZM288.482 106.384H281.954V118.432H288.386C292.61 118.432 294.866 116.176 294.866 112.336C294.866 108.496 292.562 106.384 288.482 106.384Z" fill="black"/>
</svg>
