<svg width="413" height="142" viewBox="0 0 413 142" fill="none" xmlns="http://www.w3.org/2000/svg">
<path d="M21 141.998H413L407 134H14L21 141.998Z" fill="#1B8D29"/>
<path d="M407.001 134.047L407.001 17L413.001 25V142L407.001 134.047Z" fill="#29CD3C"/>
<path d="M16.5722 19.5488H404.428V131.428H16.5722V19.5488Z" fill="#08F31A" stroke="#08F31B" stroke-width="5.14439"/>
<path d="M55.5744 68.38C55.5744 60.7 61.9344 55.36 71.1744 55.36C80.0544 55.36 85.6944 60.28 85.9344 68.2H78.2544C78.0744 64.42 75.3744 62.2 71.0544 62.2C66.3144 62.2 63.2544 64.48 63.2544 68.14C63.2544 71.26 64.9344 73 68.5944 73.84L75.4944 75.34C82.9944 76.96 86.6544 80.8 86.6544 87.34C86.6544 95.5 80.2944 100.78 70.6344 100.78C61.2744 100.78 55.1544 95.8 54.9744 87.94H62.6544C62.7144 91.66 65.7144 93.88 70.6344 93.88C75.7344 93.88 78.9744 91.66 78.9744 88C78.9744 85.06 77.4744 83.32 73.8744 82.54L66.9144 80.98C59.4744 79.36 55.5744 75.1 55.5744 68.38ZM102.136 100L89.0563 56.14H97.0363L103.996 79.3C104.656 81.7 105.316 84.16 105.976 88C106.696 84.1 107.356 81.82 108.136 79.3L115.036 56.14H123.496L130.276 79.3C130.996 81.76 131.656 84.28 132.376 88C133.216 83.92 133.816 81.58 134.476 79.36L141.556 56.14H149.356L136.036 100H128.596L119.236 68.08L109.696 100H102.136ZM154.16 100H146.18L162.02 56.14H169.88L185.72 100H177.62L174.08 89.86H157.7L154.16 100ZM164.96 69.22L159.98 83.38H171.86L166.82 69.22C166.46 68.08 166.04 66.76 165.92 65.86C165.74 66.7 165.38 68.02 164.96 69.22ZM208.559 84.88H198.899V100H191.219V56.14H208.559C217.379 56.14 223.079 61.9 223.079 70.48C223.079 78.94 217.319 84.88 208.559 84.88ZM207.059 62.98H198.899V78.04H206.939C212.219 78.04 215.039 75.22 215.039 70.42C215.039 65.62 212.159 62.98 207.059 62.98ZM246.88 84.88H237.22V100H229.54V56.14H246.88C255.7 56.14 261.4 61.9 261.4 70.48C261.4 78.94 255.64 84.88 246.88 84.88ZM245.38 62.98H237.22V78.04H245.26C250.54 78.04 253.36 75.22 253.36 70.42C253.36 65.62 250.48 62.98 245.38 62.98ZM275.54 56.14V100H267.86V56.14H275.54ZM292.822 100H285.262V56.14H292.882L313.462 87.22V56.14H321.022V100H313.462L292.822 68.92V100ZM349.931 62.62C341.231 62.62 336.251 68.92 336.251 78.4C336.251 88.18 341.891 93.52 349.991 93.52C357.611 93.52 362.231 89.32 362.231 82.3V82.12H348.971V75.34H369.371V100H362.891L362.411 94.96C360.011 98.32 355.031 100.66 349.091 100.66C336.791 100.66 328.211 91.72 328.211 78.22C328.211 64.9 336.911 55.42 350.111 55.42C360.131 55.42 367.871 61.24 369.131 70.18H361.031C359.651 65.02 355.211 62.62 349.931 62.62Z" fill="#0D0D0D"/>
</svg>
