<svg width="400" height="94" viewBox="0 0 400 94" fill="none" xmlns="http://www.w3.org/2000/svg">
<path d="M7.981 93.9984H399.981L393.981 86.0001H0.980957L7.981 93.9984Z" fill="#1B8D29"/>
<path d="M393.981 86.0467L393.981 2.62268e-07L399.981 8L399.981 94.0001L393.981 86.0467Z" fill="#29CD3C"/>
<path d="M0.990479 0.00012207H393.99V86.0001H0.990479V0.00012207Z" fill="#03FF24"/>
<path d="M74.0439 36.704C74.0439 30.56 79.1319 26.288 86.5239 26.288C93.6279 26.288 98.1399 30.224 98.3319 36.56H92.1879C92.0439 33.536 89.8839 31.76 86.4279 31.76C82.6359 31.76 80.1879 33.584 80.1879 36.512C80.1879 39.008 81.5319 40.4 84.4599 41.072L89.9799 42.272C95.9799 43.568 98.9079 46.64 98.9079 51.872C98.9079 58.4 93.8199 62.624 86.0919 62.624C78.6039 62.624 73.7079 58.64 73.5639 52.352H79.7079C79.7559 55.328 82.1559 57.104 86.0919 57.104C90.1719 57.104 92.7639 55.328 92.7639 52.4C92.7639 50.048 91.5639 48.656 88.6839 48.032L83.1159 46.784C77.1639 45.488 74.0439 42.08 74.0439 36.704ZM111.293 62L100.829 26.912H107.213L112.781 45.44C113.309 47.36 113.837 49.328 114.365 52.4C114.941 49.28 115.469 47.456 116.093 45.44L121.613 26.912H128.381L133.805 45.44C134.381 47.408 134.909 49.424 135.485 52.4C136.157 49.136 136.637 47.264 137.165 45.488L142.829 26.912H149.069L138.413 62H132.461L124.973 36.464L117.341 62H111.293ZM152.912 62H146.528L159.2 26.912H165.488L178.16 62H171.68L168.848 53.888H155.744L152.912 62ZM161.552 37.376L157.568 48.704H167.072L163.04 37.376C162.752 36.464 162.416 35.408 162.32 34.688C162.176 35.36 161.888 36.416 161.552 37.376ZM196.432 49.904H188.704V62H182.56V26.912H196.432C203.488 26.912 208.048 31.52 208.048 38.384C208.048 45.152 203.44 49.904 196.432 49.904ZM195.232 32.384H188.704V44.432H195.136C199.36 44.432 201.616 42.176 201.616 38.336C201.616 34.496 199.312 32.384 195.232 32.384ZM227.088 49.904H219.36V62H213.216V26.912H227.088C234.144 26.912 238.704 31.52 238.704 38.384C238.704 45.152 234.096 49.904 227.088 49.904ZM225.888 32.384H219.36V44.432H225.792C230.016 44.432 232.272 42.176 232.272 38.336C232.272 34.496 229.968 32.384 225.888 32.384ZM250.016 26.912V62H243.872V26.912H250.016ZM263.842 62H257.794V26.912H263.89L280.354 51.776V26.912H286.402V62H280.354L263.842 37.136V62ZM309.529 32.096C302.569 32.096 298.585 37.136 298.585 44.72C298.585 52.544 303.097 56.816 309.577 56.816C315.673 56.816 319.369 53.456 319.369 47.84V47.696H308.761V42.272H325.081V62H319.897L319.513 57.968C317.593 60.656 313.609 62.528 308.857 62.528C299.017 62.528 292.153 55.376 292.153 44.576C292.153 33.92 299.113 26.336 309.673 26.336C317.689 26.336 323.881 30.992 324.889 38.144H318.409C317.305 34.016 313.753 32.096 309.529 32.096Z" fill="black"/>
</svg>
