<svg width="607" height="168" viewBox="0 0 607 168" fill="none" xmlns="http://www.w3.org/2000/svg">
<path d="M39.9811 167.998H607L601 160H33.9811L39.9811 167.998Z" fill="#1B8D29"/>
<path d="M601 160L601 57L607 65V168L601 160Z" fill="#29CD3C"/>
<rect x="36.5722" y="59.5722" width="561.856" height="97.8556" fill="#08F31A" stroke="#08F31B" stroke-width="5.14439"/>
<path d="M215.476 118.681L229.09 117.828C229.384 120.039 229.985 121.723 230.89 122.882C232.364 124.756 234.47 125.693 237.207 125.693C239.25 125.693 240.819 125.219 241.914 124.271C243.03 123.303 243.588 122.187 243.588 120.923C243.588 119.723 243.061 118.649 242.008 117.701C240.956 116.754 238.513 115.859 234.68 115.017C228.405 113.606 223.93 111.732 221.256 109.394C218.561 107.057 217.213 104.077 217.213 100.455C217.213 98.0757 217.897 95.8331 219.266 93.7273C220.656 91.6005 222.73 89.9369 225.489 88.7367C228.268 87.5153 232.069 86.9046 236.891 86.9046C242.809 86.9046 247.315 88.0102 250.41 90.2212C253.527 92.4112 255.38 95.9068 255.97 100.708L242.482 101.498C242.124 99.4129 241.366 97.8967 240.208 96.9491C239.071 96.0015 237.492 95.5277 235.47 95.5277C233.807 95.5277 232.554 95.8857 231.711 96.6017C230.869 97.2966 230.448 98.1494 230.448 99.1602C230.448 99.8972 230.795 100.561 231.49 101.15C232.164 101.761 233.764 102.329 236.291 102.856C242.545 104.203 247.02 105.572 249.716 106.962C252.432 108.331 254.401 110.036 255.622 112.079C256.865 114.122 257.486 116.406 257.486 118.933C257.486 121.902 256.665 124.64 255.022 127.146C253.38 129.652 251.084 131.557 248.136 132.863C245.188 134.147 241.471 134.79 236.986 134.79C229.111 134.79 223.657 133.274 220.624 130.241C217.592 127.209 215.876 123.355 215.476 118.681ZM259.95 87.6943H273.532L278.428 113.564L285.566 87.6943H299.117L306.287 113.564L311.183 87.6943H324.702L314.499 134H300.475L292.357 104.846L284.271 134H270.247L259.95 87.6943ZM357.899 126.356H341.6L339.358 134H324.733L342.137 87.6943H357.741L375.145 134H360.173L357.899 126.356ZM354.898 116.343L349.781 99.6971L344.696 116.343H354.898ZM379.694 87.6943H403.478C408.658 87.6943 412.533 88.9262 415.102 91.3899C417.692 93.8537 418.987 97.3597 418.987 101.908C418.987 106.583 417.576 110.236 414.755 112.869C411.954 115.501 407.669 116.817 401.899 116.817H394.065V134H379.694V87.6943ZM394.065 107.436H397.572C400.33 107.436 402.267 106.962 403.383 106.014C404.5 105.046 405.058 103.814 405.058 102.319C405.058 100.866 404.573 99.634 403.605 98.6232C402.636 97.6124 400.814 97.1071 398.14 97.1071H394.065V107.436Z" fill="#0D0D0D"/>
</svg>
