<svg width="399" height="94" viewBox="0 0 399 94" fill="none" xmlns="http://www.w3.org/2000/svg">
<path d="M7.00053 93.9984H399.001L393.001 86.0001H0.000488281L7.00053 93.9984Z" fill="#1B8D29"/>
<path d="M393 86.0467L393 2.62268e-07L399 8L399 94.0001L393 86.0467Z" fill="#29CD3C"/>
<path d="M-0.00952148 0.00012207H392.99V86.0001H-0.00952148V0.00012207Z" fill="#03FF24"/>
<path d="M133.294 36.704C133.294 30.56 138.382 26.288 145.774 26.288C152.878 26.288 157.39 30.224 157.582 36.56H151.438C151.294 33.536 149.134 31.76 145.678 31.76C141.886 31.76 139.438 33.584 139.438 36.512C139.438 39.008 140.782 40.4 143.71 41.072L149.23 42.272C155.23 43.568 158.158 46.64 158.158 51.872C158.158 58.4 153.07 62.624 145.342 62.624C137.854 62.624 132.958 58.64 132.814 52.352H138.958C139.006 55.328 141.406 57.104 145.342 57.104C149.422 57.104 152.014 55.328 152.014 52.4C152.014 50.048 150.814 48.656 147.934 48.032L142.366 46.784C136.414 45.488 133.294 42.08 133.294 36.704ZM170.543 62L160.079 26.912H166.463L172.031 45.44C172.559 47.36 173.087 49.328 173.615 52.4C174.191 49.28 174.719 47.456 175.343 45.44L180.863 26.912H187.631L193.055 45.44C193.631 47.408 194.159 49.424 194.735 52.4C195.407 49.136 195.887 47.264 196.415 45.488L202.079 26.912H208.319L197.663 62H191.711L184.223 36.464L176.591 62H170.543ZM212.162 62H205.778L218.45 26.912H224.738L237.41 62H230.93L228.098 53.888H214.994L212.162 62ZM220.802 37.376L216.818 48.704H226.322L222.29 37.376C222.002 36.464 221.666 35.408 221.57 34.688C221.426 35.36 221.138 36.416 220.802 37.376ZM255.682 49.904H247.954V62H241.81V26.912H255.682C262.738 26.912 267.298 31.52 267.298 38.384C267.298 45.152 262.69 49.904 255.682 49.904ZM254.482 32.384H247.954V44.432H254.386C258.61 44.432 260.866 42.176 260.866 38.336C260.866 34.496 258.562 32.384 254.482 32.384Z" fill="black"/>
</svg>
