<svg width="433" height="168" viewBox="0 0 433 168" fill="none" xmlns="http://www.w3.org/2000/svg">
<path d="M40 167.999L433 167.999L413 142.994H20L40 167.999Z" fill="#1B8D29"/>
<path d="M413 143L413 61L433 86L433 168L413 143Z" fill="#29CD3C"/>
<path d="M19.9906 61.0001H412.99V147H19.9905L19.9906 61.0001Z" fill="#03FF24"/>
<path d="M149.294 97.704C149.294 91.56 154.382 87.288 161.774 87.288C168.878 87.288 173.39 91.224 173.582 97.56H167.438C167.294 94.536 165.134 92.76 161.678 92.76C157.886 92.76 155.438 94.584 155.438 97.512C155.438 100.008 156.782 101.4 159.71 102.072L165.23 103.272C171.23 104.568 174.158 107.64 174.158 112.872C174.158 119.4 169.07 123.624 161.342 123.624C153.854 123.624 148.958 119.64 148.814 113.352H154.958C155.006 116.328 157.406 118.104 161.342 118.104C165.422 118.104 168.014 116.328 168.014 113.4C168.014 111.048 166.814 109.656 163.934 109.032L158.366 107.784C152.414 106.488 149.294 103.08 149.294 97.704ZM186.543 123L176.079 87.912H182.463L188.031 106.44C188.559 108.36 189.087 110.328 189.615 113.4C190.191 110.28 190.719 108.456 191.343 106.44L196.863 87.912H203.631L209.055 106.44C209.631 108.408 210.159 110.424 210.735 113.4C211.407 110.136 211.887 108.264 212.415 106.488L218.079 87.912H224.319L213.663 123H207.711L200.223 97.464L192.591 123H186.543ZM228.162 123H221.778L234.45 87.912H240.738L253.41 123H246.93L244.098 114.888H230.994L228.162 123ZM236.802 98.376L232.818 109.704H242.322L238.29 98.376C238.002 97.464 237.666 96.408 237.57 95.688C237.426 96.36 237.138 97.416 236.802 98.376ZM271.682 110.904H263.954V123H257.81V87.912H271.682C278.738 87.912 283.298 92.52 283.298 99.384C283.298 106.152 278.69 110.904 271.682 110.904ZM270.482 93.384H263.954V105.432H270.386C274.61 105.432 276.866 103.176 276.866 99.336C276.866 95.496 274.562 93.384 270.482 93.384Z" fill="black"/>
</svg>
