<svg width="413" height="111" viewBox="0 0 413 111" fill="none" xmlns="http://www.w3.org/2000/svg">
<path d="M20 110.999L413 110.999L393 85.9944H0L20 110.999Z" fill="#1B8D29"/>
<path d="M393 86.0001L393 8.74228e-07L413 25L413 111L393 86.0001Z" fill="#29CD3C"/>
<path d="M0.00012207 0H393V86H0L0.00012207 0Z" fill="#03FF24"/>
<path d="M129.294 40.704C129.294 34.56 134.382 30.288 141.774 30.288C148.878 30.288 153.39 34.224 153.582 40.56H147.438C147.294 37.536 145.134 35.76 141.678 35.76C137.886 35.76 135.438 37.584 135.438 40.512C135.438 43.008 136.782 44.4 139.71 45.072L145.23 46.272C151.23 47.568 154.158 50.64 154.158 55.872C154.158 62.4 149.07 66.624 141.342 66.624C133.854 66.624 128.958 62.64 128.814 56.352H134.958C135.006 59.328 137.406 61.104 141.342 61.104C145.422 61.104 148.014 59.328 148.014 56.4C148.014 54.048 146.814 52.656 143.934 52.032L138.366 50.784C132.414 49.488 129.294 46.08 129.294 40.704ZM166.543 66L156.079 30.912H162.463L168.031 49.44C168.559 51.36 169.087 53.328 169.615 56.4C170.191 53.28 170.719 51.456 171.343 49.44L176.863 30.912H183.631L189.055 49.44C189.631 51.408 190.159 53.424 190.735 56.4C191.407 53.136 191.887 51.264 192.415 49.488L198.079 30.912H204.319L193.663 66H187.711L180.223 40.464L172.591 66H166.543ZM208.162 66H201.778L214.45 30.912H220.738L233.41 66H226.93L224.098 57.888H210.994L208.162 66ZM216.802 41.376L212.818 52.704H222.322L218.29 41.376C218.002 40.464 217.666 39.408 217.57 38.688C217.426 39.36 217.138 40.416 216.802 41.376ZM251.682 53.904H243.954V66H237.81V30.912H251.682C258.738 30.912 263.298 35.52 263.298 42.384C263.298 49.152 258.69 53.904 251.682 53.904ZM250.482 36.384H243.954V48.432H250.386C254.61 48.432 256.866 46.176 256.866 42.336C256.866 38.496 254.562 36.384 250.482 36.384Z" fill="black"/>
</svg>
