<svg width="413" height="142" viewBox="0 0 413 142" fill="none" xmlns="http://www.w3.org/2000/svg">
<path d="M20.9805 141.998H412.981L406.981 134H13.9805L20.9805 141.998Z" fill="#1B8D29"/>
<path d="M406.981 134.047L406.981 17L412.981 25V142L406.981 134.047Z" fill="#29CD3C"/>
<path d="M16.5527 19.5488H404.408V131.428H16.5527V19.5488Z" fill="#08F31A" stroke="#08F31B" stroke-width="5.14439"/>
<path d="M122.539 66.272C122.539 58.08 129.323 52.384 139.179 52.384C148.651 52.384 154.667 57.632 154.923 66.08H146.731C146.539 62.048 143.659 59.68 139.051 59.68C133.995 59.68 130.731 62.112 130.731 66.016C130.731 69.344 132.523 71.2 136.427 72.096L143.787 73.696C151.787 75.424 155.691 79.52 155.691 86.496C155.691 95.2 148.907 100.832 138.603 100.832C128.619 100.832 122.091 95.52 121.899 87.136H130.091C130.155 91.104 133.355 93.472 138.603 93.472C144.043 93.472 147.499 91.104 147.499 87.2C147.499 84.064 145.899 82.208 142.059 81.376L134.635 79.712C126.699 77.984 122.539 73.44 122.539 66.272ZM172.205 100L158.253 53.216H166.765L174.189 77.92C174.893 80.48 175.597 83.104 176.301 87.2C177.069 83.04 177.773 80.608 178.605 77.92L185.965 53.216H194.989L202.221 77.92C202.989 80.544 203.693 83.232 204.461 87.2C205.357 82.848 205.997 80.352 206.701 77.984L214.253 53.216H222.573L208.365 100H200.429L190.445 65.952L180.269 100H172.205ZM227.696 100H219.184L236.08 53.216H244.464L261.36 100H252.72L248.944 89.184H231.472L227.696 100ZM239.216 67.168L233.904 82.272H246.576L241.2 67.168C240.816 65.952 240.368 64.544 240.24 63.584C240.048 64.48 239.664 65.888 239.216 67.168ZM285.723 83.872H275.419V100H267.227V53.216H285.723C295.131 53.216 301.211 59.36 301.211 68.512C301.211 77.536 295.067 83.872 285.723 83.872ZM284.123 60.512H275.419V76.576H283.995C289.627 76.576 292.635 73.568 292.635 68.448C292.635 63.328 289.563 60.512 284.123 60.512Z" fill="#0D0D0D"/>
</svg>
