<svg width="400" height="111" viewBox="0 0 400 111" fill="none" xmlns="http://www.w3.org/2000/svg">
<path d="M7.01005 110.998H399.01L393.01 103H0.0100098L7.01005 110.998Z" fill="#1B8D29"/>
<path d="M393.01 103.047L393.01 17L399.01 25L399.01 111L393.01 103.047Z" fill="#29CD3C"/>
<path d="M0 17.0001H393V103H0V17.0001Z" fill="#03FF24"/>
<path d="M133.303 53.704C133.303 47.56 138.391 43.288 145.783 43.288C152.887 43.288 157.399 47.224 157.591 53.56H151.447C151.303 50.536 149.143 48.76 145.687 48.76C141.895 48.76 139.447 50.584 139.447 53.512C139.447 56.008 140.791 57.4 143.719 58.072L149.239 59.272C155.239 60.568 158.167 63.64 158.167 68.872C158.167 75.4 153.079 79.624 145.351 79.624C137.863 79.624 132.967 75.64 132.823 69.352H138.967C139.015 72.328 141.415 74.104 145.351 74.104C149.431 74.104 152.023 72.328 152.023 69.4C152.023 67.048 150.823 65.656 147.943 65.032L142.375 63.784C136.423 62.488 133.303 59.08 133.303 53.704ZM170.553 79L160.089 43.912H166.473L172.041 62.44C172.569 64.36 173.097 66.328 173.625 69.4C174.201 66.28 174.729 64.456 175.353 62.44L180.873 43.912H187.641L193.065 62.44C193.641 64.408 194.169 66.424 194.745 69.4C195.417 66.136 195.897 64.264 196.425 62.488L202.089 43.912H208.329L197.673 79H191.721L184.233 53.464L176.601 79H170.553ZM212.172 79H205.788L218.46 43.912H224.748L237.42 79H230.94L228.108 70.888H215.004L212.172 79ZM220.812 54.376L216.828 65.704H226.332L222.3 54.376C222.012 53.464 221.676 52.408 221.58 51.688C221.436 52.36 221.148 53.416 220.812 54.376ZM255.691 66.904H247.963V79H241.819V43.912H255.691C262.747 43.912 267.307 48.52 267.307 55.384C267.307 62.152 262.699 66.904 255.691 66.904ZM254.491 49.384H247.963V61.432H254.395C258.619 61.432 260.875 59.176 260.875 55.336C260.875 51.496 258.571 49.384 254.491 49.384Z" fill="black"/>
</svg>
