<svg width="466" height="233" viewBox="0 0 466 233" fill="none" xmlns="http://www.w3.org/2000/svg">
<rect x="0.181641" width="232.884" height="232.884" fill="black"/>
<path d="M105.419 102.24H31.6127L44.6359 52.9882V52.4199H92.2505L105.419 102.24ZM85.9875 88.5771L80.1537 66.1564H56.7356L50.9729 88.5771H85.9875Z" fill="#03FF24"/>
<path d="M126.704 79.5378V52.4199H142.361V78.4663C142.361 83.7319 144.712 88.3581 151.259 88.3581H170.338C176.959 88.3581 179.235 83.7319 179.235 78.4663V52.4199H194.892V79.5378C194.892 94.9821 185.569 103.095 170.326 103.095H151.259C136.027 103.095 126.704 94.9821 126.704 79.5378Z" fill="#03FF24"/>
<path d="M102.425 144.381H76.3044V180.464H60.644V144.381H34.5975V130.644H102.425V144.381Z" fill="#03FF24"/>
<path d="M196.987 180.464H124.605V130.644H196.987V180.464ZM181.33 166.727V144.31H140.262V166.727H181.33Z" fill="#03FF24"/>
<rect x="233.065" width="232.884" height="232.884" fill="#03FF24"/>
<path d="M276.353 165.731H292.01V180.462H276.353V165.731Z" fill="black"/>
<path d="M292.01 65.9411V72.7724H331.08V86.2958H292.01V102.237H276.353V52.4177H335.916V65.9411H292.01Z" fill="black"/>
<path d="M352.696 79.5354V52.4175H368.359V78.4639C368.359 83.7294 370.709 88.3556 377.256 88.3556H396.329C402.95 88.3556 405.226 83.7294 405.226 78.4639V52.4175H420.884V79.5354C420.884 94.9797 411.56 103.093 396.317 103.093H377.238C362.019 103.093 352.696 94.9797 352.696 79.5354Z" fill="black"/>
<path d="M421.733 130.635V180.455H406.36L368.069 150.925V180.461H352.696V130.635H368.069L406.36 159.958V130.635H421.733Z" fill="black"/>
</svg>
