<svg width="25" height="24" viewBox="0 0 25 24" fill="none" xmlns="http://www.w3.org/2000/svg">
<path fill-rule="evenodd" clip-rule="evenodd" d="M24.125 12C24.125 18.6274 18.7524 24 12.125 24C5.49758 24 0.125 18.6274 0.125 12C0.125 5.37258 5.49758 0 12.125 0C18.7524 0 24.125 5.37258 24.125 12ZM12.555 8.85893C11.3878 9.3444 9.05514 10.3492 5.55689 11.8733C4.98883 12.0992 4.69126 12.3202 4.66417 12.5363C4.61839 12.9015 5.07571 13.0453 5.69847 13.2411C5.78318 13.2678 5.87095 13.2954 5.96094 13.3246C6.57364 13.5238 7.39783 13.7568 7.82629 13.766C8.21494 13.7744 8.64873 13.6142 9.12764 13.2853C12.3962 11.079 14.0834 9.96381 14.1893 9.93977C14.264 9.92281 14.3676 9.90148 14.4378 9.96385C14.5079 10.0262 14.501 10.1443 14.4936 10.176C14.4483 10.3691 12.6531 12.0381 11.7241 12.9018C11.4345 13.171 11.2291 13.362 11.1871 13.4056C11.093 13.5033 10.9971 13.5958 10.905 13.6846C10.3358 14.2333 9.90891 14.6448 10.9286 15.3168C11.4186 15.6397 11.8108 15.9067 12.202 16.1731C12.6292 16.4641 13.0553 16.7543 13.6066 17.1157C13.7471 17.2077 13.8812 17.3034 14.0119 17.3965C14.5091 17.751 14.9557 18.0694 15.5076 18.0186C15.8282 17.9891 16.1595 17.6876 16.3277 16.7884C16.7252 14.6631 17.5066 10.0585 17.6872 8.16097C17.703 7.99473 17.6831 7.78197 17.6672 7.68857C17.6512 7.59518 17.6178 7.46211 17.4964 7.3636C17.3526 7.24694 17.1306 7.22234 17.0314 7.22408C16.58 7.23203 15.8876 7.47282 12.555 8.85893Z" fill="white"/>
</svg>
