<svg width="31" height="26" viewBox="0 0 31 26" fill="none" xmlns="http://www.w3.org/2000/svg">
<path d="M18.1964 12.2425H12.894V13.7575H18.1964V12.2425Z" fill="black"/>
<path d="M18.1964 1.89373H12.894V3.4087H18.1964V1.89373Z" fill="black"/>
<path d="M18.1964 22.5913H12.894V24.1063H18.1964V22.5913Z" fill="black"/>
<path d="M23.1068 12.2425H21.5918V13.7575H23.1068V12.2425Z" fill="black"/>
<path d="M30.1038 12.2425H28.5889V13.7575H30.1038V12.2425Z" fill="black"/>
<path d="M23.1068 0H21.5918V1.51497H23.1068V0Z" fill="black"/>
<path d="M23.1068 24.485H21.5918V26H23.1068V24.485Z" fill="black"/>
<path d="M9.472 0H7.95703V1.51497H9.472V0Z" fill="black"/>
<path d="M9.472 12.2425H7.95703V13.7575H9.472V12.2425Z" fill="black"/>
<path d="M2.41243 12.2425H0.897461V13.7575H2.41243V12.2425Z" fill="black"/>
<path d="M9.472 24.485H7.95703V26H9.472V24.485Z" fill="black"/>
<path d="M19.7113 6.94014H18.1963V8.45511H19.7113V6.94014Z" fill="black"/>
<path d="M19.7113 17.2889H18.1963V18.8039H19.7113V17.2889Z" fill="black"/>
<path d="M12.8939 6.94014H11.3789V8.45511H12.8939V6.94014Z" fill="black"/>
<path d="M12.8939 17.2889H11.3789V18.8039H12.8939V17.2889Z" fill="black"/>
<path d="M14.7876 10.3488L14.7876 15.6512L16.3026 15.6512L16.3026 10.3488L14.7876 10.3488Z" fill="black"/>
<path d="M14.7876 1.90735e-05L14.7876 5.30242L16.3026 5.30242L16.3026 1.90073e-05L14.7876 1.90735e-05Z" fill="black"/>
<path d="M7.715 6.94014H2.4126V8.45511H7.715V6.94014Z" fill="black"/>
<path d="M4.30615 5.04643L4.30615 10.3488L5.82112 10.3488L5.82112 5.04643L4.30615 5.04643Z" fill="black"/>
<path d="M28.4088 6.94014H23.1064V8.45511H28.4088V6.94014Z" fill="black"/>
<path d="M25.0005 5.04643L25.0005 10.3488L26.5155 10.3488L26.5155 5.04643L25.0005 5.04643Z" fill="black"/>
<path d="M7.715 19.1827H2.4126V20.6976H7.715V19.1827Z" fill="black"/>
<path d="M4.30615 17.2889L4.30615 22.5913L5.82112 22.5913L5.82112 17.2889L4.30615 17.2889Z" fill="black"/>
<path d="M28.4088 19.1827H23.1064V20.6976H28.4088V19.1827Z" fill="black"/>
<path d="M25.0005 17.2889L25.0005 22.5913L26.5155 22.5913L26.5155 17.2889L25.0005 17.2889Z" fill="black"/>
<path d="M14.7876 20.6976L14.7876 26L16.3026 26L16.3026 20.6976L14.7876 20.6976Z" fill="black"/>
</svg>
