<svg width="264" height="91" viewBox="0 0 264 91" fill="none" xmlns="http://www.w3.org/2000/svg">
<path d="M13 90.4999L263.999 90.5L260 85.5L9 85.4999L13 90.4999Z" fill="#1B8D29"/>
<path d="M260 85.5001L260 10.5L264 15.5001L264 90.501L260 85.5001Z" fill="#29CD3C"/>
<rect x="9" y="10.5" width="251" height="75" fill="#03FF24"/>
<path d="M35.9894 58.5H28.6254V38.032H35.7934C41.8414 38.032 46.0134 42.204 46.0134 48.308C46.0134 54.328 41.9254 58.5 35.9894 58.5ZM35.4574 41.336H32.2094V55.196H35.6534C39.7414 55.196 42.2334 52.564 42.2334 48.308C42.2334 43.968 39.6854 41.336 35.4574 41.336ZM68.028 48.252C68.028 54.468 63.94 58.836 58.06 58.836C52.208 58.836 48.176 54.496 48.176 48.252C48.176 42.036 52.236 37.668 58.088 37.668C63.94 37.668 68.028 42.008 68.028 48.252ZM64.248 48.252C64.248 43.884 61.84 41.112 58.088 41.112C54.336 41.112 51.928 43.884 51.928 48.252C51.928 52.62 54.336 55.392 58.088 55.392C61.84 55.392 64.248 52.564 64.248 48.252ZM74.8541 58.5L68.7501 38.032H72.4741L75.7221 48.84C76.0301 49.96 76.3381 51.108 76.6461 52.9C76.9821 51.08 77.2901 50.016 77.6541 48.84L80.8741 38.032H84.8221L87.9861 48.84C88.3221 49.988 88.6301 51.164 88.9661 52.9C89.3581 50.996 89.6381 49.904 89.9461 48.868L93.2501 38.032H96.8901L90.6741 58.5H87.2021L82.8341 43.604L78.3821 58.5H74.8541ZM103.11 58.5H99.5825V38.032H103.138L112.742 52.536V38.032H116.27V58.5H112.742L103.11 43.996V58.5ZM124.385 38.032V55.196H132.953V58.5H120.801V38.032H124.385ZM153.559 48.252C153.559 54.468 149.471 58.836 143.591 58.836C137.739 58.836 133.707 54.496 133.707 48.252C133.707 42.036 137.767 37.668 143.619 37.668C149.471 37.668 153.559 42.008 153.559 48.252ZM149.779 48.252C149.779 43.884 147.371 41.112 143.619 41.112C139.867 41.112 137.459 43.884 137.459 48.252C137.459 52.62 139.867 55.392 143.619 55.392C147.371 55.392 149.779 52.564 149.779 48.252ZM157.647 58.5H153.923L161.315 38.032H164.983L172.375 58.5H168.595L166.943 53.768H159.299L157.647 58.5ZM162.687 44.136L160.363 50.744H165.907L163.555 44.136C163.387 43.604 163.191 42.988 163.135 42.568C163.051 42.96 162.883 43.576 162.687 44.136ZM182.306 58.5H174.942V38.032H182.11C188.158 38.032 192.33 42.204 192.33 48.308C192.33 54.328 188.242 58.5 182.306 58.5ZM181.774 41.336H178.526V55.196H181.97C186.058 55.196 188.55 52.564 188.55 48.308C188.55 43.968 186.002 41.336 181.774 41.336ZM199.252 38.032V58.5H195.668V38.032H199.252ZM207.317 58.5H203.789V38.032H207.345L216.949 52.536V38.032H220.477V58.5H216.949L207.317 43.996V58.5ZM233.968 41.056C229.908 41.056 227.584 43.996 227.584 48.42C227.584 52.984 230.216 55.476 233.996 55.476C237.552 55.476 239.708 53.516 239.708 50.24V50.156H233.52V46.992H243.04V58.5H240.016L239.792 56.148C238.672 57.716 236.348 58.808 233.576 58.808C227.836 58.808 223.832 54.636 223.832 48.336C223.832 42.12 227.892 37.696 234.052 37.696C238.728 37.696 242.34 40.412 242.928 44.584H239.148C238.504 42.176 236.432 41.056 233.968 41.056Z" fill="black"/>
</svg>
