<svg width="413" height="109" viewBox="0 0 413 142" fill="none" xmlns="http://www.w3.org/2000/svg">
<path d="M20 141.999L413 141.999L393 116.994H0L20 141.999Z" fill="#1B8D29"/>
<path d="M393 117L393 8.74228e-07L413 25V142L393 117Z" fill="#29CD3C"/>
<path d="M0.00012207 0H393V116.994H0L0.00012207 0Z" fill="#03FF24"/>
<path d="M21.0903 39.6299H37.0962L43.2729 63.585L49.4229 39.6299H65.375V79H55.4385V48.9756L47.731 79H38.7344L31.0537 48.9756V79H21.0903V39.6299ZM73.6465 39.6299H85.8389V79H73.6465V39.6299ZM114.386 64.7397V56.5488H133.185V73.3335C129.586 75.7863 126.4 77.4603 123.625 78.3555C120.867 79.2327 117.591 79.6714 113.795 79.6714C109.123 79.6714 105.309 78.8747 102.355 77.2812C99.4188 75.6878 97.1361 73.3156 95.5068 70.1646C93.8955 67.0135 93.0898 63.397 93.0898 59.3149C93.0898 55.0181 93.9761 51.2852 95.7485 48.1162C97.521 44.9294 100.117 42.5124 103.537 40.8652C106.204 39.5941 109.794 38.9585 114.306 38.9585C118.656 38.9585 121.906 39.3524 124.054 40.1401C126.221 40.9279 128.011 42.1543 129.425 43.8193C130.858 45.4665 131.932 47.5612 132.648 50.1035L120.912 52.1982C120.429 50.7122 119.605 49.5754 118.441 48.7876C117.296 47.9998 115.827 47.606 114.037 47.606C111.369 47.606 109.239 48.5369 107.646 50.3989C106.07 52.243 105.282 55.1702 105.282 59.1807C105.282 63.4417 106.079 66.4854 107.672 68.3115C109.284 70.1377 111.522 71.0508 114.386 71.0508C115.747 71.0508 117.045 70.8538 118.28 70.46C119.516 70.0661 120.93 69.3947 122.523 68.4458V64.7397H114.386ZM140.57 79V39.6299H160.846C164.606 39.6299 167.479 39.9521 169.467 40.5967C171.454 41.2412 173.056 42.4408 174.274 44.1953C175.491 45.932 176.1 48.0535 176.1 50.5601C176.1 52.7443 175.635 54.6331 174.704 56.2266C173.773 57.8021 172.493 59.0822 170.863 60.0669C169.825 60.6935 168.402 61.2127 166.593 61.6245C168.043 62.1079 169.1 62.5913 169.762 63.0747C170.21 63.397 170.854 64.0863 171.696 65.1426C172.555 66.1989 173.128 67.0135 173.415 67.5864L179.296 79H165.546L159.047 66.9688C158.223 65.4111 157.489 64.3996 156.845 63.9341C155.967 63.3254 154.974 63.021 153.864 63.021H152.79V79H140.57ZM152.79 55.582H157.919C158.474 55.582 159.548 55.403 161.142 55.0449C161.947 54.8838 162.601 54.472 163.102 53.8096C163.621 53.1471 163.881 52.3862 163.881 51.5269C163.881 50.2557 163.478 49.2799 162.672 48.5996C161.867 47.9193 160.354 47.5791 158.134 47.5791H152.79V55.582ZM207.44 72.501H193.583L191.676 79H179.242L194.04 39.6299H207.306L222.104 79H209.374L207.44 72.501ZM204.889 63.9878L200.539 49.835L196.215 63.9878H204.889ZM223.258 39.6299H260.238V49.3516H247.831V79H235.666V49.3516H223.258V39.6299ZM266.254 39.6299H278.446V79H266.254V39.6299ZM287.282 39.6299H298.642L313.466 61.4097V39.6299H324.933V79H313.466L298.722 57.3813V79H287.282V39.6299ZM352.809 64.7397V56.5488H371.608V73.3335C368.009 75.7863 364.822 77.4603 362.047 78.3555C359.29 79.2327 356.014 79.6714 352.218 79.6714C347.545 79.6714 343.732 78.8747 340.778 77.2812C337.842 75.6878 335.559 73.3156 333.93 70.1646C332.318 67.0135 331.513 63.397 331.513 59.3149C331.513 55.0181 332.399 51.2852 334.171 48.1162C335.944 44.9294 338.54 42.5124 341.959 40.8652C344.627 39.5941 348.217 38.9585 352.729 38.9585C357.079 38.9585 360.329 39.3524 362.477 40.1401C364.643 40.9279 366.434 42.1543 367.848 43.8193C369.28 45.4665 370.355 47.5612 371.071 50.1035L359.335 52.1982C358.852 50.7122 358.028 49.5754 356.864 48.7876C355.718 47.9998 354.25 47.606 352.46 47.606C349.792 47.606 347.662 48.5369 346.068 50.3989C344.493 52.243 343.705 55.1702 343.705 59.1807C343.705 63.4417 344.502 66.4854 346.095 68.3115C347.707 70.1377 349.944 71.0508 352.809 71.0508C354.17 71.0508 355.468 70.8538 356.703 70.46C357.938 70.0661 359.353 69.3947 360.946 68.4458V64.7397H352.809Z" fill="black"/>
</svg>
