<svg width="317" height="109" viewBox="0 0 317 109" fill="none" xmlns="http://www.w3.org/2000/svg">
<g clip-path="url(#clip0_4094_7886)">
<g clip-path="url(#clip1_4094_7886)">
<path d="M15.3414 108.999H317.01L301.658 89.8052H-0.0107422L15.3414 108.999Z" fill="#1B8D29"/>
<path d="M301.658 89.8099V0L317.01 19.1901V109L301.658 89.8099Z" fill="#29CD3C"/>
<path d="M-0.0106485 0H301.658V89.8053H-0.0107422L-0.0106485 0Z" fill="#03FF24"/>
<path d="M16.1787 30.4202H28.4649L33.2062 48.8082L37.927 30.4202H50.1719V60.6409H42.5446V37.594L36.6283 60.6409H29.7224L23.8267 37.594V60.6409H16.1787V30.4202ZM56.5211 30.4202H65.8801V60.6409H56.5211V30.4202ZM87.793 49.6946V43.4072H102.223V56.2912C99.4606 58.174 97.015 59.459 94.8849 60.1461C92.7679 60.8195 90.2532 61.1562 87.3394 61.1562C83.7531 61.1562 80.8255 60.5447 78.558 59.3215C76.3041 58.0984 74.5519 56.2775 73.3012 53.8588C72.0644 51.44 71.4459 48.6639 71.4459 45.5305C71.4459 42.2322 72.1263 39.3668 73.4868 36.9343C74.8473 34.4881 76.84 32.6328 79.4653 31.3684C81.5125 30.3927 84.2682 29.9048 87.7316 29.9048C91.0707 29.9048 93.5654 30.2071 95.2142 30.8118C96.8776 31.4165 98.2516 32.3579 99.337 33.636C100.437 34.9004 101.261 36.5083 101.811 38.4598L92.8024 40.0677C92.4317 38.927 91.7991 38.0544 90.9057 37.4497C90.0267 36.8449 88.8991 36.5427 87.5251 36.5427C85.4771 36.5427 83.8421 37.2572 82.6194 38.6865C81.4096 40.102 80.8047 42.349 80.8047 45.4275C80.8047 48.6982 81.4165 51.0346 82.6393 52.4363C83.8767 53.8381 85.5946 54.539 87.793 54.539C88.8377 54.539 89.8341 54.3878 90.7821 54.0855C91.7308 53.7832 92.8162 53.2678 94.039 52.5394V49.6946H87.793ZM107.892 60.6409V30.4202H123.456C126.342 30.4202 128.547 30.6675 130.073 31.1623C131.599 31.657 132.828 32.5778 133.763 33.9246C134.698 35.2577 135.165 36.8862 135.165 38.8102C135.165 40.4868 134.808 41.9367 134.093 43.1599C133.379 44.3692 132.396 45.3519 131.145 46.1077C130.348 46.5887 129.256 46.9872 127.867 47.3033C128.98 47.6744 129.792 48.0455 130.3 48.4165C130.644 48.6639 131.138 49.193 131.784 50.0038C132.444 50.8147 132.884 51.44 133.104 51.8797L137.618 60.6409H127.064L122.075 51.4057C121.443 50.21 120.879 49.4335 120.385 49.0762C119.711 48.609 118.949 48.3753 118.097 48.3753H117.272V60.6409H107.892ZM117.272 42.6651H121.209C121.635 42.6651 122.46 42.5277 123.683 42.2528C124.301 42.1291 124.803 41.813 125.188 41.3046C125.586 40.796 125.786 40.212 125.786 39.5524C125.786 38.5766 125.476 37.8276 124.858 37.3053C124.24 36.7831 123.078 36.522 121.374 36.522H117.272V42.6651ZM159.222 55.6522H148.585L147.121 60.6409H137.577L148.936 30.4202H159.119L170.478 60.6409H160.706L159.222 55.6522ZM157.264 49.1174L153.925 38.2536L150.605 49.1174H157.264ZM171.364 30.4202H199.75V37.8826H190.226V60.6409H180.888V37.8826H171.364V30.4202ZM204.368 30.4202H213.726V60.6409H204.368V30.4202ZM220.509 30.4202H229.229L240.608 47.1385V30.4202H249.41V60.6409H240.608L229.29 44.0462V60.6409H220.509V30.4202ZM270.808 49.6946V43.4072H285.238V56.2912C282.475 58.174 280.029 59.459 277.899 60.1461C275.783 60.8195 273.268 61.1562 270.354 61.1562C266.767 61.1562 263.84 60.5447 261.573 59.3215C259.319 58.0984 257.567 56.2775 256.316 53.8588C255.079 51.44 254.461 48.6639 254.461 45.5305C254.461 42.2322 255.141 39.3668 256.501 36.9343C257.862 34.4881 259.855 32.6328 262.479 31.3684C264.527 30.3927 267.283 29.9048 270.746 29.9048C274.086 29.9048 276.58 30.2071 278.229 30.8118C279.892 31.4165 281.266 32.3579 282.352 33.636C283.451 34.9004 284.276 36.5083 284.826 38.4598L275.817 40.0677C275.446 38.927 274.814 38.0544 273.92 37.4497C273.041 36.8449 271.914 36.5427 270.54 36.5427C268.492 36.5427 266.857 37.2572 265.633 38.6865C264.424 40.102 263.82 42.349 263.82 45.4275C263.82 48.6982 264.431 51.0346 265.654 52.4363C266.892 53.8381 268.609 54.539 270.808 54.539C271.853 54.539 272.849 54.3878 273.797 54.0855C274.745 53.7832 275.831 53.2678 277.054 52.5394V49.6946H270.808Z" fill="black"/>
</g>
</g>
<defs>
<clipPath id="clip0_4094_7886">
<rect width="317" height="109" fill="white"/>
</clipPath>
<clipPath id="clip1_4094_7886">
<rect width="413" height="109" fill="white" transform="translate(-48)"/>
</clipPath>
</defs>
</svg>
