<svg width="56" height="58" viewBox="0 0 56 58" fill="none" xmlns="http://www.w3.org/2000/svg">
<path d="M5.25136 57.0476L55.8398 57.0476L50.5965 50.594L0.0078125 50.594L5.25136 57.0476Z" fill="#252525"/>
<path d="M50.5924 50.5807L50.5924 0.000477066L55.8359 6.45417L55.8359 57.0347L50.5924 50.5807Z" fill="#434242"/>
<path d="M0 0H50.5939V50.5939H0V0Z" fill="#252525"/>
<path d="M38.0574 12.4553C22.0053 12.4553 18.7949 15.6657 18.7949 15.6657V28.7963C18.3133 28.6358 17.7354 28.5074 17.1896 28.5074C14.525 28.5074 12.374 30.6584 12.374 33.323C12.374 35.9877 14.525 38.1386 17.1896 38.1386C19.8543 38.1386 22.0053 35.9877 22.0053 33.323V20.5777C24.3489 19.8393 28.394 19.1651 34.8469 18.9725V25.5859C34.3654 25.4254 33.7875 25.297 33.2417 25.297C30.5771 25.297 28.4261 27.448 28.4261 30.1126C28.4261 32.7773 30.5771 34.9282 33.2417 34.9282C35.9064 34.9282 38.0574 32.7773 38.0574 30.1126V12.4553Z" fill="#434242"/>
</svg>
