<svg width="264" height="91" viewBox="0 0 264 91" fill="none" xmlns="http://www.w3.org/2000/svg">
<path d="M13.0001 91.0016L264.003 91.0017L260.004 86.0016L9 86.0015L13.0001 91.0016Z" fill="#252525"/>
<path d="M260.004 86.0018L260.004 11.0005L264.004 16.0007L264.004 91.0027L260.004 86.0018Z" fill="#434242"/>
<rect x="9" y="11.0005" width="251.004" height="75.0011" fill="black"/>
<path d="M63.6929 52.2223H58.7234V60.0007H54.7724V37.4371H63.6929C68.2304 37.4371 71.1627 40.4003 71.1627 44.8143C71.1627 49.1665 68.1995 52.2223 63.6929 52.2223ZM62.9213 40.9559H58.7234V48.7035H62.8595C65.5758 48.7035 67.0266 47.2527 67.0266 44.7834C67.0266 42.314 65.545 40.9559 62.9213 40.9559ZM95.0744 48.7035C95.0744 55.5559 90.5678 60.3711 84.0858 60.3711C77.6346 60.3711 73.1898 55.5868 73.1898 48.7035C73.1898 41.851 77.6655 37.0358 84.1167 37.0358C90.5678 37.0358 95.0744 41.8202 95.0744 48.7035ZM90.9074 48.7035C90.9074 43.8883 88.2528 40.8324 84.1167 40.8324C79.9805 40.8324 77.326 43.8883 77.326 48.7035C77.326 53.5187 79.9805 56.5745 84.1167 56.5745C88.2528 56.5745 90.9074 53.457 90.9074 48.7035ZM97.4552 43.7339C97.4552 39.783 100.727 37.0358 105.481 37.0358C110.049 37.0358 112.95 39.5669 113.074 43.6413H109.123C109.03 41.6967 107.641 40.5546 105.419 40.5546C102.98 40.5546 101.406 41.7276 101.406 43.6104C101.406 45.2155 102.27 46.1107 104.153 46.5428L107.703 47.3145C111.561 48.1479 113.444 50.1233 113.444 53.4878C113.444 57.6857 110.172 60.402 105.203 60.402C100.388 60.402 97.2392 57.8401 97.1466 53.7965H101.098C101.128 55.7102 102.672 56.8523 105.203 56.8523C107.826 56.8523 109.493 55.7102 109.493 53.8274C109.493 52.3149 108.722 51.4198 106.87 51.0185L103.289 50.216C99.4616 49.3825 97.4552 47.191 97.4552 43.7339ZM114.742 41.0794V37.4371H131.904V41.0794H125.298V60.0007H121.347V41.0794H114.742ZM163.831 48.7035C163.831 55.5559 159.325 60.3711 152.843 60.3711C146.392 60.3711 141.947 55.5868 141.947 48.7035C141.947 41.851 146.423 37.0358 152.874 37.0358C159.325 37.0358 163.831 41.8202 163.831 48.7035ZM159.664 48.7035C159.664 43.8883 157.01 40.8324 152.874 40.8324C148.738 40.8324 146.083 43.8883 146.083 48.7035C146.083 53.5187 148.738 56.5745 152.874 56.5745C157.01 56.5745 159.664 53.457 159.664 48.7035ZM171.398 60.0007H167.509V37.4371H171.429L182.016 53.4261V37.4371H185.905V60.0007H182.016L171.398 44.0117V60.0007ZM204.899 48.7343L197.398 37.4371H202.09L204.837 41.4806C205.763 42.8696 206.535 44.1661 207.368 45.7094L212.616 37.4371H217.215L209.838 48.7035L217.246 60.0007H212.585L210.054 56.2658C209.066 54.7534 208.263 53.3952 207.368 51.7593L201.874 60.0007H197.244L204.899 48.7343Z" fill="white"/>
</svg>
