<svg width="264" height="91" viewBox="0 0 264 91" fill="none" xmlns="http://www.w3.org/2000/svg">
<path d="M13.0002 91.0016L264.003 91.0017L251.004 75.0014L0 75.0013L13.0002 91.0016Z" fill="#252525"/>
<path d="M251.004 75.0013L251.003 2.34564e-05L264.004 16.0005L264.004 91.0025L251.004 75.0013Z" fill="#434242"/>
<rect y="0.000488281" width="251.004" height="75.0011" fill="black"/>
<path d="M54.6927 41.7218H49.7231V49.5002H45.7722V26.9366H54.6927C59.2301 26.9366 62.1625 29.8998 62.1625 34.3138C62.1625 38.666 59.1993 41.7218 54.6927 41.7218ZM53.921 30.4554H49.7231V38.203H53.8593C56.5756 38.203 58.0263 36.7522 58.0263 34.2829C58.0263 31.8136 56.5447 30.4554 53.921 30.4554ZM86.0741 38.203C86.0741 45.0554 81.5676 49.8706 75.0855 49.8706C68.6344 49.8706 64.1896 45.0863 64.1896 38.203C64.1896 31.3506 68.6652 26.5353 75.1164 26.5353C81.5676 26.5353 86.0741 31.3197 86.0741 38.203ZM81.9071 38.203C81.9071 33.3878 79.2526 30.3319 75.1164 30.3319C70.9803 30.3319 68.3257 33.3878 68.3257 38.203C68.3257 43.0182 70.9803 46.074 75.1164 46.074C79.2526 46.074 81.9071 42.9565 81.9071 38.203ZM88.455 33.2334C88.455 29.2825 91.7269 26.5353 96.4804 26.5353C101.049 26.5353 103.95 29.0664 104.074 33.1408H100.123C100.03 31.1962 98.641 30.0541 96.4186 30.0541C93.9801 30.0541 92.4059 31.2271 92.4059 33.11C92.4059 34.715 93.2702 35.6102 95.1531 36.0423L98.7028 36.814C102.561 37.6474 104.444 39.6229 104.444 42.9873C104.444 47.1852 101.172 49.9015 96.2025 49.9015C91.3873 49.9015 88.2389 47.3396 88.1463 43.296H92.0973C92.1281 45.2098 93.6715 46.3518 96.2025 46.3518C98.8262 46.3518 100.493 45.2098 100.493 43.3269C100.493 41.8144 99.7214 40.9193 97.8694 40.518L94.2888 39.7155C90.4613 38.8821 88.455 36.6905 88.455 33.2334ZM105.741 30.5789V26.9366H122.903V30.5789H116.298V49.5002H112.347V30.5789H105.741ZM154.831 38.203C154.831 45.0554 150.325 49.8706 143.843 49.8706C137.391 49.8706 132.947 45.0863 132.947 38.203C132.947 31.3506 137.422 26.5353 143.873 26.5353C150.325 26.5353 154.831 31.3197 154.831 38.203ZM150.664 38.203C150.664 33.3878 148.01 30.3319 143.873 30.3319C139.737 30.3319 137.083 33.3878 137.083 38.203C137.083 43.0182 139.737 46.074 143.873 46.074C148.01 46.074 150.664 42.9565 150.664 38.203ZM162.398 49.5002H158.508V26.9366H162.429L173.016 42.9256V26.9366H176.905V49.5002H173.016L162.398 33.5112V49.5002ZM195.899 38.2339L188.398 26.9366H193.09L195.837 30.9802C196.763 32.3692 197.535 33.6656 198.368 35.2089L203.615 26.9366H208.215L200.837 38.203L208.245 49.5002H203.585L201.054 45.7654C200.066 44.2529 199.263 42.8947 198.368 41.2588L192.874 49.5002H188.244L195.899 38.2339Z" fill="white"/>
</svg>
