<svg width="235" height="64" viewBox="0 0 235 64" fill="none" xmlns="http://www.w3.org/2000/svg">
<path d="M10.7762 63.5011L234.245 63.5012L223.758 50.594L0.289062 50.5939L10.7762 63.5011Z" fill="#1B8D29"/>
<path d="M223.755 50.5998L223.755 0.0332837L234.242 12.9407L234.242 63.5078L223.755 50.5998Z" fill="#29CD3C"/>
<path d="M0.000226316 0H223.753V50.5939H0.000226316V0Z" fill="#03FF24"/>
<path d="M84.6883 21.8336C84.6883 18.6464 87.3276 16.4303 91.1622 16.4303C94.8474 16.4303 97.188 18.4721 97.2876 21.7589H94.1004C94.0257 20.1902 92.9052 19.2689 91.1124 19.2689C89.1453 19.2689 87.8754 20.2151 87.8754 21.734C87.8754 23.0288 88.5726 23.7509 90.0915 24.0995L92.955 24.722C96.0675 25.3942 97.5864 26.9878 97.5864 29.7019C97.5864 33.0883 94.947 35.2795 90.9381 35.2795C87.0537 35.2795 84.514 33.2128 84.4393 29.9509H87.6264C87.6513 31.4947 88.8963 32.416 90.9381 32.416C93.0546 32.416 94.3992 31.4947 94.3992 29.9758C94.3992 28.7557 93.7767 28.0336 92.2827 27.7099L89.3943 27.0625C86.3067 26.3902 84.6883 24.6224 84.6883 21.8336ZM111.774 34.9558H100.47V16.754H111.774V19.6922H103.657V24.3734H110.928V27.187H103.657V32.0176H111.774V34.9558ZM118.417 16.754V32.0176H126.036V34.9558H115.23V16.754H118.417ZM131.815 16.754V32.0176H139.435V34.9558H128.628V16.754H131.815Z" fill="#0D0D0D"/>
</svg>
