<svg width="413" height="109" viewBox="0 0 413 109" fill="none" xmlns="http://www.w3.org/2000/svg">
<path d="M20.9805 108.998H412.981L406.981 101H13.9805L20.9805 108.998Z" fill="#1B8D29"/>
<path d="M406.981 101.047L406.981 17L412.981 25L412.981 109L406.981 101.047Z" fill="#29CD3C"/>
<path d="M16.5722 19.5722H404.428V98.4278H16.5722V19.5722Z" fill="#08F31A" stroke="#08F31B" stroke-width="5.14439"/>
<path d="M53.5353 50.38C53.5353 42.7 59.8953 37.36 69.1353 37.36C78.0153 37.36 83.6553 42.28 83.8953 50.2H76.2153C76.0353 46.42 73.3353 44.2 69.0153 44.2C64.2753 44.2 61.2153 46.48 61.2153 50.14C61.2153 53.26 62.8953 55 66.5553 55.84L73.4553 57.34C80.9553 58.96 84.6153 62.8 84.6153 69.34C84.6153 77.5 78.2553 82.78 68.5953 82.78C59.2353 82.78 53.1153 77.8 52.9353 69.94H60.6153C60.6753 73.66 63.6753 75.88 68.5953 75.88C73.6953 75.88 76.9353 73.66 76.9353 70C76.9353 67.06 75.4353 65.32 71.8353 64.54L64.8753 62.98C57.4353 61.36 53.5353 57.1 53.5353 50.38ZM100.097 82L87.0172 38.14H94.9972L101.957 61.3C102.617 63.7 103.277 66.16 103.937 70C104.657 66.1 105.317 63.82 106.097 61.3L112.997 38.14H121.457L128.237 61.3C128.957 63.76 129.617 66.28 130.337 70C131.177 65.92 131.777 63.58 132.437 61.36L139.517 38.14H147.317L133.997 82H126.557L117.197 50.08L107.657 82H100.097ZM152.12 82H144.14L159.98 38.14H167.84L183.68 82H175.58L172.04 71.86H155.66L152.12 82ZM162.92 51.22L157.94 65.38H169.82L164.78 51.22C164.42 50.08 164 48.76 163.88 47.86C163.7 48.7 163.34 50.02 162.92 51.22ZM206.52 66.88H196.86V82H189.18V38.14H206.52C215.34 38.14 221.04 43.9 221.04 52.48C221.04 60.94 215.28 66.88 206.52 66.88ZM205.02 44.98H196.86V60.04H204.9C210.18 60.04 213 57.22 213 52.42C213 47.62 210.12 44.98 205.02 44.98ZM244.841 66.88H235.181V82H227.501V38.14H244.841C253.661 38.14 259.361 43.9 259.361 52.48C259.361 60.94 253.601 66.88 244.841 66.88ZM243.341 44.98H235.181V60.04H243.221C248.501 60.04 251.321 57.22 251.321 52.42C251.321 47.62 248.441 44.98 243.341 44.98ZM273.501 38.14V82H265.821V38.14H273.501ZM290.783 82H283.223V38.14H290.843L311.423 69.22V38.14H318.983V82H311.423L290.783 50.92V82ZM347.892 44.62C339.192 44.62 334.212 50.92 334.212 60.4C334.212 70.18 339.852 75.52 347.952 75.52C355.572 75.52 360.192 71.32 360.192 64.3V64.12H346.932V57.34H367.332V82H360.852L360.372 76.96C357.972 80.32 352.992 82.66 347.052 82.66C334.752 82.66 326.172 73.72 326.172 60.22C326.172 46.9 334.872 37.42 348.072 37.42C358.092 37.42 365.832 43.24 367.092 52.18H358.992C357.612 47.02 353.172 44.62 347.892 44.62Z" fill="#0D0D0D"/>
</svg>
