<svg width="56" height="58" viewBox="0 0 56 58" fill="none" xmlns="http://www.w3.org/2000/svg">
<path d="M5.25136 57.0476L55.8398 57.0476L50.5965 50.594L0.0078125 50.594L5.25136 57.0476Z" fill="#1B8D29"/>
<path d="M50.5924 50.5807L50.5924 0.000477066L55.8359 6.45417L55.8359 57.0347L50.5924 50.5807Z" fill="#29CD3C"/>
<path d="M0 0H50.5939V50.5939H0V0Z" fill="#03FF24"/>
<path d="M13.7532 16.8191C12.8037 16.8191 12.0576 17.5991 12.0576 18.5147V32.0792C12.0576 33.0288 12.8376 33.7748 13.7532 33.7748H30.7089C31.6584 33.7748 32.4045 33.0288 32.4045 32.0792V26.9925L35.7956 30.3837H39.1868V20.2102H35.7956L32.4045 23.6014V18.5147C32.4045 17.5651 31.6584 16.8191 30.7089 16.8191H13.7532Z" fill="black"/>
</svg>
