<svg width="73" height="37" viewBox="0 0 73 37" fill="none" xmlns="http://www.w3.org/2000/svg">
<rect y="0.77829" width="36.1163" height="36.1163" fill="black"/>
<rect x="36.1172" y="0.77829" width="36.1163" height="36.1163" fill="#FF4500"/>
<path d="M16.3211 16.6339H4.875L6.89468 8.99585V8.90771H14.2789L16.3211 16.6339ZM13.3076 14.5151L12.4029 11.038H8.77114L7.87744 14.5151H13.3076Z" fill="#FF4500"/>
<path d="M19.6211 13.1132V8.90771H22.0493V12.9471C22.0493 13.7637 22.4138 14.4811 23.4291 14.4811H26.3879C27.4148 14.4811 27.7677 13.7637 27.7677 12.9471V8.90771H30.1959V13.1132C30.1959 15.5084 28.75 16.7666 26.3861 16.7666H23.4291C21.067 16.7666 19.6211 15.5084 19.6211 13.1132Z" fill="#FF4500"/>
<path d="M15.8567 23.1692H11.8059V28.7651H9.37725V23.1692H5.33789V21.0389H15.8567V23.1692Z" fill="#FF4500"/>
<path d="M30.5202 28.7651H19.2949V21.0389H30.5202V28.7651ZM28.092 26.6348V23.1582H21.7231V26.6348H28.092Z" fill="#FF4500"/>
<path d="M42.8301 26.4804H45.2583V28.7649H42.8301V26.4804Z" fill="black"/>
<path d="M45.2583 11.0046V12.064H51.3173V14.1613H45.2583V16.6335H42.8301V8.90735H52.0674V11.0046H45.2583Z" fill="black"/>
<path d="M54.6699 13.1129V8.90741H57.099V12.9468C57.099 13.7634 57.4635 14.4808 58.4789 14.4808H61.4368C62.4636 14.4808 62.8166 13.7634 62.8166 12.9468V8.90741H65.2448V13.1129C65.2448 15.5081 63.7989 16.7663 61.4349 16.7663H58.4761C56.1158 16.7663 54.6699 15.5081 54.6699 13.1129Z" fill="black"/>
<path d="M65.3765 21.0377V28.7639H62.9924L57.0541 24.1843V28.7648H54.6699V21.0377H57.0541L62.9924 25.5852V21.0377H65.3765Z" fill="black"/>
</svg> 