<svg width="148" height="155" viewBox="0 0 148 155" fill="none" xmlns="http://www.w3.org/2000/svg">
<path d="M40.0218 27.452C39.8215 26.9713 39.6212 26.6508 39.2606 25.8496C42.8661 27.6924 46.111 29.3749 49.9568 31.3379C47.5131 31.8186 45.6303 32.2593 43.7474 32.5397C43.3869 32.6198 42.8661 32.059 42.5856 31.6584C41.7043 30.3364 40.9031 28.9343 40.0218 27.452Z" fill="#03FF24"/>
<path d="M24.2708 58.001C24.2264 57.6786 24.258 58.035 24.2308 57.6806C23.4699 52.314 20.0657 49.9359 14.8193 50.9372C14.6587 51.1118 14.8249 50.946 14.6591 51.0325C12.3363 52.1538 11.1749 53.9961 10.6543 56.2388C9.73315 60.1636 11.9759 64.2486 15.6203 65.2898C19.1046 66.251 22.6689 64.2486 23.8303 60.524C24.1106 59.723 24.1507 58.842 24.2708 58.001ZM49.1455 115.281C45.1807 112.958 40.9311 113.869 39.169 117.634C38.2879 119.436 38.014 121.009 38.1237 123.132C38.1257 123.456 38.2086 123.9 38.2667 124.162C39.6283 127.687 42.2663 129.132 46.1511 129.092C46.9068 128.973 47.6925 128.398 48.0598 128.126C52.5052 124.962 53.1243 120.55 49.52 115.664C49.2717 115.375 49.4471 115.607 49.1455 115.281ZM26.1531 84.7135C22.8291 89.1989 24.1507 95.1261 28.8764 96.8482C31.9602 98.0096 35.3243 96.648 37.0464 93.6443C38.8085 90.4805 38.0476 86.2754 35.3643 84.0326C32.5609 81.7499 29.317 81.9101 26.1531 84.7135ZM53.7868 153.477C52.8664 152.681 33.6022 135.415 28.7162 131.05C20.0657 123.32 11.3751 115.751 2.68457 108.062C0.842328 106.42 -0.0387432 104.377 0.00130553 101.814C0.201549 75.8226 0.361744 49.8711 0.521939 23.9195C0.561988 20.5954 1.48311 19.5542 4.8472 18.7532C18.3436 15.5092 31.8801 12.2653 45.3765 8.98131C55.5088 6.49829 65.6412 3.93516 75.7335 1.41209C76.3742 1.2519 77.0551 1.05166 77.6558 0.811364C81.3803 -0.870683 84.7444 0.250684 87.7481 2.45336C100.804 12.025 113.78 21.6367 126.756 31.2885C132.202 35.3334 137.489 39.5785 142.895 43.6635C146.62 46.4669 147.901 50.1514 147.18 54.5968C146.339 59.683 145.458 64.8092 144.377 69.8954C141.814 82.3906 139.211 94.8859 136.487 107.341C134.966 114.309 133.243 121.198 131.561 128.126C130.961 130.77 129.439 132.612 126.756 133.453C122.871 134.654 119.026 135.936 115.141 137.137C109.334 139.02 103.487 140.862 97.6802 142.744C90.3913 145.067 83.1024 147.39 75.8536 149.713C70.8876 151.274 65.9616 152.876 60.9555 154.318C58.5526 155.039 56.0295 155.64 53.7868 153.477ZM48.1799 61.2449C52.9858 65.5301 57.8317 69.8153 62.5574 74.1806C63.2383 74.7814 63.5987 75.9027 63.7188 76.8639C63.9191 78.3457 63.9191 79.8676 63.7989 81.3494C63.4785 85.9149 63.1582 90.4404 62.6776 95.006C61.6764 103.777 60.6351 112.587 59.5137 121.358C58.5526 128.967 57.4312 136.537 56.43 144.106C56.2698 145.387 56.3899 146.709 56.3899 147.99C56.7103 148.031 56.9907 148.071 57.311 148.111C57.5513 147.39 57.9518 146.669 58.072 145.908C59.3535 137.898 60.6751 129.888 61.8766 121.879C62.8378 115.431 63.6387 108.943 64.5198 102.455C65.5611 94.4854 66.6424 86.5156 67.7237 78.546C67.924 76.8639 68.8451 75.9027 70.407 75.4622C75.2128 74.0605 79.9786 72.6588 84.7444 71.2571C92.594 68.9343 100.444 66.6915 108.293 64.3287C114.421 62.4864 120.508 60.5641 126.595 58.6818C131.521 57.1199 136.487 55.598 141.413 53.956C141.894 53.7958 142.134 52.9949 142.535 52.4742C141.974 52.3541 141.373 52.0737 140.893 52.1939C138.45 52.7946 136.007 53.5155 133.604 54.1963C118.866 58.3614 104.168 62.6066 89.4301 66.7316C82.2614 68.734 75.0526 70.6163 67.8439 72.4586C66.9227 72.6588 65.6011 72.4185 64.9203 71.8578C61.2759 68.9343 57.7916 65.8505 54.2273 62.8469C39.6095 50.672 24.9917 38.4572 10.3739 26.2824C9.613 25.6416 8.77198 25.0809 7.971 24.4802C7.77076 24.6804 7.53047 24.8807 7.29017 25.0408C8.29139 26.5227 9.01227 28.3649 10.2938 29.4462C19.9456 37.6562 29.7175 45.6659 39.4093 53.7958C40.6908 54.8772 41.7321 56.3189 42.9736 57.4002C44.2151 58.4815 45.6168 59.3626 47.0586 60.5641C47.3389 60.7643 47.6593 60.9646 48.1799 61.2449ZM100.403 32.2897C95.7178 32.8504 91.0321 33.5312 87.1874 36.7751C85.6655 38.0567 85.2651 39.6186 85.9058 41.581C86.7869 44.2642 88.6291 46.1065 90.6716 47.8686C96.2384 52.5543 102.846 54.3165 109.935 54.4366C114.781 54.4767 119.507 53.5956 123.912 51.473C129.439 48.8298 129.959 45.5458 125.434 41.4208C118.465 35.0931 110.336 31.769 100.403 32.2897ZM105.89 81.1091C104.729 86.5157 103.567 91.8822 102.446 97.2888C101.885 99.972 103.247 102.936 105.53 103.536C107.092 103.977 108.894 104.257 110.416 103.897C114.541 102.856 118.666 101.734 122.55 100.092C127.837 97.9295 131.521 94.1249 132.763 88.2377C133.724 83.552 134.885 78.9064 135.967 74.2207C136.407 72.4185 136.768 70.5763 137.288 68.2534C134.084 69.2146 131.481 69.9355 128.918 70.7765C128.638 70.8566 128.398 71.3772 128.317 71.6976C127.597 75.2219 126.916 78.7462 126.115 82.2304C125.514 84.9538 124.873 87.6771 123.912 90.3203C122.671 93.7244 119.306 94.3252 116.343 95.1662C115.101 95.5266 113.299 95.6067 112.458 94.9659C111.737 94.4052 111.777 92.523 111.978 91.2815C112.819 86.7159 113.86 82.1904 114.781 77.6248C114.941 77.0241 114.821 76.3833 114.821 75.5023C112.819 76.143 111.137 76.8239 109.414 77.1442C107.212 77.5047 105.77 78.3057 105.89 81.1091ZM97.6001 121.318C96.4787 126.685 95.3573 132.051 94.1959 137.818C96.4787 137.177 98.401 136.456 100.363 136.096C101.965 135.776 102.566 134.895 102.846 133.493C103.247 131.41 103.728 129.328 104.168 127.245C104.609 125.283 105.049 123.36 105.53 121.398C105.77 121.318 106.01 121.278 106.211 121.198C108.173 123.28 110.296 125.243 112.058 127.445C114.581 130.529 116.109 131.386 121.109 129.848C121.661 129.679 122.266 129.547 122.831 129.328C124.372 128.729 124.873 128.126 125.194 126.765C126.395 121.238 127.677 115.751 128.878 110.225C129.359 108.142 129.719 106.019 130.2 103.456C127.316 104.377 124.953 105.138 122.59 105.979C122.23 106.099 121.91 106.74 121.83 107.181C121.229 109.904 120.708 112.627 120.107 115.391C119.667 117.553 119.186 119.716 118.666 122.119C118.105 121.718 117.785 121.558 117.584 121.318C114.901 118.354 112.178 115.471 109.655 112.347C108.694 111.186 107.732 111.066 106.531 111.426C104.689 111.987 102.927 112.788 101.044 113.188C99.2421 113.629 98.7615 114.71 98.5612 116.312C98.361 117.874 98.0006 119.436 97.6001 121.318ZM89.35 83.4319C85.5454 84.4331 81.7808 85.5144 77.9361 86.3555C76.8949 86.5957 76.4543 86.9161 76.2941 87.9174C74.8924 95.6067 73.4507 103.336 72.049 111.066C71.8487 112.227 71.5968 113.645 71.3165 115.207C73.5528 114.76 74.1992 114.579 75.9762 113.993C79.9486 112.681 80.1897 113.696 80.5726 108.56C80.5858 107.512 81.0239 106.093 81.0639 106.053C81.7047 105.413 82.2214 105.299 82.9823 105.018C86.827 103.737 90.7517 102.695 94.5964 101.494C95.2772 101.294 96.2384 100.853 96.3586 100.373C96.719 98.33 96.8391 96.2074 97.1195 93.8045C92.2335 95.2062 87.7481 96.4878 83.2226 97.8094C83.1425 93.6043 83.3828 93.1637 86.7068 92.1225C91.0321 90.8009 95.3573 89.5193 99.6826 88.1176C100.243 87.9574 101.044 87.4768 101.124 87.0363C101.605 84.7936 101.885 82.5108 102.326 79.7074C97.8404 80.9889 93.7554 82.1503 89.35 83.4319ZM91.2724 31.2484C92.9945 30.7278 94.7566 30.2872 96.3986 29.6465C100.163 28.1246 100.724 25.8418 98.2008 22.678C97.9605 22.3976 97.6802 22.0772 97.3598 21.8369C92.4738 17.7119 87.5879 13.627 82.6619 9.54199C82.3014 9.26165 81.6607 9.02135 81.2201 9.10145C78.8573 9.62208 76.4944 10.2629 73.5308 11.0238C75.6133 12.7859 77.2954 14.2277 78.9774 15.6694C81.941 18.1525 84.9447 20.5554 87.9083 23.0384C89.35 24.2799 88.8294 25.2811 87.3075 25.8018C85.8257 26.3625 84.2638 26.6828 82.7019 27.0833C80.299 27.644 78.1364 27.2435 76.1339 25.6816C72.3694 22.678 68.3645 20.0348 64.7601 16.8709C62.0768 14.508 59.5938 13.2265 56.1096 14.9886C54.8681 15.5893 53.4263 15.8296 51.544 16.3903C52.8656 17.3114 53.6266 17.8721 54.4275 18.4729C57.7916 20.8758 61.1157 23.3188 64.4798 25.6816C67.163 27.5639 69.7261 29.6465 72.6097 31.0882C78.5769 34.0118 84.8245 32.9304 91.2724 31.2484ZM29.2369 21.8369C29.317 22.5578 29.1568 23.3588 29.4772 23.9195C32.2405 29.2059 35.2041 34.4523 37.8474 39.7788C38.9287 41.9815 40.05 42.9827 42.5331 42.0215C44.3753 41.3407 46.3377 41.0603 48.3001 40.5397C47.8996 39.4183 47.6192 38.7375 47.2588 37.8164C50.6629 37.0154 53.8669 36.1343 57.1108 35.5336C58.1521 35.3334 59.5938 35.4135 60.4348 35.9742C62.1569 37.0555 63.7589 37.0555 65.5611 36.5749C67.0429 36.2144 68.5247 35.8941 70.0065 35.4535C70.4871 35.3334 70.9276 34.9329 71.5684 34.5324C71.0478 34.212 70.8475 34.0118 70.6473 33.9317C60.3547 29.3661 50.1023 24.8006 39.7697 20.3151C38.8886 19.9146 37.6872 19.9146 36.6859 20.0748C34.283 20.5153 31.8801 21.1561 29.2369 21.8369ZM72.2893 57.2C73.9313 58.6017 75.5332 60.0034 77.2153 61.325C77.6958 61.6854 78.4568 62.126 78.9774 62.0058C81.901 61.325 84.8245 60.484 88.1486 59.6029C82.2614 54.8772 76.7747 50.4718 70.9276 45.7861C74.3718 44.7849 77.2954 43.9438 80.6594 42.9426C78.8973 41.5409 77.6157 40.5397 76.3342 39.4984C74.8924 38.297 73.4507 38.0166 71.5283 38.5773C63.3584 40.8601 55.1084 42.9827 46.8984 45.1854C46.2976 45.3456 45.777 45.746 44.936 46.1465C46.4578 47.4281 47.8195 48.4293 48.9409 49.6308C50.1423 50.9123 51.4239 50.9524 52.9057 50.5118C55.2686 49.831 57.6314 49.0701 60.0344 48.5094C60.7552 48.3492 61.8766 48.5094 62.4373 48.99C65.7213 51.5932 68.8851 54.3565 72.2893 57.2Z" fill="#03FF24"/>
<path d="M104.208 47.6683C102.005 46.3067 99.7627 45.2253 97.9605 43.6634C95.878 41.8212 96.5588 39.6586 99.2821 38.7775C103.207 37.4959 107.092 37.8964 110.736 39.6185C112.698 40.5396 114.501 41.8613 116.143 43.263C117.584 44.5846 117.384 46.2666 115.582 46.9474C113.339 47.7484 110.896 48.0688 108.493 48.3091C107.132 48.4292 105.73 47.9487 104.208 47.6683Z" fill="#03FF24"/>
<path d="M40.01 27.4437C39.8097 26.9632 39.6095 26.6428 39.249 25.8418C42.8534 27.684 46.0974 29.3661 49.942 31.3285C47.4991 31.8091 45.6168 32.2496 43.7345 32.5299C43.374 32.61 42.8534 32.0494 42.5731 31.6489C41.692 30.3273 40.891 28.9255 40.01 27.4437Z" fill="#03FF24"/>
</svg>
