<svg width="234" height="92" viewBox="0 0 234 92" fill="none" xmlns="http://www.w3.org/2000/svg">
<path d="M15.5012 91.0229L233.066 91.0229L229.066 86.0216L11.5002 86.0215L15.5012 91.0229Z" fill="#1B8D29"/>
<path d="M229.066 86.0218L229.066 11.0028L233.067 16.0042L233.067 91.0239L229.066 86.0218Z" fill="#29CD3C"/>
<path d="M11.5002 11.0028H229.066V86.0216H11.5002V11.0028Z" fill="#03FF24"/>
<path d="M41.2751 41.5628C37.2151 41.5628 34.8911 44.5028 34.8911 48.9268C34.8911 53.4908 37.5231 55.9828 41.3031 55.9828C44.8591 55.9828 47.0151 54.0228 47.0151 50.7468V50.6628H40.8271V47.4988H50.3471V59.0068H47.3231L47.0991 56.6548C45.9791 58.2228 43.6551 59.3148 40.8831 59.3148C35.1431 59.3148 31.1391 55.1428 31.1391 48.8428C31.1391 42.6268 35.1991 38.2028 41.3591 38.2028C46.0351 38.2028 49.6471 40.9188 50.2351 45.0908H46.4551C45.8111 42.6828 43.7391 41.5628 41.2751 41.5628ZM67.7771 59.0068H55.0651V38.5388H67.7771V41.8428H58.6491V47.1068H66.8251V50.2708H58.6491V55.7028H67.7771V59.0068ZM75.1908 59.0068H71.6628V38.5388H75.2188L84.8228 53.0428V38.5388H88.3508V59.0068H84.8228L75.1908 44.5028V59.0068ZM105.594 59.0068H92.8815V38.5388H105.594V41.8428H96.4655V47.1068H104.642V50.2708H96.4655V55.7028H105.594V59.0068ZM113.063 59.0068H109.479V38.5388H117.291C121.939 38.5388 124.655 40.8908 124.655 44.9228C124.655 47.6668 123.367 49.6268 120.959 50.6068L124.851 59.0068H120.931L117.459 51.3628H113.063V59.0068ZM113.063 41.7308V48.1988H117.291C119.559 48.1988 120.903 46.9948 120.903 44.9228C120.903 42.8788 119.559 41.7308 117.291 41.7308H113.063ZM130.001 59.0068H126.277L133.669 38.5388H137.337L144.729 59.0068H140.949L139.297 54.2748H131.653L130.001 59.0068ZM135.041 44.6428L132.717 51.2508H138.261L135.909 44.6428C135.741 44.1108 135.545 43.4948 135.489 43.0748C135.405 43.4668 135.237 44.0828 135.041 44.6428ZM143.672 41.8428V38.5388H159.24V41.8428H153.248V59.0068H149.664V41.8428H143.672ZM165.563 38.5388V59.0068H161.979V38.5388H165.563ZM173.628 59.0068H170.1V38.5388H173.656L183.26 53.0428V38.5388H186.788V59.0068H183.26L173.628 44.5028V59.0068ZM200.279 41.5628C196.219 41.5628 193.895 44.5028 193.895 48.9268C193.895 53.4908 196.527 55.9828 200.307 55.9828C203.863 55.9828 206.019 54.0228 206.019 50.7468V50.6628H199.831V47.4988H209.351V59.0068H206.327L206.103 56.6548C204.983 58.2228 202.659 59.3148 199.887 59.3148C194.147 59.3148 190.143 55.1428 190.143 48.8428C190.143 42.6268 194.203 38.2028 200.363 38.2028C205.039 38.2028 208.651 40.9188 209.239 45.0908H205.459C204.815 42.6828 202.743 41.5628 200.279 41.5628Z" fill="black"/>
</svg>
