<svg width="277" height="108" viewBox="0 0 277 108" fill="none" xmlns="http://www.w3.org/2000/svg">
<path d="M26 107.5L276.999 107.5L264 91.5001L13 91.5L26 107.5Z" fill="#1B8D29"/>
<path d="M264 91.4999L264 16.4998L277 32.5L277 107.501L264 91.4999Z" fill="#29CD3C"/>
<path d="M264 91.4999L264 16.4998L277 32.5L277 107.501L264 91.4999Z" fill="#29CD3C"/>
<rect x="15.5722" y="19.0722" width="245.856" height="69.8556" fill="#08F31A" stroke="#08F31B" stroke-width="5.14439"/>
<path d="M70.7601 46.2703C66.2845 46.2703 63.7226 49.5112 63.7226 54.3881C63.7226 59.4193 66.624 62.1664 70.791 62.1664C74.711 62.1664 77.0877 60.0058 77.0877 56.3944V56.3018H70.2663V52.8139H80.7608V65.5H77.4273L77.1803 62.9072C75.9457 64.6357 73.3838 65.8395 70.328 65.8395C64.0004 65.8395 59.5865 61.2404 59.5865 54.2955C59.5865 47.4432 64.0621 42.5663 70.8527 42.5663C76.0074 42.5663 79.9892 45.5603 80.6374 50.1594H76.4704C75.7605 47.5049 73.4764 46.2703 70.7601 46.2703ZM99.9751 65.5H85.9618V42.9367H99.9751V46.5789H89.9127V52.3818H98.9257V55.8697H89.9127V61.8578H99.9751V65.5ZM108.148 65.5H104.259V42.9367H108.179L118.766 58.9255V42.9367H122.655V65.5H118.766L108.148 49.5112V65.5ZM141.663 65.5H127.649V42.9367H141.663V46.5789H131.6V52.3818H140.613V55.8697H131.6V61.8578H141.663V65.5ZM149.897 65.5H145.946V42.9367H154.558C159.682 42.9367 162.676 45.5295 162.676 49.9742C162.676 52.9991 161.256 55.1598 158.601 56.2401L162.892 65.5H158.571L154.743 57.0735H149.897V65.5ZM149.897 46.4555V53.5856H154.558C157.058 53.5856 158.54 52.2583 158.54 49.9742C158.54 47.721 157.058 46.4555 154.558 46.4555H149.897ZM168.569 65.5H164.464L172.612 42.9367H176.656L184.805 65.5H180.638L178.817 60.2836H170.39L168.569 65.5ZM174.125 49.6656L171.563 56.95H177.674L175.082 49.6656C174.896 49.0791 174.68 48.4 174.619 47.937C174.526 48.3692 174.341 49.0482 174.125 49.6656ZM183.639 46.5789V42.9367H200.801V46.5789H194.195V65.5H190.244V46.5789H183.639ZM217.834 65.5H203.821V42.9367H217.834V46.5789H207.772V52.3818H216.785V55.8697H207.772V61.8578H217.834V65.5Z" fill="#0D0D0D"/>
</svg>
