<svg width="265" height="92" viewBox="0 0 265 92" fill="none" xmlns="http://www.w3.org/2000/svg">
<path d="M13.1116 91.0228L264.174 91.0229L260.174 86.0216L9.1106 86.0215L13.1116 91.0228Z" fill="#1B8D29"/>
<path d="M260.173 86.0217L260.173 11.0028L264.174 16.0041L264.174 91.0238L260.173 86.0217Z" fill="#29CD3C"/>
<rect x="9.1106" y="11.0028" width="251.063" height="75.0188" fill="#03FF24"/>
<path d="M47.7628 40.7723C43.2861 40.7723 40.7235 44.014 40.7235 48.8922C40.7235 53.9246 43.6257 56.6724 47.7937 56.6724C51.7147 56.6724 54.092 54.5112 54.092 50.899V50.8064H47.2688V47.3176H57.766V60.0068H54.4316L54.1846 57.4134C52.9497 59.1424 50.3871 60.3465 47.3306 60.3465C41.0014 60.3465 36.5864 55.7462 36.5864 48.7995C36.5864 41.9455 41.0631 37.0674 47.8554 37.0674C53.0114 37.0674 56.9942 40.0622 57.6425 44.6624H53.4745C52.7644 42.0072 50.4797 40.7723 47.7628 40.7723ZM76.9851 60.0068H62.9683V37.4379H76.9851V41.081H66.9202V46.8853H75.9354V50.3741H66.9202V56.3637H76.9851V60.0068ZM85.1598 60.0068H81.2696V37.4379H85.1907L95.7805 53.4307V37.4379H99.6706V60.0068H95.7805L85.1598 44.014V60.0068ZM118.683 60.0068H104.666V37.4379H118.683V41.081H108.618V46.8853H117.634V50.3741H108.618V56.3637H118.683V60.0068ZM126.92 60.0068H122.968V37.4379H131.582C136.707 37.4379 139.702 40.0313 139.702 44.4772C139.702 47.5028 138.281 49.664 135.626 50.7446L139.918 60.0068H135.595L131.767 51.5782H126.92V60.0068ZM126.92 40.9575V48.0894H131.582C134.082 48.0894 135.564 46.7618 135.564 44.4772C135.564 42.2234 134.082 40.9575 131.582 40.9575H126.92ZM145.596 60.0068H141.49L149.641 37.4379H153.685L161.836 60.0068H157.668L155.846 54.7891H147.418L145.596 60.0068ZM151.153 44.1684L148.591 51.4547H154.704L152.111 44.1684C151.925 43.5818 151.709 42.9026 151.647 42.4395C151.555 42.8717 151.37 43.5509 151.153 44.1684ZM160.67 41.081V37.4379H177.836V41.081H171.229V60.0068H167.277V41.081H160.67ZM184.809 37.4379V60.0068H180.857V37.4379H184.809ZM193.702 60.0068H189.811V37.4379H193.732L204.322 53.4307V37.4379H208.212V60.0068H204.322L193.702 44.014V60.0068ZM223.088 40.7723C218.611 40.7723 216.049 44.014 216.049 48.8922C216.049 53.9246 218.951 56.6724 223.119 56.6724C227.04 56.6724 229.417 54.5112 229.417 50.899V50.8064H222.594V47.3176H233.091V60.0068H229.757L229.51 57.4134C228.275 59.1424 225.712 60.3465 222.656 60.3465C216.326 60.3465 211.911 55.7462 211.911 48.7995C211.911 41.9455 216.388 37.0674 223.181 37.0674C228.337 37.0674 232.319 40.0622 232.968 44.6624H228.8C228.09 42.0072 225.805 40.7723 223.088 40.7723Z" fill="black"/>
</svg>
