<svg width="234" height="92" viewBox="0 0 234 92" fill="none" xmlns="http://www.w3.org/2000/svg">
<path d="M15.5012 91.0227L233.065 91.0228L229.065 86.0215L11.5002 86.0214L15.5012 91.0227Z" fill="#1B8D29"/>
<path d="M229.065 86.0216L229.065 11.0026L233.066 16.004L233.066 91.0237L229.065 86.0216Z" fill="#29CD3C"/>
<path d="M11.5002 11.0027H229.065V86.0215H11.5002V11.0027Z" fill="#03FF24"/>
<path d="M51.7433 40.7721C47.2665 40.7721 44.704 44.0139 44.704 48.892C44.704 53.9245 47.6061 56.6723 51.7741 56.6723C55.6952 56.6723 58.0725 54.5111 58.0725 50.8989V50.8062H51.2493V47.3175H61.7465V60.0067H58.4121L58.1651 57.4133C56.9301 59.1422 54.3676 60.3463 51.311 60.3463C44.9818 60.3463 40.5668 55.7461 40.5668 48.7994C40.5668 41.9454 45.0436 37.0673 51.8359 37.0673C56.9919 37.0673 60.9746 40.062 61.623 44.6623H57.455C56.7449 42.0071 54.4602 40.7721 51.7433 40.7721ZM80.9656 60.0067H66.9488V37.4377H80.9656V41.0809H70.9006V46.8852H79.9159V50.374H70.9006V56.3636H80.9656V60.0067ZM89.1402 60.0067H85.2501V37.4377H89.1711L99.7609 53.4305V37.4377H103.651V60.0067H99.7609L89.1402 44.0139V60.0067ZM122.664 60.0067H108.647V37.4377H122.664V41.0809H112.599V46.8852H121.614V50.374H112.599V56.3636H122.664V60.0067ZM130.9 60.0067H126.948V37.4377H135.562C140.687 37.4377 143.682 40.0312 143.682 44.477C143.682 47.5027 142.262 49.6639 139.607 50.7445L143.898 60.0067H139.576L135.747 51.5781H130.9V60.0067ZM130.9 40.9574V48.0893H135.562C138.063 48.0893 139.545 46.7617 139.545 44.477C139.545 42.2232 138.063 40.9574 135.562 40.9574H130.9ZM149.577 60.0067H145.47L153.621 37.4377H157.666L165.816 60.0067H161.648L159.827 54.789H151.398L149.577 60.0067ZM155.134 44.1683L152.571 51.4546H158.684L156.091 44.1683C155.906 43.5817 155.69 42.9025 155.628 42.4393C155.535 42.8716 155.35 43.5508 155.134 44.1683ZM164.65 41.0809V37.4377H181.816V41.0809H175.209V60.0067H171.257V41.0809H164.65ZM198.854 60.0067H184.837V37.4377H198.854V41.0809H188.789V46.8852H197.804V50.374H188.789V56.3636H198.854V60.0067Z" fill="black"/>
</svg>
