<svg width="265" height="92" viewBox="0 0 265 92" fill="none" xmlns="http://www.w3.org/2000/svg">
<path d="M13.0033 91.0229L264.066 91.023L251.063 75.019L0 75.0189L13.0033 91.0229Z" fill="#1B8D29"/>
<path d="M251.063 75.0189L251.063 -8.33549e-05L264.067 16.0041L264.067 91.0238L251.063 75.0189Z" fill="#29CD3C"/>
<path d="M251.063 75.0189L251.063 -8.33549e-05L264.067 16.0041L264.067 91.0238L251.063 75.0189Z" fill="#29CD3C"/>
<rect y="0.00012207" width="251.063" height="75.0188" fill="#03FF24"/>
<path d="M57.7599 29.7696C53.2831 29.7696 50.7206 33.0114 50.7206 37.8895C50.7206 42.922 53.6227 45.6697 57.7907 45.6697C61.7118 45.6697 64.0891 43.5086 64.0891 39.8963V39.8037H57.2659V36.3149H67.7631V49.0042H64.4287L64.1817 46.4107C62.9467 48.1397 60.3842 49.3438 57.3276 49.3438C50.9984 49.3438 46.5834 44.7435 46.5834 37.7968C46.5834 30.9428 51.0602 26.0647 57.8525 26.0647C63.0085 26.0647 66.9912 29.0595 67.6396 33.6597H63.4716C62.7615 31.0045 60.4768 29.7696 57.7599 29.7696ZM86.9822 49.0042H72.9654V26.4352H86.9822V30.0783H76.9172V35.8827H85.9325V39.3714H76.9172V45.361H86.9822V49.0042ZM95.1568 49.0042H91.2667V26.4352H95.1877L105.778 42.428V26.4352H109.668V49.0042H105.778L95.1568 33.0114V49.0042ZM128.68 49.0042H114.663V26.4352H128.68V30.0783H118.615V35.8827H127.631V39.3714H118.615V45.361H128.68V49.0042ZM136.917 49.0042H132.965V26.4352H141.579C146.704 26.4352 149.699 29.0286 149.699 33.4745C149.699 36.5001 148.278 38.6613 145.623 39.7419L149.915 49.0042H145.592L141.764 40.5755H136.917V49.0042ZM136.917 29.9548V37.0867H141.579C144.08 37.0867 145.561 35.7592 145.561 33.4745C145.561 31.2207 144.08 29.9548 141.579 29.9548H136.917ZM155.593 49.0042H151.487L159.638 26.4352H163.682L171.833 49.0042H167.665L165.843 43.7864H157.415L155.593 49.0042ZM161.15 33.1657L158.588 40.452H164.701L162.108 33.1657C161.922 32.5791 161.706 31.8999 161.644 31.4368C161.552 31.869 161.367 32.5483 161.15 33.1657ZM170.667 30.0783V26.4352H187.833V30.0783H181.226V49.0042H177.274V30.0783H170.667ZM204.871 49.0042H190.854V26.4352H204.871V30.0783H194.806V35.8827H203.821V39.3714H194.806V45.361H204.871V49.0042Z" fill="black"/>
</svg>
