<svg width="265" height="92" viewBox="0 0 265 92" fill="none" xmlns="http://www.w3.org/2000/svg">
<path d="M13.0576 91.0363L264.12 91.0364L260.12 86.0351L9.05664 86.035L13.0576 91.0363Z" fill="#1B8D29"/>
<path d="M260.12 86.0353L260.12 11.0163L264.121 16.0177L264.121 91.0374L260.12 86.0353Z" fill="#29CD3C"/>
<rect x="9.05664" y="11.0164" width="251.063" height="75.0188" fill="#03FF24"/>
<path d="M66.8165 40.7858C62.3398 40.7858 59.7772 44.0276 59.7772 48.9057C59.7772 53.9382 62.6794 56.686 66.8474 56.686C70.7684 56.686 73.1457 54.5248 73.1457 50.9125V50.8199H66.3225V47.3311H76.8197V60.0204H73.4853L73.2383 57.427C72.0034 59.1559 69.4408 60.36 66.3843 60.36C60.0551 60.36 55.6401 55.7598 55.6401 48.8131C55.6401 41.959 60.1168 37.0809 66.9091 37.0809C72.0651 37.0809 76.0479 40.0757 76.6962 44.676H72.5282C71.8181 42.0208 69.5334 40.7858 66.8165 40.7858ZM96.0388 60.0204H82.022V37.4514H96.0388V41.0946H85.9739V46.8989H94.9891V50.3877H85.9739V56.3772H96.0388V60.0204ZM104.213 60.0204H100.323V37.4514H104.244L114.834 53.4442V37.4514H118.724V60.0204H114.834L104.213 44.0276V60.0204ZM137.737 60.0204H123.72V37.4514H137.737V41.0946H127.672V46.8989H136.687V50.3877H127.672V56.3772H137.737V60.0204ZM145.973 60.0204H142.021V37.4514H150.635C155.76 37.4514 158.755 40.0448 158.755 44.4907C158.755 47.5164 157.335 49.6776 154.68 50.7582L158.971 60.0204H154.649L150.821 51.5918H145.973V60.0204ZM145.973 40.9711V48.103H150.635C153.136 48.103 154.618 46.7754 154.618 44.4907C154.618 42.2369 153.136 40.9711 150.635 40.9711H145.973ZM164.65 60.0204H160.544L168.694 37.4514H172.739L180.89 60.0204H176.722L174.9 54.8027H166.471L164.65 60.0204ZM170.207 44.182L167.645 51.4683H173.758L171.164 44.182C170.979 43.5954 170.763 42.9161 170.701 42.453C170.608 42.8853 170.423 43.5645 170.207 44.182ZM179.724 41.0946V37.4514H196.89V41.0946H190.283V60.0204H186.331V41.0946H179.724ZM213.927 60.0204H199.91V37.4514H213.927V41.0946H203.862V46.8989H212.878V50.3877H203.862V56.3772H213.927V60.0204Z" fill="black"/>
</svg>
