<svg width="277" height="108" viewBox="0 0 277 108" fill="none" xmlns="http://www.w3.org/2000/svg">
<path d="M26 107.5L276.999 107.5L273 102.5L22 102.5L26 107.5Z" fill="#1B8D29"/>
<path d="M273 102.5L273 27.5L277 32.5001L277 107.501L273 102.5Z" fill="#29CD3C"/>
<rect x="22" y="27.5" width="251" height="75" fill="#03FF24"/>
<path d="M79.7601 57.2703C75.2845 57.2703 72.7226 60.5112 72.7226 65.3881C72.7226 70.4193 75.624 73.1664 79.791 73.1664C83.711 73.1664 86.0877 71.0058 86.0877 67.3944V67.3018H79.2663V63.8139H89.7608V76.5H86.4273L86.1803 73.9072C84.9457 75.6357 82.3838 76.8395 79.328 76.8395C73.0004 76.8395 68.5865 72.2404 68.5865 65.2955C68.5865 58.4432 73.0621 53.5663 79.8527 53.5663C85.0074 53.5663 88.9892 56.5603 89.6374 61.1594H85.4704C84.7605 58.5049 82.4764 57.2703 79.7601 57.2703ZM108.975 76.5H94.9618V53.9367H108.975V57.5789H98.9127V63.3818H107.926V66.8697H98.9127V72.8578H108.975V76.5ZM117.148 76.5H113.259V53.9367H117.179L127.766 69.9255V53.9367H131.655V76.5H127.766L117.148 60.5112V76.5ZM150.663 76.5H136.649V53.9367H150.663V57.5789H140.6V63.3818H149.613V66.8697H140.6V72.8578H150.663V76.5ZM158.897 76.5H154.946V53.9367H163.558C168.682 53.9367 171.676 56.5295 171.676 60.9742C171.676 63.9991 170.256 66.1598 167.601 67.2401L171.892 76.5H167.571L163.743 68.0735H158.897V76.5ZM158.897 57.4555V64.5856H163.558C166.058 64.5856 167.54 63.2583 167.54 60.9742C167.54 58.721 166.058 57.4555 163.558 57.4555H158.897ZM177.569 76.5H173.464L181.612 53.9367H185.656L193.805 76.5H189.638L187.817 71.2836H179.39L177.569 76.5ZM183.125 60.6656L180.563 67.95H186.674L184.082 60.6656C183.896 60.0791 183.68 59.4 183.619 58.937C183.526 59.3692 183.341 60.0482 183.125 60.6656ZM192.639 57.5789V53.9367H209.801V57.5789H203.195V76.5H199.244V57.5789H192.639ZM226.834 76.5H212.821V53.9367H226.834V57.5789H216.772V63.3818H225.785V66.8697H216.772V72.8578H226.834V76.5Z" fill="black"/>
</svg>
