<svg width="277" height="108" viewBox="0 0 277 108" fill="none" xmlns="http://www.w3.org/2000/svg">
<path d="M26 107.5L276.999 107.5L273 102.5L22 102.5L26 107.5Z" fill="#1B8D29"/>
<path d="M273 102.5L273 27.5L277 32.5001L277 107.501L273 102.5Z" fill="#29CD3C"/>
<rect x="22" y="27.5" width="251" height="75" fill="#03FF24"/>
<path d="M60.6646 57.2703C56.189 57.2703 53.6271 60.5112 53.6271 65.3881C53.6271 70.4193 56.5285 73.1664 60.6955 73.1664C64.6155 73.1664 66.9922 71.0058 66.9922 67.3944V67.3018H60.1707V63.8139H70.6653V76.5H67.3317L67.0848 73.9072C65.8501 75.6357 63.2882 76.8395 60.2325 76.8395C53.9049 76.8395 49.491 72.2404 49.491 65.2955C49.491 58.4432 53.9666 53.5663 60.7572 53.5663C65.9119 53.5663 69.8936 56.5603 70.5418 61.1594H66.3749C65.6649 58.5049 63.3808 57.2703 60.6646 57.2703ZM89.8796 76.5H75.8663V53.9367H89.8796V57.5789H79.8172V63.3818H88.8301V66.8697H79.8172V72.8578H89.8796V76.5ZM98.0522 76.5H94.163V53.9367H98.0831L108.67 69.9255V53.9367H112.559V76.5H108.67L98.0522 60.5112V76.5ZM131.567 76.5H117.554V53.9367H131.567V57.5789H121.505V63.3818H130.518V66.8697H121.505V72.8578H131.567V76.5ZM139.802 76.5H135.851V53.9367H144.462C149.586 53.9367 152.58 56.5295 152.58 60.9742C152.58 63.9991 151.16 66.1598 148.506 67.2401L152.796 76.5H148.475L144.648 68.0735H139.802V76.5ZM139.802 57.4555V64.5856H144.462C146.963 64.5856 148.444 63.2583 148.444 60.9742C148.444 58.721 146.963 57.4555 144.462 57.4555H139.802ZM158.473 76.5H154.368L162.517 53.9367H166.56L174.709 76.5H170.542L168.721 71.2836H160.294L158.473 76.5ZM164.029 60.6656L161.467 67.95H167.579L164.986 60.6656C164.801 60.0791 164.585 59.4 164.523 58.937C164.431 59.3692 164.245 60.0482 164.029 60.6656ZM173.543 57.5789V53.9367H190.705V57.5789H184.1V76.5H180.149V57.5789H173.543ZM197.676 53.9367V76.5H193.725V53.9367H197.676ZM206.567 76.5H202.678V53.9367H206.598L217.185 69.9255V53.9367H221.074V76.5H217.185L206.567 60.5112V76.5ZM235.946 57.2703C231.47 57.2703 228.908 60.5112 228.908 65.3881C228.908 70.4193 231.81 73.1664 235.977 73.1664C239.897 73.1664 242.273 71.0058 242.273 67.3944V67.3018H235.452V63.8139H245.946V76.5H242.613L242.366 73.9072C241.131 75.6357 238.569 76.8395 235.514 76.8395C229.186 76.8395 224.772 72.2404 224.772 65.2955C224.772 58.4432 229.248 53.5663 236.038 53.5663C241.193 53.5663 245.175 56.5603 245.823 61.1594H241.656C240.946 58.5049 238.662 57.2703 235.946 57.2703Z" fill="black"/>
</svg>
