<svg width="277" height="108" viewBox="0 0 277 108" fill="none" xmlns="http://www.w3.org/2000/svg">
<path d="M26 107.5L276.999 107.5L264 91.5001L13 91.5L26 107.5Z" fill="#1B8D29"/>
<path d="M264 91.4999L264 16.4998L277 32.5L277 107.501L264 91.4999Z" fill="#29CD3C"/>
<path d="M264 91.4999L264 16.4998L277 32.5L277 107.501L264 91.4999Z" fill="#29CD3C"/>
<rect x="15.5722" y="19.0721" width="245.856" height="69.8556" fill="#03FF24" stroke="#03FF24" stroke-width="5.14439"/>
<path d="M51.6646 46.2703C47.189 46.2703 44.6271 49.5112 44.6271 54.3881C44.6271 59.4193 47.5285 62.1664 51.6955 62.1664C55.6155 62.1664 57.9922 60.0058 57.9922 56.3944V56.3018H51.1707V52.8139H61.6653V65.5H58.3317L58.0848 62.9072C56.8501 64.6357 54.2882 65.8395 51.2325 65.8395C44.9049 65.8395 40.491 61.2404 40.491 54.2955C40.491 47.4432 44.9666 42.5663 51.7572 42.5663C56.9119 42.5663 60.8936 45.5603 61.5418 50.1594H57.3749C56.6649 47.5049 54.3808 46.2703 51.6646 46.2703ZM80.8796 65.5H66.8663V42.9367H80.8796V46.5789H70.8172V52.3818H79.8301V55.8697H70.8172V61.8578H80.8796V65.5ZM89.0522 65.5H85.163V42.9367H89.0831L99.6702 58.9255V42.9367H103.559V65.5H99.6702L89.0522 49.5112V65.5ZM122.567 65.5H108.554V42.9367H122.567V46.5789H112.505V52.3818H121.518V55.8697H112.505V61.8578H122.567V65.5ZM130.802 65.5H126.851V42.9367H135.462C140.586 42.9367 143.58 45.5295 143.58 49.9742C143.58 52.9991 142.16 55.1598 139.506 56.2401L143.796 65.5H139.475L135.648 57.0735H130.802V65.5ZM130.802 46.4555V53.5856H135.462C137.963 53.5856 139.444 52.2583 139.444 49.9742C139.444 47.721 137.963 46.4555 135.462 46.4555H130.802ZM149.473 65.5H145.368L153.517 42.9367H157.56L165.709 65.5H161.542L159.721 60.2836H151.294L149.473 65.5ZM155.029 49.6656L152.467 56.95H158.579L155.986 49.6656C155.801 49.0791 155.585 48.4 155.523 47.937C155.431 48.3692 155.245 49.0482 155.029 49.6656ZM164.543 46.5789V42.9367H181.705V46.5789H175.1V65.5H171.149V46.5789H164.543ZM188.676 42.9367V65.5H184.725V42.9367H188.676ZM197.567 65.5H193.678V42.9367H197.598L208.185 58.9255V42.9367H212.074V65.5H208.185L197.567 49.5112V65.5ZM226.946 46.2703C222.47 46.2703 219.908 49.5112 219.908 54.3881C219.908 59.4193 222.81 62.1664 226.977 62.1664C230.897 62.1664 233.273 60.0058 233.273 56.3944V56.3018H226.452V52.8139H236.946V65.5H233.613L233.366 62.9072C232.131 64.6357 229.569 65.8395 226.514 65.8395C220.186 65.8395 215.772 61.2404 215.772 54.2955C215.772 47.4432 220.248 42.5663 227.038 42.5663C232.193 42.5663 236.175 45.5603 236.823 50.1594H232.656C231.946 47.5049 229.662 46.2703 226.946 46.2703Z" fill="#0D0D0D"/>
</svg>
