<svg width="277" height="108" viewBox="0 0 277 108" fill="none" xmlns="http://www.w3.org/2000/svg">
<path d="M26 108L276.999 108L264 92.0003L13 92.0002L26 108Z" fill="#1B8D29"/>
<path d="M264 92.0002L264 17L277 33.0002L277 108.001L264 92.0002Z" fill="#29CD3C"/>
<rect x="13" y="17.0002" width="251" height="75" fill="#03FF24"/>
<path d="M70.7601 47.2703C66.2845 47.2703 63.7226 50.5112 63.7226 55.3881C63.7226 60.4193 66.624 63.1664 70.791 63.1664C74.711 63.1664 77.0877 61.0058 77.0877 57.3944V57.3018H70.2663V53.8139H80.7608V66.5H77.4273L77.1803 63.9072C75.9457 65.6357 73.3838 66.8395 70.328 66.8395C64.0004 66.8395 59.5865 62.2404 59.5865 55.2955C59.5865 48.4432 64.0621 43.5663 70.8527 43.5663C76.0074 43.5663 79.9892 46.5603 80.6374 51.1594H76.4704C75.7605 48.5049 73.4764 47.2703 70.7601 47.2703ZM99.9751 66.5H85.9618V43.9367H99.9751V47.5789H89.9127V53.3818H98.9257V56.8697H89.9127V62.8578H99.9751V66.5ZM108.148 66.5H104.259V43.9367H108.179L118.766 59.9255V43.9367H122.655V66.5H118.766L108.148 50.5112V66.5ZM141.663 66.5H127.649V43.9367H141.663V47.5789H131.6V53.3818H140.613V56.8697H131.6V62.8578H141.663V66.5ZM149.897 66.5H145.946V43.9367H154.558C159.682 43.9367 162.676 46.5295 162.676 50.9742C162.676 53.9991 161.256 56.1598 158.601 57.2401L162.892 66.5H158.571L154.743 58.0735H149.897V66.5ZM149.897 47.4555V54.5856H154.558C157.058 54.5856 158.54 53.2583 158.54 50.9742C158.54 48.721 157.058 47.4555 154.558 47.4555H149.897ZM168.569 66.5H164.464L172.612 43.9367H176.656L184.805 66.5H180.638L178.817 61.2836H170.39L168.569 66.5ZM174.125 50.6656L171.563 57.95H177.674L175.082 50.6656C174.896 50.0791 174.68 49.4 174.619 48.937C174.526 49.3692 174.341 50.0482 174.125 50.6656ZM183.639 47.5789V43.9367H200.801V47.5789H194.195V66.5H190.244V47.5789H183.639ZM217.834 66.5H203.821V43.9367H217.834V47.5789H207.772V53.3818H216.785V56.8697H207.772V62.8578H217.834V66.5Z" fill="black"/>
</svg>
