<svg width="265" height="92" viewBox="0 0 265 92" fill="none" xmlns="http://www.w3.org/2000/svg">
<path d="M13.0576 91.0363L264.12 91.0364L260.12 86.0351L9.05664 86.035L13.0576 91.0363Z" fill="#1B8D29"/>
<path d="M260.12 86.0353L260.12 11.0163L264.121 16.0177L264.121 91.0374L260.12 86.0353Z" fill="#29CD3C"/>
<rect x="9.05664" y="11.0164" width="251.063" height="75.0188" fill="#03FF24"/>
<path d="M82.6146 37.4514V60.0204H78.6627V37.4514H82.6146ZM91.4458 60.0204H87.6174V37.4514H91.4458L98.7321 55.4201L106.018 37.4514H109.909V60.0204H106.08V53.0737C106.08 48.5352 106.08 47.2076 106.296 45.6022L100.554 60.0204H96.9105L91.1988 45.6331C91.415 46.9915 91.4458 49.1218 91.4458 51.9314V60.0204ZM123.826 52.2401H118.856V60.0204H114.904V37.4514H123.826C128.365 37.4514 131.298 40.4153 131.298 44.8303C131.298 49.1836 128.334 52.2401 123.826 52.2401ZM123.054 40.9711H118.856V48.7205H122.993C125.71 48.7205 127.161 47.2694 127.161 44.7995C127.161 42.3295 125.679 40.9711 123.054 40.9711ZM155.215 48.7205C155.215 55.5745 150.707 60.3909 144.224 60.3909C137.771 60.3909 133.325 55.6054 133.325 48.7205C133.325 41.8664 137.802 37.0501 144.255 37.0501C150.707 37.0501 155.215 41.8355 155.215 48.7205ZM151.047 48.7205C151.047 43.9041 148.392 40.8476 144.255 40.8476C140.118 40.8476 137.462 43.9041 137.462 48.7205C137.462 53.5368 140.118 56.5934 144.255 56.5934C148.392 56.5934 151.047 53.4751 151.047 48.7205ZM162.845 60.0204H158.893V37.4514H167.507C172.632 37.4514 175.627 40.0448 175.627 44.4907C175.627 47.5164 174.207 49.6776 171.552 50.7582L175.843 60.0204H171.521L167.692 51.5918H162.845V60.0204ZM162.845 40.9711V48.103H167.507C170.008 48.103 171.49 46.7754 171.49 44.4907C171.49 42.2369 170.008 40.9711 167.507 40.9711H162.845ZM177.299 41.0946V37.4514H194.465V41.0946H187.858V60.0204H183.906V41.0946H177.299Z" fill="black"/>
</svg>
