<svg width="231" height="92" viewBox="0 0 231 92" fill="none" xmlns="http://www.w3.org/2000/svg">
<path d="M13.0034 91.0231L230.565 91.0231L217.563 75.0191L9.15757e-05 75.0191L13.0034 91.0231Z" fill="#1B8D29"/>
<path d="M217.563 75.019L217.563 3.87154e-05L230.567 16.0043L230.567 91.0239L217.563 75.019Z" fill="#29CD3C"/>
<path d="M217.563 75.019L217.563 3.87154e-05L230.567 16.0043L230.567 91.0239L217.563 75.019Z" fill="#29CD3C"/>
<path d="M0 0.00012207H217.563V75.0189H0V0.00012207Z" fill="#03FF24"/>
<path d="M56.0411 26.4353V49.0043H52.0893V26.4353H56.0411ZM64.8723 49.0043H61.044V26.4353H64.8723L72.1586 44.404L79.4449 26.4353H83.3351V49.0043H79.5067V42.0576C79.5067 37.5191 79.5067 36.1915 79.7228 34.5861L73.9802 49.0043H70.3371L64.6254 34.6169C64.8415 35.9754 64.8723 38.1057 64.8723 40.9153V49.0043ZM97.2528 41.224H92.282V49.0043H88.3302V26.4353H97.2528C101.791 26.4353 104.724 29.3992 104.724 33.8142C104.724 38.1675 101.76 41.224 97.2528 41.224ZM96.4809 29.9549H92.282V37.7043H96.4192C99.1361 37.7043 100.587 36.2533 100.587 33.7833C100.587 31.3134 99.1052 29.9549 96.4809 29.9549ZM128.642 37.7043C128.642 44.5584 124.134 49.3748 117.65 49.3748C111.198 49.3748 106.752 44.5893 106.752 37.7043C106.752 30.8503 111.229 26.0339 117.681 26.0339C124.134 26.0339 128.642 30.8194 128.642 37.7043ZM124.474 37.7043C124.474 32.888 121.818 29.8315 117.681 29.8315C113.544 29.8315 110.889 32.888 110.889 37.7043C110.889 42.5207 113.544 45.5772 117.681 45.5772C121.818 45.5772 124.474 42.459 124.474 37.7043ZM136.272 49.0043H132.32V26.4353H140.934C146.059 26.4353 149.053 29.0287 149.053 33.4746C149.053 36.5003 147.633 38.6614 144.978 39.742L149.27 49.0043H144.947L141.119 40.5756H136.272V49.0043ZM136.272 29.9549V37.0869H140.934C143.434 37.0869 144.916 35.7593 144.916 33.4746C144.916 31.2208 143.434 29.9549 140.934 29.9549H136.272ZM150.726 30.0784V26.4353H167.892V30.0784H161.284V49.0043H157.333V30.0784H150.726Z" fill="black"/>
</svg>
