<svg width="265" height="92" viewBox="0 0 265 92" fill="none" xmlns="http://www.w3.org/2000/svg">
<path d="M13.1116 91.0228L264.174 91.0229L260.174 86.0216L9.1106 86.0215L13.1116 91.0228Z" fill="#1B8D29"/>
<path d="M260.173 86.0217L260.173 11.0028L264.174 16.0041L264.174 91.0238L260.173 86.0217Z" fill="#29CD3C"/>
<rect x="9.1106" y="11.0028" width="251.063" height="75.0188" fill="#03FF24"/>
<path d="M53.9102 37.4379V60.0068H49.9584V37.4379H53.9102ZM62.7414 60.0068H58.9131V37.4379H62.7414L70.0277 55.4066L77.314 37.4379H81.2042V60.0068H77.3758V53.0602C77.3758 48.5217 77.3758 47.1941 77.5919 45.5886L71.8493 60.0068H68.2062L62.4945 45.6195C62.7106 46.978 62.7414 49.1083 62.7414 51.9178V60.0068ZM95.1219 52.2266H90.1511V60.0068H86.1993V37.4379H95.1219C99.6604 37.4379 102.593 40.4018 102.593 44.8168C102.593 49.17 99.6295 52.2266 95.1219 52.2266ZM94.35 40.9575H90.1511V48.7069H94.2883C97.0052 48.7069 98.4563 47.2558 98.4563 44.7859C98.4563 42.316 96.9743 40.9575 94.35 40.9575ZM126.511 48.7069C126.511 55.561 122.003 60.3773 115.52 60.3773C109.067 60.3773 104.621 55.5918 104.621 48.7069C104.621 41.8529 109.098 37.0365 115.55 37.0365C122.003 37.0365 126.511 41.822 126.511 48.7069ZM122.343 48.7069C122.343 43.8906 119.688 40.834 115.55 40.834C111.413 40.834 108.758 43.8906 108.758 48.7069C108.758 53.5233 111.413 56.5798 115.55 56.5798C119.688 56.5798 122.343 53.4615 122.343 48.7069ZM134.141 60.0068H130.189V37.4379H138.803C143.928 37.4379 146.923 40.0313 146.923 44.4772C146.923 47.5028 145.502 49.664 142.847 50.7446L147.139 60.0068H142.816L138.988 51.5782H134.141V60.0068ZM134.141 40.9575V48.0894H138.803C141.303 48.0894 142.785 46.7618 142.785 44.4772C142.785 42.2234 141.303 40.9575 138.803 40.9575H134.141ZM148.595 41.081V37.4379H165.761V41.081H159.154V60.0068H155.202V41.081H148.595ZM172.733 37.4379V60.0068H168.781V37.4379H172.733ZM181.626 60.0068H177.736V37.4379H181.657L192.247 53.4307V37.4379H196.137V60.0068H192.247L181.626 44.014V60.0068ZM211.013 40.7723C206.536 40.7723 203.973 44.014 203.973 48.8922C203.973 53.9246 206.876 56.6724 211.044 56.6724C214.965 56.6724 217.342 54.5112 217.342 50.899V50.8064H210.519V47.3176H221.016V60.0068H217.681L217.434 57.4134C216.2 59.1424 213.637 60.3465 210.58 60.3465C204.251 60.3465 199.836 55.7462 199.836 48.7995C199.836 41.9455 204.313 37.0674 211.105 37.0674C216.261 37.0674 220.244 40.0622 220.892 44.6624H216.724C216.014 42.0072 213.73 40.7723 211.013 40.7723Z" fill="black"/>
</svg>
