<svg width="277" height="108" viewBox="0 0 277 108" fill="none" xmlns="http://www.w3.org/2000/svg">
<path d="M26 107.5L276.999 107.5L273 102.5L22 102.5L26 107.5Z" fill="#1B8D29"/>
<path d="M273 102.5L273 27.5L277 32.5001L277 107.501L273 102.5Z" fill="#29CD3C"/>
<rect x="22" y="27.5" width="251" height="75" fill="#03FF24"/>
<path d="M66.8105 53.9367V76.5H62.8596V53.9367H66.8105ZM75.6395 76.5H71.812V53.9367H75.6395L82.9239 71.9009L90.2084 53.9367H94.0976V76.5H90.2701V69.5551C90.2701 65.0177 90.2701 63.6905 90.4862 62.0854L84.7451 76.5H81.1028L75.3925 62.1163C75.6086 63.4744 75.6395 65.6042 75.6395 68.413V76.5ZM108.012 68.7217H103.042V76.5H99.0914V53.9367H108.012C112.549 53.9367 115.481 56.8999 115.481 61.3137C115.481 65.6659 112.518 68.7217 108.012 68.7217ZM107.24 57.4555H103.042V65.2029H107.178C109.895 65.2029 111.345 63.7522 111.345 61.2829C111.345 58.8136 109.864 57.4555 107.24 57.4555ZM139.393 65.2029C139.393 72.0552 134.886 76.8704 128.404 76.8704C121.953 76.8704 117.508 72.0861 117.508 65.2029C117.508 58.3506 121.984 53.5354 128.435 53.5354C134.886 53.5354 139.393 58.3197 139.393 65.2029ZM135.226 65.2029C135.226 60.3878 132.571 57.332 128.435 57.332C124.299 57.332 121.645 60.3878 121.645 65.2029C121.645 70.0181 124.299 73.0738 128.435 73.0738C132.571 73.0738 135.226 69.9563 135.226 65.2029ZM147.021 76.5H143.07V53.9367H151.682C156.805 53.9367 159.8 56.5295 159.8 60.9742C159.8 63.9991 158.38 66.1598 155.725 67.2401L160.016 76.5H155.694L151.867 68.0735H147.021V76.5ZM147.021 57.4555V64.5856H151.682C154.182 64.5856 155.663 63.2583 155.663 60.9742C155.663 58.721 154.182 57.4555 151.682 57.4555H147.021ZM161.471 57.5789V53.9367H178.633V57.5789H172.027V76.5H168.077V57.5789H161.471ZM185.604 53.9367V76.5H181.653V53.9367H185.604ZM194.495 76.5H190.605V53.9367H194.525L205.113 69.9255V53.9367H209.002V76.5H205.113L194.495 60.5112V76.5ZM223.873 57.2703C219.398 57.2703 216.836 60.5112 216.836 65.3881C216.836 70.4193 219.737 73.1664 223.904 73.1664C227.824 73.1664 230.201 71.0058 230.201 67.3944V67.3018H223.38V63.8139H233.874V76.5H230.541L230.294 73.9072C229.059 75.6357 226.497 76.8395 223.441 76.8395C217.114 76.8395 212.7 72.2404 212.7 65.2955C212.7 58.4432 217.175 53.5663 223.966 53.5663C229.121 53.5663 233.103 56.5603 233.751 61.1594H229.584C228.874 58.5049 226.59 57.2703 223.873 57.2703Z" fill="black"/>
</svg>
