<svg width="277" height="108" viewBox="0 0 277 108" fill="none" xmlns="http://www.w3.org/2000/svg">
<path d="M26 107.5L276.999 107.5L273 102.5L22 102.5L26 107.5Z" fill="#1B8D29"/>
<path d="M273 102.5L273 27.5L277 32.5001L277 107.501L273 102.5Z" fill="#29CD3C"/>
<rect x="24.5722" y="30.0722" width="245.856" height="69.8556" fill="#08F31A" stroke="#08F31B" stroke-width="5.14439"/>
<path d="M95.5544 53.9367V76.5H91.6035V53.9367H95.5544ZM104.383 76.5H100.556V53.9367H104.383L111.668 71.9009L118.952 53.9367H122.841V76.5H119.014V69.5551C119.014 65.0177 119.014 63.6905 119.23 62.0854L113.489 76.5H109.847L104.136 62.1163C104.353 63.4744 104.383 65.6042 104.383 68.413V76.5ZM136.756 68.7217H131.786V76.5H127.835V53.9367H136.756C141.293 53.9367 144.225 56.8999 144.225 61.3137C144.225 65.6659 141.262 68.7217 136.756 68.7217ZM135.984 57.4555H131.786V65.2029H135.922C138.639 65.2029 140.089 63.7522 140.089 61.2829C140.089 58.8136 138.608 57.4555 135.984 57.4555ZM168.137 65.2029C168.137 72.0552 163.63 76.8704 157.148 76.8704C150.697 76.8704 146.252 72.0861 146.252 65.2029C146.252 58.3506 150.728 53.5354 157.179 53.5354C163.63 53.5354 168.137 58.3197 168.137 65.2029ZM163.97 65.2029C163.97 60.3878 161.315 57.332 157.179 57.332C153.043 57.332 150.389 60.3878 150.389 65.2029C150.389 70.0181 153.043 73.0738 157.179 73.0738C161.315 73.0738 163.97 69.9563 163.97 65.2029ZM175.765 76.5H171.814V53.9367H180.426C185.549 53.9367 188.543 56.5295 188.543 60.9742C188.543 63.9991 187.124 66.1598 184.469 67.2401L188.76 76.5H184.438L180.611 68.0735H175.765V76.5ZM175.765 57.4555V64.5856H180.426C182.926 64.5856 184.407 63.2583 184.407 60.9742C184.407 58.721 182.926 57.4555 180.426 57.4555H175.765ZM190.215 57.5789V53.9367H207.377V57.5789H200.771V76.5H196.82V57.5789H190.215Z" fill="#0D0D0D"/>
</svg>
