<svg width="234" height="92" viewBox="0 0 234 92" fill="none" xmlns="http://www.w3.org/2000/svg">
<path d="M16.0012 91.0229L233.566 91.0229L229.566 86.0216L12.0002 86.0215L16.0012 91.0229Z" fill="#1B8D29"/>
<path d="M229.566 86.0218L229.566 11.0028L233.567 16.0042L233.567 91.0239L229.566 86.0218Z" fill="#29CD3C"/>
<path d="M12.0002 11.0028H229.566V86.0216H12.0002V11.0028Z" fill="#03FF24"/>
<path d="M39.2904 37.4379V60.0068H35.3385V37.4379H39.2904ZM48.1216 60.0068H44.2932V37.4379H48.1216L55.4079 55.4066L62.6942 37.4379H66.5843V60.0068H62.7559V53.0602C62.7559 48.5217 62.7559 47.1941 62.972 45.5886L57.2294 60.0068H53.5863L47.8746 45.6195C48.0907 46.978 48.1216 49.1083 48.1216 51.9178V60.0068ZM80.502 52.2266H75.5313V60.0068H71.5794V37.4379H80.502C85.0405 37.4379 87.9735 40.4018 87.9735 44.8168C87.9735 49.17 85.0096 52.2266 80.502 52.2266ZM79.7301 40.9575H75.5313V48.7069H79.6684C82.3853 48.7069 83.8364 47.2558 83.8364 44.7859C83.8364 42.316 82.3544 40.9575 79.7301 40.9575ZM111.891 48.7069C111.891 55.561 107.383 60.3773 100.9 60.3773C94.447 60.3773 90.0011 55.5918 90.0011 48.7069C90.0011 41.8529 94.4778 37.0365 100.931 37.0365C107.383 37.0365 111.891 41.822 111.891 48.7069ZM107.723 48.7069C107.723 43.8906 105.068 40.834 100.931 40.834C96.7934 40.834 94.1382 43.8906 94.1382 48.7069C94.1382 53.5233 96.7934 56.5798 100.931 56.5798C105.068 56.5798 107.723 53.4615 107.723 48.7069ZM119.521 60.0068H115.569V37.4379H124.183C129.308 37.4379 132.303 40.0313 132.303 44.4772C132.303 47.5028 130.883 49.664 128.227 50.7446L132.519 60.0068H128.196L124.368 51.5782H119.521V60.0068ZM119.521 40.9575V48.0894H124.183C126.684 48.0894 128.166 46.7618 128.166 44.4772C128.166 42.2234 126.684 40.9575 124.183 40.9575H119.521ZM133.975 41.081V37.4379H151.141V41.081H144.534V60.0068H140.582V41.081H133.975ZM158.113 37.4379V60.0068H154.162V37.4379H158.113ZM167.006 60.0068H163.116V37.4379H167.037L177.627 53.4307V37.4379H181.517V60.0068H177.627L167.006 44.014V60.0068ZM196.393 40.7723C191.916 40.7723 189.353 44.014 189.353 48.8922C189.353 53.9246 192.256 56.6724 196.424 56.6724C200.345 56.6724 202.722 54.5112 202.722 50.899V50.8064H195.899V47.3176H206.396V60.0068H203.062L202.815 57.4134C201.58 59.1424 199.017 60.3465 195.961 60.3465C189.631 60.3465 185.216 55.7462 185.216 48.7995C185.216 41.9455 189.693 37.0674 196.485 37.0674C201.641 37.0674 205.624 40.0622 206.272 44.6624H202.104C201.394 42.0072 199.11 40.7723 196.393 40.7723Z" fill="black"/>
</svg>
