<svg width="265" height="92" viewBox="0 0 265 92" fill="none" xmlns="http://www.w3.org/2000/svg">
<path d="M13.0033 91.0229L264.066 91.023L251.063 75.019L0 75.0189L13.0033 91.0229Z" fill="#1B8D29"/>
<path d="M251.063 75.0189L251.063 -8.33549e-05L264.067 16.0041L264.067 91.0238L251.063 75.0189Z" fill="#29CD3C"/>
<path d="M251.063 75.0189L251.063 -8.33549e-05L264.067 16.0041L264.067 91.0238L251.063 75.0189Z" fill="#29CD3C"/>
<rect y="0.00012207" width="251.063" height="75.0188" fill="#03FF24"/>
<path d="M73.558 26.4352V49.0042H69.6061V26.4352H73.558ZM82.3892 49.0042H78.5608V26.4352H82.3892L89.6755 44.4039L96.9618 26.4352H100.852V49.0042H97.0235V42.0575C97.0235 37.519 97.0235 36.1914 97.2396 34.5859L91.4971 49.0042H87.8539L82.1422 34.6168C82.3583 35.9753 82.3892 38.1056 82.3892 40.9151V49.0042ZM114.77 41.2239H109.799V49.0042H105.847V26.4352H114.77C119.308 26.4352 122.241 29.3991 122.241 33.8141C122.241 38.1673 119.277 41.2239 114.77 41.2239ZM113.998 29.9548H109.799V37.7042H113.936C116.653 37.7042 118.104 36.2531 118.104 33.7832C118.104 31.3133 116.622 29.9548 113.998 29.9548ZM146.158 37.7042C146.158 44.5583 141.651 49.3746 135.167 49.3746C128.715 49.3746 124.269 44.5892 124.269 37.7042C124.269 30.8502 128.745 26.0338 135.198 26.0338C141.651 26.0338 146.158 30.8193 146.158 37.7042ZM141.99 37.7042C141.99 32.8879 139.335 29.8313 135.198 29.8313C131.061 29.8313 128.406 32.8879 128.406 37.7042C128.406 42.5206 131.061 45.5771 135.198 45.5771C139.335 45.5771 141.99 42.4588 141.99 37.7042ZM153.788 49.0042H149.837V26.4352H158.45C163.576 26.4352 166.57 29.0286 166.57 33.4745C166.57 36.5001 165.15 38.6613 162.495 39.7419L166.786 49.0042H162.464L158.636 40.5755H153.788V49.0042ZM153.788 29.9548V37.0867H158.45C160.951 37.0867 162.433 35.7592 162.433 33.4745C162.433 31.2207 160.951 29.9548 158.45 29.9548H153.788ZM168.242 30.0783V26.4352H185.408V30.0783H178.801V49.0042H174.849V30.0783H168.242Z" fill="black"/>
</svg>
