<svg width="277" height="108" viewBox="0 0 277 108" fill="none" xmlns="http://www.w3.org/2000/svg">
<path d="M26 107.5L276.999 107.5L264 91.5001L13 91.5L26 107.5Z" fill="#1B8D29"/>
<path d="M264 91.4999L264 16.4998L277 32.5L277 107.501L264 91.4999Z" fill="#29CD3C"/>
<path d="M264 91.4999L264 16.4998L277 32.5L277 107.501L264 91.4999Z" fill="#29CD3C"/>
<rect x="13" y="16.4999" width="251" height="75" fill="#03FF24"/>
<path d="M86.5544 42.9367V65.5H82.6035V42.9367H86.5544ZM95.3834 65.5H91.556V42.9367H95.3834L102.668 60.9009L109.952 42.9367H113.841V65.5H110.014V58.5551C110.014 54.0177 110.014 52.6905 110.23 51.0854L104.489 65.5H100.847L95.1365 51.1163C95.3525 52.4744 95.3834 54.6042 95.3834 57.413V65.5ZM127.756 57.7217H122.786V65.5H118.835V42.9367H127.756C132.293 42.9367 135.225 45.8999 135.225 50.3137C135.225 54.6659 132.262 57.7217 127.756 57.7217ZM126.984 46.4555H122.786V54.2029H126.922C129.639 54.2029 131.089 52.7522 131.089 50.2829C131.089 47.8136 129.608 46.4555 126.984 46.4555ZM159.137 54.2029C159.137 61.0552 154.63 65.8704 148.148 65.8704C141.697 65.8704 137.252 61.0861 137.252 54.2029C137.252 47.3506 141.728 42.5354 148.179 42.5354C154.63 42.5354 159.137 47.3197 159.137 54.2029ZM154.97 54.2029C154.97 49.3878 152.315 46.332 148.179 46.332C144.043 46.332 141.389 49.3878 141.389 54.2029C141.389 59.0181 144.043 62.0738 148.179 62.0738C152.315 62.0738 154.97 58.9563 154.97 54.2029ZM166.765 65.5H162.814V42.9367H171.426C176.549 42.9367 179.543 45.5295 179.543 49.9742C179.543 52.9991 178.124 55.1598 175.469 56.2401L179.76 65.5H175.438L171.611 57.0735H166.765V65.5ZM166.765 46.4555V53.5856H171.426C173.926 53.5856 175.407 52.2583 175.407 49.9742C175.407 47.721 173.926 46.4555 171.426 46.4555H166.765ZM181.215 46.5789V42.9367H198.377V46.5789H191.771V65.5H187.82V46.5789H181.215Z" fill="black"/>
</svg>
