<svg width="277" height="108" viewBox="0 0 277 108" fill="none" xmlns="http://www.w3.org/2000/svg">
<path d="M26.0001 107.5L276.999 107.5L264 91.5001L13.0001 91.5L26.0001 107.5Z" fill="#1B8D29"/>
<path d="M264 91.4999L264 16.4998L277 32.5L277 107.501L264 91.4999Z" fill="#29CD3C"/>
<path d="M264 91.4999L264 16.4998L277 32.5L277 107.501L264 91.4999Z" fill="#29CD3C"/>
<rect x="15.5722" y="19.0721" width="245.856" height="69.8556" fill="#03FF24" stroke="#08F31B" stroke-width="5.14439"/>
<path d="M57.8105 42.9367V65.5H53.8596V42.9367H57.8105ZM66.6395 65.5H62.812V42.9367H66.6395L73.9239 60.9009L81.2084 42.9367H85.0976V65.5H81.2701V58.5551C81.2701 54.0177 81.2701 52.6905 81.4862 51.0854L75.7451 65.5H72.1028L66.3925 51.1163C66.6086 52.4744 66.6395 54.6042 66.6395 57.413V65.5ZM99.0118 57.7217H94.0423V65.5H90.0914V42.9367H99.0118C103.549 42.9367 106.481 45.8999 106.481 50.3137C106.481 54.6659 103.518 57.7217 99.0118 57.7217ZM98.2401 46.4555H94.0423V54.2029H98.1784C100.895 54.2029 102.345 52.7522 102.345 50.2829C102.345 47.8136 100.864 46.4555 98.2401 46.4555ZM130.393 54.2029C130.393 61.0552 125.886 65.8704 119.404 65.8704C112.953 65.8704 108.508 61.0861 108.508 54.2029C108.508 47.3506 112.984 42.5354 119.435 42.5354C125.886 42.5354 130.393 47.3197 130.393 54.2029ZM126.226 54.2029C126.226 49.3878 123.571 46.332 119.435 46.332C115.299 46.332 112.645 49.3878 112.645 54.2029C112.645 59.0181 115.299 62.0738 119.435 62.0738C123.571 62.0738 126.226 58.9563 126.226 54.2029ZM138.021 65.5H134.07V42.9367H142.682C147.805 42.9367 150.8 45.5295 150.8 49.9742C150.8 52.9991 149.38 55.1598 146.725 56.2401L151.016 65.5H146.694L142.867 57.0735H138.021V65.5ZM138.021 46.4555V53.5856H142.682C145.182 53.5856 146.663 52.2583 146.663 49.9742C146.663 47.721 145.182 46.4555 142.682 46.4555H138.021ZM152.471 46.5789V42.9367H169.633V46.5789H163.027V65.5H159.077V46.5789H152.471ZM176.604 42.9367V65.5H172.653V42.9367H176.604ZM185.495 65.5H181.605V42.9367H185.525L196.113 58.9255V42.9367H200.002V65.5H196.113L185.495 49.5112V65.5ZM214.873 46.2703C210.398 46.2703 207.836 49.5112 207.836 54.3881C207.836 59.4193 210.737 62.1664 214.904 62.1664C218.824 62.1664 221.201 60.0058 221.201 56.3944V56.3018H214.38V52.8139H224.874V65.5H221.541L221.294 62.9072C220.059 64.6357 217.497 65.8395 214.441 65.8395C208.114 65.8395 203.7 61.2404 203.7 54.2955C203.7 47.4432 208.175 42.5663 214.966 42.5663C220.121 42.5663 224.103 45.5603 224.751 50.1594H220.584C219.874 47.5049 217.59 46.2703 214.873 46.2703Z" fill="#0D0D0D"/>
</svg>
