<svg width="413" height="142" viewBox="0 0 413 142" fill="none" xmlns="http://www.w3.org/2000/svg">
<path d="M20.981 141.998H412.981L406.981 134H13.981L20.981 141.998Z" fill="#1B8D29"/>
<path d="M406.981 134.047L406.981 17.0001L412.981 25.0001V142L406.981 134.047Z" fill="#29CD3C"/>
<path d="M14 17H407V134H14V17Z" fill="#03FF24"/>
<path d="M44.7041 60.2091H55.7637V87.1866H73.0244V96.0001H44.7041V60.2091ZM100.075 90.0919H87.4775L85.7441 96.0001H74.4404L87.8926 60.2091H99.9531L113.405 96.0001H101.833L100.075 90.0919ZM97.7559 82.3527L93.8008 69.4865L89.8701 82.3527H97.7559ZM140.261 60.2091H151.296V81.547C151.296 83.6629 150.962 85.6648 150.295 87.5529C149.644 89.4246 148.61 91.0685 147.194 92.4845C145.795 93.8842 144.322 94.8689 142.775 95.4386C140.627 96.2361 138.047 96.6349 135.036 96.6349C133.295 96.6349 131.39 96.5128 129.323 96.2687C127.272 96.0245 125.555 95.5444 124.172 94.8282C122.788 94.0958 121.519 93.0623 120.363 91.7277C119.224 90.393 118.443 89.0177 118.02 87.6017C117.336 85.323 116.994 83.3048 116.994 81.547V60.2091H128.029V82.0597C128.029 84.0128 128.566 85.5428 129.641 86.6495C130.731 87.74 132.237 88.2853 134.157 88.2853C136.062 88.2853 137.551 87.7482 138.625 86.674C139.715 85.5835 140.261 84.0454 140.261 82.0597V60.2091ZM158.693 60.2091H169.021L182.497 80.0089V60.2091H192.922V96.0001H182.497L169.094 76.3468V96.0001H158.693V60.2091ZM224.099 81.3761L233.791 84.3058C233.14 87.0239 232.115 89.2944 230.715 91.1173C229.315 92.9402 227.574 94.3156 225.49 95.2433C223.423 96.171 220.786 96.6349 217.58 96.6349C213.69 96.6349 210.508 96.0734 208.034 94.9503C205.576 93.811 203.452 91.8172 201.662 88.9689C199.872 86.1206 198.977 82.4747 198.977 78.0314C198.977 72.1069 200.547 67.5577 203.688 64.3839C206.846 61.1938 211.306 59.5988 217.067 59.5988C221.576 59.5988 225.116 60.5102 227.688 62.3331C230.275 64.156 232.196 66.9555 233.449 70.7316L223.684 72.9044C223.342 71.8139 222.984 71.0164 222.609 70.5118C221.991 69.6655 221.234 69.0144 220.339 68.5587C219.444 68.103 218.443 67.8751 217.336 67.8751C214.829 67.8751 212.909 68.8842 211.574 70.9025C210.565 72.3999 210.061 74.7517 210.061 77.9581C210.061 81.9295 210.663 84.6557 211.867 86.1368C213.072 87.6017 214.764 88.3341 216.945 88.3341C219.061 88.3341 220.656 87.74 221.73 86.5519C222.821 85.3637 223.61 83.6385 224.099 81.3761ZM239.235 60.2091H250.295V72.7335H262.38V60.2091H273.488V96.0001H262.38V81.5226H250.295V96.0001H239.235V60.2091ZM281.276 60.2091H292.36V96.0001H281.276V60.2091ZM300.393 60.2091H310.72L324.196 80.0089V60.2091H334.621V96.0001H324.196L310.793 76.3468V96.0001H300.393V60.2091ZM359.963 83.0363V75.59H377.053V90.8488C373.781 93.0786 370.884 94.6004 368.361 95.4142C365.855 96.2117 362.876 96.6105 359.426 96.6105C355.178 96.6105 351.711 95.8862 349.025 94.4376C346.356 92.9891 344.281 90.8325 342.8 87.9679C341.335 85.1033 340.603 81.8156 340.603 78.1046C340.603 74.1984 341.408 70.8048 343.02 67.924C344.631 65.0268 346.991 62.8295 350.1 61.3322C352.525 60.1766 355.788 59.5988 359.89 59.5988C363.845 59.5988 366.799 59.9568 368.752 60.673C370.721 61.3891 372.349 62.504 373.635 64.0177C374.937 65.5151 375.913 67.4194 376.564 69.7306L365.896 71.6349C365.456 70.284 364.707 69.2504 363.649 68.5343C362.608 67.8182 361.273 67.4601 359.646 67.4601C357.22 67.4601 355.284 68.3064 353.835 69.9991C352.403 71.6756 351.687 74.3367 351.687 77.9825C351.687 81.8562 352.411 84.6232 353.859 86.2833C355.324 87.9435 357.359 88.7736 359.963 88.7736C361.2 88.7736 362.38 88.5945 363.503 88.2365C364.626 87.8784 365.912 87.268 367.36 86.4054V83.0363H359.963Z" fill="black"/>
</svg>
