<svg width="433" height="168" viewBox="0 0 433 168" fill="none" xmlns="http://www.w3.org/2000/svg">
<path d="M41.0005 167.998H433.001L427.001 160H34.0005L41.0005 167.998Z" fill="#1B8D29"/>
<path d="M427 160.047L427 43.0001L433 51.0001V168L427 160.047Z" fill="#29CD3C"/>
<path d="M34.0005 42.9764H427.001V160H34.0005V42.9764Z" fill="#03FF24"/>
<path d="M82.986 81.6944H97.2947V116.597H119.626V128H82.986V81.6944ZM154.624 120.356H138.325L136.083 128H121.458L138.862 81.6944H154.466L171.87 128H156.898L154.624 120.356ZM151.623 110.343L146.506 93.6973L141.421 110.343H151.623ZM206.615 81.6944H220.892V109.301C220.892 112.038 220.461 114.629 219.597 117.071C218.755 119.493 217.418 121.62 215.586 123.452C213.775 125.263 211.869 126.537 209.869 127.274C207.089 128.305 203.751 128.821 199.856 128.821C197.603 128.821 195.139 128.663 192.465 128.348C189.811 128.032 187.59 127.411 185.8 126.484C184.01 125.536 182.367 124.199 180.872 122.472C179.398 120.746 178.388 118.966 177.84 117.134C176.956 114.186 176.513 111.575 176.513 109.301V81.6944H190.79V109.964C190.79 112.491 191.485 114.471 192.875 115.903C194.286 117.313 196.234 118.019 198.719 118.019C201.182 118.019 203.109 117.324 204.499 115.934C205.91 114.523 206.615 112.533 206.615 109.964V81.6944ZM230.463 81.6944H243.824L261.26 107.311V81.6944H274.747V128H261.26L243.919 102.573V128H230.463V81.6944ZM315.083 109.08L327.623 112.87C326.781 116.387 325.454 119.324 323.643 121.683C321.832 124.041 319.579 125.821 316.883 127.021C314.209 128.221 310.798 128.821 306.649 128.821C301.617 128.821 297.5 128.095 294.299 126.642C291.119 125.168 288.371 122.588 286.055 118.903C283.739 115.218 282.581 110.501 282.581 104.753C282.581 97.0875 284.613 91.2019 288.677 87.0957C292.762 82.9684 298.532 80.9048 305.986 80.9048C311.819 80.9048 316.399 82.084 319.726 84.4424C323.074 86.8009 325.559 90.4228 327.181 95.3082L314.546 98.1194C314.104 96.7085 313.641 95.6767 313.156 95.0239C312.356 93.9289 311.377 93.0866 310.219 92.497C309.061 91.9074 307.766 91.6126 306.334 91.6126C303.091 91.6126 300.606 92.9181 298.879 95.5293C297.574 97.4666 296.921 100.509 296.921 104.658C296.921 109.796 297.7 113.323 299.258 115.239C300.817 117.134 303.007 118.082 305.828 118.082C308.566 118.082 310.629 117.313 312.019 115.776C313.43 114.239 314.451 112.007 315.083 109.08ZM334.667 81.6944H348.975V97.8983H364.611V81.6944H378.982V128H364.611V109.269H348.975V128H334.667V81.6944Z" fill="black"/>
</svg>
