<svg width="413" height="142" viewBox="0 0 413 142" fill="none" xmlns="http://www.w3.org/2000/svg">
<path d="M20 141.999L413 141.999L393 116.994H0L20 141.999Z" fill="#1B8D29"/>
<path d="M393 117L393 0.000122945L413 25.0001V142L393 117Z" fill="#29CD3C"/>
<path d="M0.00012207 0.00012207H393V116.994H0L0.00012207 0.00012207Z" fill="#03FF24"/>
<path d="M47.986 36.6944H62.2947V71.5974H84.6263V83.0001H47.986V36.6944ZM119.624 75.3562H103.325L101.083 83.0001H86.4583L103.862 36.6944H119.466L136.87 83.0001H121.898L119.624 75.3562ZM116.623 65.3433L111.506 48.6973L106.421 65.3433H116.623ZM171.615 36.6944H185.892V64.301C185.892 67.0384 185.461 69.6285 184.597 72.0712C183.755 74.4928 182.418 76.6197 180.586 78.4517C178.775 80.2626 176.869 81.5366 174.869 82.2736C172.089 83.3055 168.751 83.8214 164.856 83.8214C162.603 83.8214 160.139 83.6634 157.465 83.3476C154.811 83.0317 152.59 82.4105 150.8 81.484C149.01 80.5364 147.367 79.1992 145.872 77.4725C144.398 75.7458 143.388 73.9664 142.84 72.1344C141.956 69.1863 141.513 66.5752 141.513 64.301V36.6944H155.79V64.9643C155.79 67.4912 156.485 69.4706 157.875 70.9025C159.286 72.3134 161.234 73.0188 163.719 73.0188C166.182 73.0188 168.109 72.3239 169.499 70.9341C170.91 69.5232 171.615 67.5333 171.615 64.9643V36.6944ZM195.463 36.6944H208.824L226.26 62.311V36.6944H239.747V83.0001H226.26L208.919 57.5731V83.0001H195.463V36.6944ZM280.083 64.0799L292.623 67.8702C291.781 71.3868 290.454 74.3244 288.643 76.6828C286.832 79.0413 284.579 80.8207 281.883 82.0209C279.209 83.2212 275.798 83.8214 271.649 83.8214C266.617 83.8214 262.5 83.0949 259.299 81.6419C256.119 80.1679 253.371 77.5883 251.055 73.9032C248.739 70.2181 247.581 65.5012 247.581 59.7525C247.581 52.0875 249.613 46.2019 253.677 42.0957C257.762 37.9684 263.532 35.9048 270.986 35.9048C276.819 35.9048 281.399 37.084 284.726 39.4424C288.074 41.8009 290.559 45.4228 292.181 50.3082L279.546 53.1194C279.104 51.7085 278.641 50.6767 278.156 50.0239C277.356 48.9289 276.377 48.0866 275.219 47.497C274.061 46.9074 272.766 46.6126 271.334 46.6126C268.091 46.6126 265.606 47.9181 263.879 50.5293C262.574 52.4666 261.921 55.5094 261.921 59.6578C261.921 64.7958 262.7 68.323 264.258 70.2392C265.817 72.1344 268.007 73.082 270.828 73.082C273.566 73.082 275.629 72.3134 277.019 70.7762C278.43 69.239 279.451 67.0069 280.083 64.0799ZM299.667 36.6944H313.975V52.8983H329.611V36.6944H343.982V83.0001H329.611V64.2694H313.975V83.0001H299.667V36.6944Z" fill="black"/>
</svg>
