<svg width="433" height="168" viewBox="0 0 433 168" fill="none" xmlns="http://www.w3.org/2000/svg">
<path d="M40.6321 167.998L432.888 167.998L412.573 142.994L20.316 142.994L40.6321 167.998Z" fill="#1B8D29"/>
<path d="M412.573 142.994L412.573 25.7856L432.889 50.7903L432.889 168L412.573 142.994Z" fill="#29CD3C"/>
<path d="M412.573 142.994L412.573 25.7856L432.889 50.7903L432.889 168L412.573 142.994Z" fill="#29CD3C"/>
<rect x="22.8882" y="28.3578" width="387.112" height="112.064" fill="#08F31A" stroke="#08F31B" stroke-width="5.14439"/>
<path d="M56.8359 68.6406H67.4531V94.5391H84.0234V103H56.8359V68.6406ZM109.992 97.3281H97.8984L96.2344 103H85.3828L98.2969 68.6406H109.875L122.789 103H111.68L109.992 97.3281ZM107.766 89.8984L103.969 77.5469L100.195 89.8984H107.766ZM148.57 68.6406H159.164V89.125C159.164 91.1562 158.844 93.0781 158.203 94.8906C157.578 96.6875 156.586 98.2656 155.227 99.625C153.883 100.969 152.469 101.914 150.984 102.461C148.922 103.227 146.445 103.609 143.555 103.609C141.883 103.609 140.055 103.492 138.07 103.258C136.102 103.023 134.453 102.562 133.125 101.875C131.797 101.172 130.578 100.18 129.469 98.8984C128.375 97.6172 127.625 96.2969 127.219 94.9375C126.562 92.75 126.234 90.8125 126.234 89.125V68.6406H136.828V89.6172C136.828 91.4922 137.344 92.9609 138.375 94.0234C139.422 95.0703 140.867 95.5938 142.711 95.5938C144.539 95.5938 145.969 95.0781 147 94.0469C148.047 93 148.57 91.5234 148.57 89.6172V68.6406ZM166.266 68.6406H176.18L189.117 87.6484V68.6406H199.125V103H189.117L176.25 84.1328V103H166.266V68.6406ZM229.055 88.9609L238.359 91.7734C237.734 94.3828 236.75 96.5625 235.406 98.3125C234.062 100.062 232.391 101.383 230.391 102.273C228.406 103.164 225.875 103.609 222.797 103.609C219.062 103.609 216.008 103.07 213.633 101.992C211.273 100.898 209.234 98.9844 207.516 96.25C205.797 93.5156 204.938 90.0156 204.938 85.75C204.938 80.0625 206.445 75.6953 209.461 72.6484C212.492 69.5859 216.773 68.0547 222.305 68.0547C226.633 68.0547 230.031 68.9297 232.5 70.6797C234.984 72.4297 236.828 75.1172 238.031 78.7422L228.656 80.8281C228.328 79.7812 227.984 79.0156 227.625 78.5312C227.031 77.7188 226.305 77.0938 225.445 76.6562C224.586 76.2188 223.625 76 222.562 76C220.156 76 218.312 76.9688 217.031 78.9062C216.062 80.3438 215.578 82.6016 215.578 85.6797C215.578 89.4922 216.156 92.1094 217.312 93.5312C218.469 94.9375 220.094 95.6406 222.188 95.6406C224.219 95.6406 225.75 95.0703 226.781 93.9297C227.828 92.7891 228.586 91.1328 229.055 88.9609ZM243.586 68.6406H254.203V80.6641H265.805V68.6406H276.469V103H265.805V89.1016H254.203V103H243.586V68.6406ZM283.945 68.6406H294.586V103H283.945V68.6406ZM302.297 68.6406H312.211L325.148 87.6484V68.6406H335.156V103H325.148L312.281 84.1328V103H302.297V68.6406ZM359.484 90.5547V83.4062H375.891V98.0547C372.75 100.195 369.969 101.656 367.547 102.438C365.141 103.203 362.281 103.586 358.969 103.586C354.891 103.586 351.562 102.891 348.984 101.5C346.422 100.109 344.43 98.0391 343.008 95.2891C341.602 92.5391 340.898 89.3828 340.898 85.8203C340.898 82.0703 341.672 78.8125 343.219 76.0469C344.766 73.2656 347.031 71.1562 350.016 69.7188C352.344 68.6094 355.477 68.0547 359.414 68.0547C363.211 68.0547 366.047 68.3984 367.922 69.0859C369.812 69.7734 371.375 70.8438 372.609 72.2969C373.859 73.7344 374.797 75.5625 375.422 77.7812L365.18 79.6094C364.758 78.3125 364.039 77.3203 363.023 76.6328C362.023 75.9453 360.742 75.6016 359.18 75.6016C356.852 75.6016 354.992 76.4141 353.602 78.0391C352.227 79.6484 351.539 82.2031 351.539 85.7031C351.539 89.4219 352.234 92.0781 353.625 93.6719C355.031 95.2656 356.984 96.0625 359.484 96.0625C360.672 96.0625 361.805 95.8906 362.883 95.5469C363.961 95.2031 365.195 94.6172 366.586 93.7891V90.5547H359.484Z" fill="#0D0D0D"/>
</svg>
