<svg width="433" height="168" viewBox="0 0 433 168" fill="none" xmlns="http://www.w3.org/2000/svg">
<path d="M39.9999 167.999L433 167.999L413 142.994H19.9999L39.9999 167.999Z" fill="#1B8D29"/>
<path d="M413 143L413 25.9999L433 50.9999V168L413 143Z" fill="#29CD3C"/>
<path d="M22.5723 28.5721H410.428V140.422H22.5722L22.5723 28.5721Z" fill="#08F31A" stroke="#08F31B" stroke-width="5.14439"/>
<path d="M56.8359 69.6406H67.4531V95.5391H84.0234V104H56.8359V69.6406ZM109.992 98.3281H97.8984L96.2344 104H85.3828L98.2969 69.6406H109.875L122.789 104H111.68L109.992 98.3281ZM107.766 90.8984L103.969 78.5469L100.195 90.8984H107.766ZM148.57 69.6406H159.164V90.125C159.164 92.1562 158.844 94.0781 158.203 95.8906C157.578 97.6875 156.586 99.2656 155.227 100.625C153.883 101.969 152.469 102.914 150.984 103.461C148.922 104.227 146.445 104.609 143.555 104.609C141.883 104.609 140.055 104.492 138.07 104.258C136.102 104.023 134.453 103.562 133.125 102.875C131.797 102.172 130.578 101.18 129.469 99.8984C128.375 98.6172 127.625 97.2969 127.219 95.9375C126.562 93.75 126.234 91.8125 126.234 90.125V69.6406H136.828V90.6172C136.828 92.4922 137.344 93.9609 138.375 95.0234C139.422 96.0703 140.867 96.5938 142.711 96.5938C144.539 96.5938 145.969 96.0781 147 95.0469C148.047 94 148.57 92.5234 148.57 90.6172V69.6406ZM166.266 69.6406H176.18L189.117 88.6484V69.6406H199.125V104H189.117L176.25 85.1328V104H166.266V69.6406ZM229.055 89.9609L238.359 92.7734C237.734 95.3828 236.75 97.5625 235.406 99.3125C234.062 101.062 232.391 102.383 230.391 103.273C228.406 104.164 225.875 104.609 222.797 104.609C219.062 104.609 216.008 104.07 213.633 102.992C211.273 101.898 209.234 99.9844 207.516 97.25C205.797 94.5156 204.938 91.0156 204.938 86.75C204.938 81.0625 206.445 76.6953 209.461 73.6484C212.492 70.5859 216.773 69.0547 222.305 69.0547C226.633 69.0547 230.031 69.9297 232.5 71.6797C234.984 73.4297 236.828 76.1172 238.031 79.7422L228.656 81.8281C228.328 80.7812 227.984 80.0156 227.625 79.5312C227.031 78.7188 226.305 78.0938 225.445 77.6562C224.586 77.2188 223.625 77 222.562 77C220.156 77 218.312 77.9688 217.031 79.9062C216.062 81.3438 215.578 83.6016 215.578 86.6797C215.578 90.4922 216.156 93.1094 217.312 94.5312C218.469 95.9375 220.094 96.6406 222.188 96.6406C224.219 96.6406 225.75 96.0703 226.781 94.9297C227.828 93.7891 228.586 92.1328 229.055 89.9609ZM243.586 69.6406H254.203V81.6641H265.805V69.6406H276.469V104H265.805V90.1016H254.203V104H243.586V69.6406ZM283.945 69.6406H294.586V104H283.945V69.6406ZM302.297 69.6406H312.211L325.148 88.6484V69.6406H335.156V104H325.148L312.281 85.1328V104H302.297V69.6406ZM359.484 91.5547V84.4062H375.891V99.0547C372.75 101.195 369.969 102.656 367.547 103.438C365.141 104.203 362.281 104.586 358.969 104.586C354.891 104.586 351.562 103.891 348.984 102.5C346.422 101.109 344.43 99.0391 343.008 96.2891C341.602 93.5391 340.898 90.3828 340.898 86.8203C340.898 83.0703 341.672 79.8125 343.219 77.0469C344.766 74.2656 347.031 72.1562 350.016 70.7188C352.344 69.6094 355.477 69.0547 359.414 69.0547C363.211 69.0547 366.047 69.3984 367.922 70.0859C369.812 70.7734 371.375 71.8438 372.609 73.2969C373.859 74.7344 374.797 76.5625 375.422 78.7812L365.18 80.6094C364.758 79.3125 364.039 78.3203 363.023 77.6328C362.023 76.9453 360.742 76.6016 359.18 76.6016C356.852 76.6016 354.992 77.4141 353.602 79.0391C352.227 80.6484 351.539 83.2031 351.539 86.7031C351.539 90.4219 352.234 93.0781 353.625 94.6719C355.031 96.2656 356.984 97.0625 359.484 97.0625C360.672 97.0625 361.805 96.8906 362.883 96.5469C363.961 96.2031 365.195 95.6172 366.586 94.7891V91.5547H359.484Z" fill="#0D0D0D"/>
</svg>
