<svg width="433" height="168" viewBox="0 0 433 168" fill="none" xmlns="http://www.w3.org/2000/svg">
<path d="M40 167.999L433 167.999L413 142.994H20L40 167.999Z" fill="#1B8D29"/>
<path d="M413 143L413 26L433 51V168L413 143Z" fill="#29CD3C"/>
<path d="M22.5723 28.5722H410.428V140.422H22.5722L22.5723 28.5722Z" fill="#08F31A" stroke="#08F31B" stroke-width="5.14439"/>
<path d="M67.9859 63.6944H82.2945V98.5974H104.626V110H67.9859V63.6944ZM139.624 102.356H123.325L121.083 110H106.458L123.862 63.6944H139.466L156.87 110H141.898L139.624 102.356ZM136.623 92.3433L131.506 75.6973L126.421 92.3433H136.623ZM191.615 63.6944H205.892V91.301C205.892 94.0384 205.461 96.6285 204.597 99.0712C203.755 101.493 202.418 103.62 200.586 105.452C198.775 107.263 196.869 108.537 194.869 109.274C192.089 110.305 188.751 110.821 184.856 110.821C182.602 110.821 180.139 110.663 177.464 110.348C174.811 110.032 172.59 109.411 170.8 108.484C169.01 107.536 167.367 106.199 165.872 104.472C164.398 102.746 163.387 100.966 162.84 99.1344C161.955 96.1863 161.513 93.5752 161.513 91.301V63.6944H175.79V91.9643C175.79 94.4912 176.485 96.4706 177.875 97.9025C179.286 99.3134 181.234 100.019 183.719 100.019C186.182 100.019 188.109 99.3239 189.499 97.9341C190.91 96.5232 191.615 94.5333 191.615 91.9643V63.6944ZM215.463 63.6944H228.824L246.26 89.311V63.6944H259.747V110H246.26L228.919 84.5731V110H215.463V63.6944ZM300.083 91.0799L312.623 94.8702C311.78 98.3868 310.454 101.324 308.643 103.683C306.832 106.041 304.579 107.821 301.883 109.021C299.209 110.221 295.798 110.821 291.649 110.821C286.617 110.821 282.5 110.095 279.299 108.642C276.119 107.168 273.371 104.588 271.055 100.903C268.739 97.2181 267.58 92.5012 267.58 86.7525C267.58 79.0875 269.613 73.2019 273.677 69.0957C277.762 64.9684 283.532 62.9048 290.986 62.9048C296.819 62.9048 301.399 64.084 304.726 66.4424C308.074 68.8009 310.559 72.4228 312.181 77.3082L299.546 80.1194C299.104 78.7085 298.64 77.6767 298.156 77.0239C297.356 75.9289 296.377 75.0866 295.219 74.497C294.06 73.9074 292.765 73.6126 291.333 73.6126C288.091 73.6126 285.606 74.9181 283.879 77.5293C282.574 79.4666 281.921 82.5094 281.921 86.6578C281.921 91.7958 282.7 95.323 284.258 97.2392C285.816 99.1344 288.006 100.082 290.828 100.082C293.566 100.082 295.629 99.3134 297.019 97.7762C298.43 96.239 299.451 94.0069 300.083 91.0799ZM319.667 63.6944H333.975V79.8983H349.61V63.6944H363.982V110H349.61V91.2694H333.975V110H319.667V63.6944Z" fill="#0D0D0D"/>
</svg>
