<svg width="433" height="168" viewBox="0 0 433 168" fill="none" xmlns="http://www.w3.org/2000/svg">
<path d="M40.6321 167.998L432.888 167.998L412.573 142.994L20.316 142.994L40.6321 167.998Z" fill="#1B8D29"/>
<path d="M412.573 142.994L412.573 25.7856L432.889 50.7903L432.889 168L412.573 142.994Z" fill="#29CD3C"/>
<path d="M412.573 142.994L412.573 25.7856L432.889 50.7903L432.889 168L412.573 142.994Z" fill="#29CD3C"/>
<rect x="22.8882" y="28.3578" width="387.112" height="112.064" fill="#03FF24" stroke="#08F31B" stroke-width="5.14439"/>
<path d="M67.986 63.6943H82.2947V98.5973H104.626V110H67.986V63.6943ZM139.624 102.356H123.325L121.083 110H106.458L123.862 63.6943H139.466L156.87 110H141.898L139.624 102.356ZM136.623 92.3432L131.506 75.6971L126.421 92.3432H136.623ZM191.615 63.6943H205.892V91.3008C205.892 94.0383 205.461 96.6284 204.597 99.0711C203.755 101.493 202.418 103.62 200.586 105.452C198.775 107.263 196.869 108.536 194.869 109.274C192.089 110.305 188.751 110.821 184.856 110.821C182.603 110.821 180.139 110.663 177.465 110.347C174.811 110.032 172.59 109.41 170.8 108.484C169.01 107.536 167.367 106.199 165.872 104.472C164.398 102.746 163.388 100.966 162.84 99.1343C161.956 96.1862 161.513 93.5751 161.513 91.3008V63.6943H175.79V91.9642C175.79 94.4911 176.485 96.4705 177.875 97.9024C179.286 99.3133 181.234 100.019 183.719 100.019C186.182 100.019 188.109 99.3238 189.499 97.934C190.91 96.5231 191.615 94.5332 191.615 91.9642V63.6943ZM215.463 63.6943H228.824L246.26 89.3109V63.6943H259.747V110H246.26L228.919 84.5729V110H215.463V63.6943ZM300.083 91.0797L312.623 94.8701C311.781 98.3867 310.454 101.324 308.643 103.683C306.832 106.041 304.579 107.821 301.883 109.021C299.209 110.221 295.798 110.821 291.649 110.821C286.617 110.821 282.5 110.095 279.299 108.642C276.119 107.168 273.371 104.588 271.055 100.903C268.739 97.218 267.581 92.5011 267.581 86.7524C267.581 79.0874 269.613 73.2018 273.677 69.0956C277.762 64.9683 283.532 62.9046 290.986 62.9046C296.819 62.9046 301.399 64.0839 304.726 66.4423C308.074 68.8008 310.559 72.4227 312.181 77.3081L299.546 80.1192C299.104 78.7084 298.641 77.6766 298.156 77.0238C297.356 75.9288 296.377 75.0865 295.219 74.4969C294.061 73.9072 292.766 73.6124 291.334 73.6124C288.091 73.6124 285.606 74.918 283.879 77.5292C282.574 79.4665 281.921 82.5093 281.921 86.6576C281.921 91.7957 282.7 95.3228 284.258 97.2391C285.817 99.1343 288.007 100.082 290.828 100.082C293.566 100.082 295.629 99.3133 297.019 97.7761C298.43 96.2388 299.451 94.0067 300.083 91.0797ZM319.667 63.6943H333.975V79.8981H349.611V63.6943H363.982V110H349.611V91.2693H333.975V110H319.667V63.6943Z" fill="#0D0D0D"/>
</svg>
