<svg width="433" height="168" viewBox="0 0 433 168" fill="none" xmlns="http://www.w3.org/2000/svg">
<path d="M40 167.999L433 167.999L413 142.994H20L40 167.999Z" fill="#1B8D29"/>
<path d="M413 143L413 26.0001L433 51.0001V168L413 143Z" fill="#29CD3C"/>
<path d="M20.0001 26.0001H413V142.994H20L20.0001 26.0001Z" fill="#03FF24"/>
<path d="M67.986 62.6944H82.2947V97.5974H104.626V109H67.986V62.6944ZM139.624 101.356H123.325L121.083 109H106.458L123.862 62.6944H139.466L156.87 109H141.898L139.624 101.356ZM136.623 91.3433L131.506 74.6973L126.421 91.3433H136.623ZM191.615 62.6944H205.892V90.301C205.892 93.0384 205.461 95.6285 204.597 98.0712C203.755 100.493 202.418 102.62 200.586 104.452C198.775 106.263 196.869 107.537 194.869 108.274C192.089 109.305 188.751 109.821 184.856 109.821C182.603 109.821 180.139 109.663 177.465 109.348C174.811 109.032 172.59 108.411 170.8 107.484C169.01 106.536 167.367 105.199 165.872 103.472C164.398 101.746 163.388 99.9664 162.84 98.1344C161.956 95.1863 161.513 92.5752 161.513 90.301V62.6944H175.79V90.9643C175.79 93.4912 176.485 95.4706 177.875 96.9025C179.286 98.3134 181.234 99.0188 183.719 99.0188C186.182 99.0188 188.109 98.3239 189.499 96.9341C190.91 95.5232 191.615 93.5333 191.615 90.9643V62.6944ZM215.463 62.6944H228.824L246.26 88.311V62.6944H259.747V109H246.26L228.919 83.5731V109H215.463V62.6944ZM300.083 90.0799L312.623 93.8702C311.781 97.3868 310.454 100.324 308.643 102.683C306.832 105.041 304.579 106.821 301.883 108.021C299.209 109.221 295.798 109.821 291.649 109.821C286.617 109.821 282.5 109.095 279.299 107.642C276.119 106.168 273.371 103.588 271.055 99.9032C268.739 96.2181 267.581 91.5012 267.581 85.7525C267.581 78.0875 269.613 72.2019 273.677 68.0957C277.762 63.9684 283.532 61.9048 290.986 61.9048C296.819 61.9048 301.399 63.084 304.726 65.4424C308.074 67.8009 310.559 71.4228 312.181 76.3082L299.546 79.1194C299.104 77.7085 298.641 76.6767 298.156 76.0239C297.356 74.9289 296.377 74.0866 295.219 73.497C294.061 72.9074 292.766 72.6126 291.334 72.6126C288.091 72.6126 285.606 73.9181 283.879 76.5293C282.574 78.4666 281.921 81.5094 281.921 85.6578C281.921 90.7958 282.7 94.323 284.258 96.2392C285.817 98.1344 288.007 99.082 290.828 99.082C293.566 99.082 295.629 98.3134 297.019 96.7762C298.43 95.239 299.451 93.0069 300.083 90.0799ZM319.667 62.6944H333.975V78.8983H349.611V62.6944H363.982V109H349.611V90.2694H333.975V109H319.667V62.6944Z" fill="black"/>
</svg>
