<svg width="413" height="142" viewBox="0 0 413 142" fill="none" xmlns="http://www.w3.org/2000/svg">
<path d="M20.981 141.998H412.981L406.981 134H13.981L20.981 141.998Z" fill="#1B8D29"/>
<path d="M406.981 134.047L406.981 17L412.981 25V142L406.981 134.047Z" fill="#29CD3C"/>
<path d="M13.981 16.9763H406.981V134H13.981V16.9763Z" fill="#03FF24"/>
<path d="M62.9665 55.6943H77.2751V90.5973H99.6067V102H62.9665V55.6943ZM134.604 94.3561H118.306L116.063 102H101.439L118.843 55.6943H134.447L151.851 102H136.879L134.604 94.3561ZM131.604 84.3432L126.487 67.6971L121.401 84.3432H131.604ZM186.596 55.6943H200.873V83.3008C200.873 86.0383 200.441 88.6284 199.578 91.0711C198.735 93.4927 197.398 95.6195 195.566 97.4516C193.755 99.2625 191.85 100.536 189.849 101.274C187.07 102.305 183.732 102.821 179.836 102.821C177.583 102.821 175.119 102.663 172.445 102.347C169.792 102.032 167.57 101.41 165.78 100.484C163.99 99.5363 162.348 98.1991 160.853 96.4724C159.379 94.7457 158.368 92.9663 157.821 91.1343C156.936 88.1862 156.494 85.5751 156.494 83.3008V55.6943H170.771V83.9642C170.771 86.4911 171.466 88.4705 172.856 89.9024C174.267 91.3133 176.214 92.0187 178.699 92.0187C181.163 92.0187 183.09 91.3238 184.479 89.934C185.89 88.5231 186.596 86.5332 186.596 83.9642V55.6943ZM210.443 55.6943H223.805L241.24 81.3109V55.6943H254.728V102H241.24L223.899 76.5729V102H210.443V55.6943ZM295.064 83.0797L307.603 86.8701C306.761 90.3867 305.434 93.3243 303.623 95.6827C301.812 98.0412 299.559 99.8205 296.864 101.021C294.19 102.221 290.778 102.821 286.63 102.821C281.597 102.821 277.48 102.095 274.28 100.642C271.1 99.1678 268.352 96.5882 266.036 92.9031C263.719 89.218 262.561 84.5011 262.561 78.7524C262.561 71.0874 264.593 65.2018 268.657 61.0956C272.742 56.9683 278.512 54.9046 285.967 54.9046C291.8 54.9046 296.38 56.0839 299.707 58.4423C303.055 60.8008 305.54 64.4227 307.161 69.3081L294.527 72.1192C294.084 70.7084 293.621 69.6766 293.137 69.0238C292.337 67.9288 291.357 67.0865 290.199 66.4969C289.041 65.9072 287.746 65.6124 286.314 65.6124C283.071 65.6124 280.586 66.918 278.86 69.5292C277.554 71.4665 276.901 74.5093 276.901 78.6576C276.901 83.7957 277.68 87.3228 279.239 89.2391C280.797 91.1343 282.987 92.0819 285.809 92.0819C288.546 92.0819 290.61 91.3133 292 89.7761C293.41 88.2388 294.432 86.0067 295.064 83.0797ZM314.647 55.6943H328.956V71.8981H344.591V55.6943H358.963V102H344.591V83.2693H328.956V102H314.647V55.6943Z" fill="black"/>
</svg>
