<svg width="433" height="168" viewBox="0 0 433 168" fill="none" xmlns="http://www.w3.org/2000/svg">
<path d="M40.981 167.998H432.981L426.981 160H33.981L40.981 167.998Z" fill="#1B8D29"/>
<path d="M426.981 160.047L426.981 43.0001L432.981 51.0001V168L426.981 160.047Z" fill="#29CD3C"/>
<path d="M33.981 42.9764H426.981V160H33.981V42.9764Z" fill="#03FF24"/>
<path d="M64.7041 86.2091H75.7637V113.187H93.0244V122H64.7041V86.2091ZM120.075 116.092H107.478L105.744 122H94.4404L107.893 86.2091H119.953L133.405 122H121.833L120.075 116.092ZM117.756 108.353L113.801 95.4865L109.87 108.353H117.756ZM160.261 86.2091H171.296V107.547C171.296 109.663 170.962 111.665 170.295 113.553C169.644 115.425 168.61 117.068 167.194 118.484C165.795 119.884 164.322 120.869 162.775 121.439C160.627 122.236 158.047 122.635 155.036 122.635C153.295 122.635 151.39 122.513 149.323 122.269C147.272 122.025 145.555 121.544 144.172 120.828C142.788 120.096 141.519 119.062 140.363 117.728C139.224 116.393 138.443 115.018 138.02 113.602C137.336 111.323 136.994 109.305 136.994 107.547V86.2091H148.029V108.06C148.029 110.013 148.566 111.543 149.641 112.65C150.731 113.74 152.237 114.285 154.157 114.285C156.062 114.285 157.551 113.748 158.625 112.674C159.715 111.583 160.261 110.045 160.261 108.06V86.2091ZM178.693 86.2091H189.021L202.497 106.009V86.2091H212.922V122H202.497L189.094 102.347V122H178.693V86.2091ZM244.099 107.376L253.791 110.306C253.14 113.024 252.115 115.294 250.715 117.117C249.315 118.94 247.574 120.316 245.49 121.243C243.423 122.171 240.786 122.635 237.58 122.635C233.69 122.635 230.508 122.073 228.034 120.95C225.576 119.811 223.452 117.817 221.662 114.969C219.872 112.121 218.977 108.475 218.977 104.031C218.977 98.1069 220.547 93.5577 223.688 90.3839C226.846 87.1938 231.306 85.5988 237.067 85.5988C241.576 85.5988 245.116 86.5102 247.688 88.3331C250.275 90.156 252.196 92.9555 253.449 96.7316L243.684 98.9044C243.342 97.8139 242.984 97.0164 242.609 96.5118C241.991 95.6655 241.234 95.0144 240.339 94.5587C239.444 94.103 238.443 93.8751 237.336 93.8751C234.829 93.8751 232.909 94.8842 231.574 96.9025C230.565 98.3999 230.061 100.752 230.061 103.958C230.061 107.929 230.663 110.656 231.867 112.137C233.072 113.602 234.764 114.334 236.945 114.334C239.061 114.334 240.656 113.74 241.73 112.552C242.821 111.364 243.61 109.638 244.099 107.376ZM259.235 86.2091H270.295V98.7335H282.38V86.2091H293.488V122H282.38V107.523H270.295V122H259.235V86.2091ZM301.276 86.2091H312.36V122H301.276V86.2091ZM320.393 86.2091H330.72L344.196 106.009V86.2091H354.621V122H344.196L330.793 102.347V122H320.393V86.2091ZM379.963 109.036V101.59H397.053V116.849C393.781 119.079 390.884 120.6 388.361 121.414C385.855 122.212 382.876 122.61 379.426 122.61C375.178 122.61 371.711 121.886 369.025 120.438C366.356 118.989 364.281 116.832 362.8 113.968C361.335 111.103 360.603 107.816 360.603 104.105C360.603 100.198 361.408 96.8048 363.02 93.924C364.631 91.0268 366.991 88.8295 370.1 87.3322C372.525 86.1766 375.788 85.5988 379.89 85.5988C383.845 85.5988 386.799 85.9568 388.752 86.673C390.721 87.3891 392.349 88.504 393.635 90.0177C394.937 91.5151 395.913 93.4194 396.564 95.7306L385.896 97.6349C385.456 96.284 384.707 95.2504 383.649 94.5343C382.608 93.8182 381.273 93.4601 379.646 93.4601C377.22 93.4601 375.284 94.3064 373.835 95.9991C372.403 97.6756 371.687 100.337 371.687 103.983C371.687 107.856 372.411 110.623 373.859 112.283C375.324 113.943 377.359 114.774 379.963 114.774C381.2 114.774 382.38 114.595 383.503 114.236C384.626 113.878 385.912 113.268 387.36 112.405V109.036H379.963Z" fill="black"/>
</svg>
