<svg width="433" height="168" viewBox="0 0 433 168" fill="none" xmlns="http://www.w3.org/2000/svg">
<path d="M40.6511 167.998L432.907 167.998L426.657 160.184L34.4 160.184L40.6511 167.998Z" fill="#1B8D29"/>
<path d="M426.657 160.185L426.657 42.9764L432.908 50.7904L432.908 168L426.657 160.185Z" fill="#29CD3C"/>
<rect x="36.9722" y="45.5485" width="387.112" height="112.064" fill="#03FF24" stroke="#03FF24" stroke-width="5.14439"/>
<path d="M78.986 81.6943H93.2947V116.597H115.626V128H78.986V81.6943ZM150.624 120.356H134.325L132.083 128H117.458L134.862 81.6943H150.466L167.87 128H152.898L150.624 120.356ZM147.623 110.343L142.506 93.6971L137.421 110.343H147.623ZM202.615 81.6943H216.892V109.301C216.892 112.038 216.461 114.628 215.597 117.071C214.755 119.493 213.418 121.62 211.586 123.452C209.775 125.263 207.869 126.536 205.869 127.274C203.089 128.305 199.751 128.821 195.856 128.821C193.603 128.821 191.139 128.663 188.465 128.347C185.811 128.032 183.59 127.41 181.8 126.484C180.01 125.536 178.367 124.199 176.872 122.472C175.398 120.746 174.388 118.966 173.84 117.134C172.956 114.186 172.513 111.575 172.513 109.301V81.6943H186.79V109.964C186.79 112.491 187.485 114.47 188.875 115.902C190.286 117.313 192.234 118.019 194.719 118.019C197.182 118.019 199.109 117.324 200.499 115.934C201.91 114.523 202.615 112.533 202.615 109.964V81.6943ZM226.463 81.6943H239.824L257.26 107.311V81.6943H270.747V128H257.26L239.919 102.573V128H226.463V81.6943ZM311.083 109.08L323.623 112.87C322.781 116.387 321.454 119.324 319.643 121.683C317.832 124.041 315.579 125.821 312.883 127.021C310.209 128.221 306.798 128.821 302.649 128.821C297.617 128.821 293.5 128.095 290.299 126.642C287.119 125.168 284.371 122.588 282.055 118.903C279.739 115.218 278.581 110.501 278.581 104.752C278.581 97.0874 280.613 91.2018 284.677 87.0956C288.762 82.9683 294.532 80.9046 301.986 80.9046C307.819 80.9046 312.399 82.0839 315.726 84.4423C319.074 86.8008 321.559 90.4227 323.181 95.3081L310.546 98.1192C310.104 96.7084 309.641 95.6766 309.156 95.0238C308.356 93.9288 307.377 93.0865 306.219 92.4969C305.061 91.9072 303.766 91.6124 302.334 91.6124C299.091 91.6124 296.606 92.918 294.879 95.5292C293.574 97.4665 292.921 100.509 292.921 104.658C292.921 109.796 293.7 113.323 295.258 115.239C296.817 117.134 299.007 118.082 301.828 118.082C304.566 118.082 306.629 117.313 308.019 115.776C309.43 114.239 310.451 112.007 311.083 109.08ZM330.667 81.6943H344.975V97.8981H360.611V81.6943H374.982V128H360.611V109.269H344.975V128H330.667V81.6943Z" fill="#0D0D0D"/>
</svg>
