<svg width="25" height="20" viewBox="0 0 25 20" fill="none" xmlns="http://www.w3.org/2000/svg">
<path d="M20.692 2.36981C19.1623 1.66793 17.522 1.15081 15.8069 0.854636C15.7757 0.84892 15.7445 0.863205 15.7284 0.891775C15.5174 1.26699 15.2837 1.75649 15.1201 2.14123C13.2754 1.86506 11.4402 1.86506 9.63332 2.14123C9.46965 1.74794 9.22748 1.26699 9.01557 0.891775C8.99949 0.864158 8.96828 0.849873 8.93705 0.854636C7.22291 1.14986 5.58256 1.66698 4.05193 2.36981C4.03868 2.37552 4.02733 2.38505 4.01979 2.39742C0.908392 7.04578 0.0560498 11.5799 0.47418 16.0578C0.476072 16.0797 0.48837 16.1006 0.505398 16.114C2.55821 17.6215 4.54671 18.5367 6.49828 19.1433C6.52951 19.1529 6.56261 19.1414 6.58248 19.1157C7.04413 18.4853 7.45564 17.8206 7.80848 17.1215C7.8293 17.0806 7.80942 17.032 7.76686 17.0158C7.11413 16.7682 6.4926 16.4663 5.89473 16.1235C5.84744 16.0959 5.84365 16.0282 5.88716 15.9959C6.01297 15.9016 6.13882 15.8035 6.25896 15.7044C6.28069 15.6864 6.31098 15.6825 6.33653 15.694C10.2643 17.4872 14.5165 17.4872 18.398 15.694C18.4235 15.6816 18.4538 15.6854 18.4765 15.7035C18.5966 15.8025 18.7225 15.9016 18.8492 15.9959C18.8927 16.0282 18.8899 16.0959 18.8426 16.1235C18.2447 16.473 17.6232 16.7682 16.9695 17.0149C16.927 17.0311 16.908 17.0806 16.9288 17.1215C17.2893 17.8196 17.7008 18.4843 18.1539 19.1148C18.1728 19.1414 18.2069 19.1529 18.2381 19.1433C20.1991 18.5367 22.1876 17.6215 24.2404 16.114C24.2584 16.1006 24.2698 16.0806 24.2717 16.0587C24.7721 10.8818 23.4335 6.38487 20.7232 2.39837C20.7166 2.38505 20.7053 2.37552 20.692 2.36981ZM8.39502 13.3312C7.2125 13.3312 6.23813 12.2456 6.23813 10.9123C6.23813 9.579 7.1936 8.49336 8.39502 8.49336C9.60587 8.49336 10.5708 9.58853 10.5519 10.9123C10.5519 12.2456 9.59641 13.3312 8.39502 13.3312ZM16.3697 13.3312C15.1873 13.3312 14.2129 12.2456 14.2129 10.9123C14.2129 9.579 15.1683 8.49336 16.3697 8.49336C17.5806 8.49336 18.5455 9.58853 18.5266 10.9123C18.5266 12.2456 17.5806 13.3312 16.3697 13.3312Z" fill="white"/>
</svg>
