<svg width="119" height="60" viewBox="0 0 119 60" fill="none" xmlns="http://www.w3.org/2000/svg">
<rect x="0.595703" y="0.429211" width="59.1416" height="59.1416" fill="black"/>
<rect x="59.7374" y="0.429188" width="59.1416" height="59.1416" fill="#03FF24"/>
<path d="M27.3209 26.3933H8.57759L11.8849 13.8857V13.7414H23.9768L27.3209 26.3933ZM22.3863 22.9236L20.9048 17.2298H14.9576L13.4942 22.9236H22.3863Z" fill="#03FF24"/>
<path d="M32.7266 20.6281V13.7414H36.7028V20.356C36.7028 21.6932 37.2997 22.868 38.9623 22.868H43.8075C45.489 22.868 46.067 21.6932 46.067 20.356V13.7414H50.0432V20.6281C50.0432 24.5502 47.6755 26.6105 43.8045 26.6105H38.9623C35.0943 26.6105 32.7266 24.5502 32.7266 20.6281Z" fill="#03FF24"/>
<path d="M26.5607 37.0951H19.9274V46.2586H15.9504V37.0951H9.33578V33.6067H26.5607V37.0951Z" fill="#03FF24"/>
<path d="M50.575 46.2586H32.1932V33.6067H50.575V46.2586ZM46.5987 42.7701V37.0771H36.1695V42.7701H46.5987Z" fill="#03FF24"/>
<path d="M70.7302 42.5171H74.7065V46.2581H70.7302V42.5171Z" fill="black"/>
<path d="M74.7065 17.1752V18.91H84.6284V22.3443H74.7065V26.3927H70.7302V13.7408H85.8566V17.1752H74.7065Z" fill="black"/>
<path d="M90.1178 20.6274V13.7408H94.0955V20.3553C94.0955 21.6925 94.6924 22.8674 96.355 22.8674H101.199C102.88 22.8674 103.458 21.6925 103.458 20.3553V13.7408H107.434V20.6274C107.434 24.5496 105.067 26.6099 101.196 26.6099H96.3505C92.4855 26.6099 90.1178 24.5496 90.1178 20.6274Z" fill="black"/>
<path d="M107.65 33.6045V46.2564H103.746L94.0219 38.7571V46.2579H90.1178V33.6045H94.0219L103.746 41.0512V33.6045H107.65Z" fill="black"/>
</svg>
