<svg width="343" height="127" viewBox="0 0 343 127" fill="none" xmlns="http://www.w3.org/2000/svg">
<path d="M45.661 39.5817L63.1703 44.8742C61.9942 49.7845 60.1418 53.8861 57.6132 57.1792C55.0846 60.4723 51.9385 62.9568 48.1749 64.6328C44.4408 66.3087 39.6776 67.1467 33.8853 67.1467C26.858 67.1467 21.1098 66.1323 16.6406 64.1035C12.2008 62.0453 8.3638 58.4435 5.12951 53.2981C1.89523 48.1526 0.278081 41.5664 0.278081 33.5395C0.278081 22.837 3.11543 14.6189 8.79014 8.88541C14.4942 3.1225 22.5506 0.241043 32.9591 0.241043C41.1036 0.241043 47.4987 1.88759 52.1443 5.18068C56.8193 8.47378 60.2888 13.531 62.5528 20.3524L44.9113 24.2777C44.2938 22.3077 43.6469 20.867 42.9707 19.9555C41.8534 18.4266 40.4862 17.2505 38.869 16.4272C37.2519 15.6039 35.4436 15.1923 33.4442 15.1923C28.9162 15.1923 25.4467 17.0152 23.0357 20.6612C21.2127 23.3662 20.3013 27.6149 20.3013 33.4072C20.3013 40.5814 21.3892 45.5064 23.565 48.182C25.7407 50.8282 28.7986 52.1514 32.7386 52.1514C36.5609 52.1514 39.4424 51.0782 41.3829 48.9318C43.3529 46.7854 44.7789 43.6687 45.661 39.5817ZM70.4033 33.7159C70.4033 23.1604 73.3436 14.9424 79.2241 9.06183C85.1046 3.18131 93.2933 0.241043 103.79 0.241043C114.551 0.241043 122.843 3.1372 128.665 8.92952C134.486 14.6924 137.397 22.7782 137.397 33.1867C137.397 40.7432 136.118 46.9471 133.56 51.7985C131.032 56.6206 127.356 60.3841 122.534 63.0891C117.742 65.7648 111.758 67.1026 104.584 67.1026C97.292 67.1026 91.2498 65.9412 86.4572 63.6184C81.6939 61.2956 77.8275 57.6203 74.8578 52.5924C71.8882 47.5646 70.4033 41.2724 70.4033 33.7159ZM90.3824 33.8041C90.3824 40.3315 91.5879 45.0212 93.9989 47.8733C96.4393 50.7253 99.7471 52.1514 103.922 52.1514C108.215 52.1514 111.538 50.7547 113.89 47.9615C116.242 45.1682 117.418 40.1551 117.418 32.9221C117.418 26.8357 116.183 22.3959 113.713 19.6027C111.273 16.78 107.95 15.3687 103.746 15.3687C99.7177 15.3687 96.4834 16.7947 94.043 19.6468C91.6026 22.4988 90.3824 27.2179 90.3824 33.8041ZM148.952 1.34364H168.976V66H148.952V1.34364ZM183.486 1.34364H202.142L226.487 37.1119V1.34364H245.32V66H226.487L202.274 30.4963V66H183.486V1.34364ZM0.689718 78.5853H19.9661L27.4049 107.435L34.8115 78.5853H54.0231V126H42.0563V89.8407L32.7739 126H21.939L12.6889 89.8407V126H0.689718V78.5853ZM92.5758 118.173H75.8869L73.5906 126H58.6158L76.4367 78.5853H92.4141L110.235 126H94.9045L92.5758 118.173ZM89.5033 107.92L84.2637 90.8756L79.0565 107.92H89.5033ZM146.524 106.627L159.364 110.508C158.501 114.109 157.143 117.116 155.289 119.531C153.434 121.946 151.127 123.768 148.367 124.997C145.629 126.226 142.136 126.841 137.888 126.841C132.735 126.841 128.52 126.097 125.242 124.609C121.986 123.1 119.172 120.459 116.801 116.685C114.429 112.912 113.243 108.082 113.243 102.196C113.243 94.3471 115.324 88.3205 119.485 84.116C123.668 79.8898 129.576 77.7768 137.209 77.7768C143.182 77.7768 147.871 78.9842 151.278 81.3992C154.707 83.8141 157.251 87.5228 158.911 92.5251L145.974 95.4036C145.521 93.959 145.047 92.9025 144.551 92.234C143.731 91.1128 142.729 90.2503 141.543 89.6466C140.357 89.0429 139.031 88.741 137.565 88.741C134.244 88.741 131.7 90.0778 129.932 92.7515C128.595 94.7352 127.927 97.8509 127.927 102.099C127.927 107.36 128.724 110.971 130.32 112.933C131.916 114.874 134.158 115.844 137.047 115.844C139.85 115.844 141.963 115.057 143.387 113.483C144.831 111.909 145.877 109.624 146.524 106.627ZM166.576 78.5853H181.228V95.1772H197.237V78.5853H211.953V126H197.237V106.821H181.228V126H166.576V78.5853ZM222.271 78.5853H236.954V126H222.271V78.5853ZM247.595 78.5853H261.276L279.13 104.815V78.5853H292.94V126H279.13L261.373 99.964V126H247.595V78.5853ZM302.643 78.5853H341.907V88.7087H317.327V96.2445H340.128V105.915H317.327V115.262H342.619V126H302.643V78.5853Z" fill="#03FF24"/>
</svg>
