<svg width="231" height="92" viewBox="0 0 231 92" fill="none" xmlns="http://www.w3.org/2000/svg">
<path d="M13.0034 91.0231L230.565 91.0231L217.563 75.0191L9.15757e-05 75.0191L13.0034 91.0231Z" fill="#1B8D29"/>
<path d="M217.563 75.019L217.563 3.87154e-05L230.567 16.0043L230.567 91.0239L217.563 75.019Z" fill="#29CD3C"/>
<path d="M217.563 75.019L217.563 3.87154e-05L230.567 16.0043L230.567 91.0239L217.563 75.019Z" fill="#29CD3C"/>
<path d="M0 0.00012207H217.563V75.0189H0V0.00012207Z" fill="#03FF24"/>
<path d="M40.243 29.7697C35.7663 29.7697 33.2037 33.0115 33.2037 37.8896C33.2037 42.9221 36.1059 45.6699 40.2739 45.6699C44.1949 45.6699 46.5722 43.5087 46.5722 39.8964V39.8038H39.749V36.315H50.2462V49.0043H46.9118L46.6648 46.4108C45.4299 48.1398 42.8673 49.3439 39.8108 49.3439C33.4816 49.3439 29.0666 44.7436 29.0666 37.797C29.0666 30.9429 33.5433 26.0648 40.3356 26.0648C45.4916 26.0648 49.4744 29.0596 50.1227 33.6598H45.9547C45.2446 31.0047 42.9599 29.7697 40.243 29.7697ZM69.4654 49.0043H55.4485V26.4353H69.4654V30.0784H59.4004V35.8828H68.4156V39.3716H59.4004V45.3611H69.4654V49.0043ZM77.64 49.0043H73.7499V26.4353H77.6709L88.2607 42.4281V26.4353H92.1508V49.0043H88.2607L77.64 33.0115V49.0043ZM111.163 49.0043H97.1466V26.4353H111.163V30.0784H101.099V35.8828H110.114V39.3716H101.099V45.3611H111.163V49.0043ZM119.4 49.0043H115.448V26.4353H124.062C129.187 26.4353 132.182 29.0287 132.182 33.4746C132.182 36.5003 130.762 38.6614 128.106 39.742L132.398 49.0043H128.076L124.247 40.5756H119.4V49.0043ZM119.4 29.9549V37.0869H124.062C126.563 37.0869 128.045 35.7593 128.045 33.4746C128.045 31.2208 126.563 29.9549 124.062 29.9549H119.4ZM138.076 49.0043H133.97L142.121 26.4353H146.165L154.316 49.0043H150.148L148.327 43.7865H139.898L138.076 49.0043ZM143.634 33.1659L141.071 40.4521H147.184L144.591 33.1659C144.405 32.5792 144.189 31.9 144.128 31.4369C144.035 31.8691 143.85 32.5484 143.634 33.1659ZM153.15 30.0784V26.4353H170.316V30.0784H163.709V49.0043H159.757V30.0784H153.15ZM187.354 49.0043H173.337V26.4353H187.354V30.0784H177.289V35.8828H186.304V39.3716H177.289V45.3611H187.354V49.0043Z" fill="black"/>
</svg>
