<svg width="234" height="92" viewBox="0 0 234 92" fill="none" xmlns="http://www.w3.org/2000/svg">
<path d="M16.0012 91.0227L233.565 91.0228L229.565 86.0215L12.0002 86.0214L16.0012 91.0227Z" fill="#1B8D29"/>
<path d="M229.565 86.0216L229.565 11.0026L233.566 16.004L233.566 91.0237L229.565 86.0216Z" fill="#29CD3C"/>
<path d="M12.0002 11.0027H229.565V86.0215H12.0002V11.0027Z" fill="#03FF24"/>
<path d="M68.0414 37.4377V60.0067H64.0895V37.4377H68.0414ZM76.8726 60.0067H73.0442V37.4377H76.8726L84.1589 55.4065L91.4452 37.4377H95.3353V60.0067H91.5069V53.06C91.5069 48.5215 91.5069 47.194 91.723 45.5885L85.9804 60.0067H82.3373L76.6256 45.6194C76.8417 46.9778 76.8726 49.1082 76.8726 51.9177V60.0067ZM109.253 52.2264H104.282V60.0067H100.33V37.4377H109.253C113.792 37.4377 116.725 40.4017 116.725 44.8167C116.725 49.1699 113.761 52.2264 109.253 52.2264ZM108.481 40.9574H104.282V48.7068H108.419C111.136 48.7068 112.587 47.2557 112.587 44.7858C112.587 42.3159 111.105 40.9574 108.481 40.9574ZM140.642 48.7068C140.642 55.5608 136.134 60.3772 129.651 60.3772C123.198 60.3772 118.752 55.5917 118.752 48.7068C118.752 41.8527 123.229 37.0364 129.682 37.0364C136.134 37.0364 140.642 41.8219 140.642 48.7068ZM136.474 48.7068C136.474 43.8904 133.819 40.8339 129.682 40.8339C125.544 40.8339 122.889 43.8904 122.889 48.7068C122.889 53.5232 125.544 56.5797 129.682 56.5797C133.819 56.5797 136.474 53.4614 136.474 48.7068ZM148.272 60.0067H144.32V37.4377H152.934C158.059 37.4377 161.054 40.0312 161.054 44.477C161.054 47.5027 159.634 49.6639 156.978 50.7445L161.27 60.0067H156.947L153.119 51.5781H148.272V60.0067ZM148.272 40.9574V48.0893H152.934C155.435 48.0893 156.917 46.7617 156.917 44.477C156.917 42.2232 155.435 40.9574 152.934 40.9574H148.272ZM162.726 41.0809V37.4377H179.892V41.0809H173.285V60.0067H169.333V41.0809H162.726Z" fill="black"/>
</svg>
