<svg width="413" height="142" viewBox="0 0 413 142" fill="none" xmlns="http://www.w3.org/2000/svg">
<path d="M20 141.999L413 141.999L393 116.994H0L20 141.999Z" fill="#1B8D29"/>
<path d="M393 117L393 8.74228e-07L413 25V142L393 117Z" fill="#29CD3C"/>
<path d="M0.00012207 0H393V116.994H0L0.00012207 0Z" fill="#03FF24"/>
<path d="M59.794 36.6943H74.1342V83H59.794V36.6943ZM84.2734 36.6943H103.099L110.364 64.8694L117.597 36.6943H136.359V83H124.672V47.6864L115.607 83H105.026L95.992 47.6864V83H84.2734V36.6943ZM145.456 36.6943H169.241C174.421 36.6943 178.296 37.9262 180.865 40.3899C183.455 42.8537 184.75 46.3597 184.75 50.9082C184.75 55.583 183.339 59.2365 180.517 61.8687C177.717 64.5009 173.431 65.817 167.662 65.817H159.828V83H145.456V36.6943ZM159.828 56.4358H163.334C166.093 56.4358 168.03 55.962 169.146 55.0144C170.262 54.0458 170.82 52.8139 170.82 51.3188C170.82 49.8658 170.336 48.634 169.367 47.6232C168.399 46.6124 166.577 46.1071 163.903 46.1071H159.828V56.4358ZM190.467 59.8787C190.467 52.3191 192.573 46.4335 196.784 42.2219C200.996 38.0104 206.86 35.9046 214.378 35.9046C222.085 35.9046 228.023 37.9788 232.193 42.1272C236.362 46.2545 238.447 52.0453 238.447 59.4997C238.447 64.9115 237.531 69.3547 235.699 72.8292C233.888 76.2826 231.256 78.978 227.802 80.9153C224.37 82.8315 220.085 83.7897 214.946 83.7897C209.724 83.7897 205.397 82.9579 201.964 81.2943C198.553 79.6308 195.784 76.9986 193.657 73.3977C191.53 69.7969 190.467 65.2905 190.467 59.8787ZM204.776 59.9419C204.776 64.6167 205.639 67.9754 207.366 70.018C209.114 72.0606 211.482 73.0819 214.473 73.0819C217.547 73.0819 219.927 72.0816 221.611 70.0812C223.296 68.0807 224.138 64.4904 224.138 59.3102C224.138 54.9513 223.254 51.7716 221.485 49.7711C219.737 47.7496 217.358 46.7388 214.346 46.7388C211.461 46.7388 209.145 47.7601 207.397 49.8027C205.65 51.8453 204.776 55.225 204.776 59.9419ZM246.343 83V36.6943H270.191C274.613 36.6943 277.993 37.0733 280.33 37.8314C282.668 38.5895 284.552 40.0003 285.984 42.064C287.416 44.1066 288.132 46.6019 288.132 49.55C288.132 52.119 287.585 54.3406 286.49 56.2147C285.395 58.0678 283.889 59.5734 281.973 60.7316C280.752 61.4686 279.077 62.0793 276.951 62.5636C278.656 63.1321 279.899 63.7007 280.678 64.2693C281.204 64.6483 281.962 65.459 282.952 66.7014C283.963 67.9438 284.637 68.9019 284.974 69.5758L291.891 83H275.719L268.075 68.8493C267.106 67.0173 266.243 65.8275 265.485 65.28C264.453 64.5641 263.284 64.2061 261.979 64.2061H260.715V83H246.343ZM260.715 55.4566H266.748C267.401 55.4566 268.664 55.2461 270.539 54.8249C271.486 54.6354 272.255 54.1511 272.844 53.3719C273.455 52.5928 273.76 51.6979 273.76 50.6871C273.76 49.192 273.287 48.0444 272.339 47.2442C271.391 46.444 269.612 46.0439 267.001 46.0439H260.715V55.4566ZM293.249 36.6943H336.744V48.1286H322.151V83H307.842V48.1286H293.249V36.6943Z" fill="black"/>
</svg>
