<svg width="20" height="21" viewBox="0 0 20 21" fill="none" xmlns="http://www.w3.org/2000/svg">
<path d="M4.99984 17.75C4.08317 17.75 3.29845 17.4236 2.64567 16.7708C1.99289 16.1181 1.6665 15.3333 1.6665 14.4167C1.6665 13.5 1.99289 12.7153 2.64567 12.0625C3.29845 11.4097 4.08317 11.0833 4.99984 11.0833C5.9165 11.0833 6.70123 11.4097 7.354 12.0625C8.00678 12.7153 8.33317 13.5 8.33317 14.4167C8.33317 15.3333 8.00678 16.1181 7.354 16.7708C6.70123 17.4236 5.9165 17.75 4.99984 17.75ZM14.9998 17.75C14.0832 17.75 13.2984 17.4236 12.6457 16.7708C11.9929 16.1181 11.6665 15.3333 11.6665 14.4167C11.6665 13.5 11.9929 12.7153 12.6457 12.0625C13.2984 11.4097 14.0832 11.0833 14.9998 11.0833C15.9165 11.0833 16.7012 11.4097 17.354 12.0625C18.0068 12.7153 18.3332 13.5 18.3332 14.4167C18.3332 15.3333 18.0068 16.1181 17.354 16.7708C16.7012 17.4236 15.9165 17.75 14.9998 17.75ZM9.99984 9.41667C9.08317 9.41667 8.29845 9.09028 7.64567 8.4375C6.99289 7.78472 6.6665 7 6.6665 6.08333C6.6665 5.16667 6.99289 4.38194 7.64567 3.72917C8.29845 3.07639 9.08317 2.75 9.99984 2.75C10.9165 2.75 11.7012 3.07639 12.354 3.72917C13.0068 4.38194 13.3332 5.16667 13.3332 6.08333C13.3332 7 13.0068 7.78472 12.354 8.4375C11.7012 9.09028 10.9165 9.41667 9.99984 9.41667Z" fill="#8C8C8C"/>
</svg>
