<svg width="20" height="21" viewBox="0 0 20 21" fill="none" xmlns="http://www.w3.org/2000/svg">
<path d="M10.0002 11.3566C10.6114 11.3566 11.1069 10.8612 11.1069 10.25C11.1069 9.63878 10.6114 9.14331 10.0002 9.14331C9.38902 9.14331 8.89355 9.63878 8.89355 10.25C8.89355 10.8612 9.38902 11.3566 10.0002 11.3566Z" stroke="#8C8C8C" stroke-width="2.21332" stroke-linecap="round" stroke-linejoin="round"/>
<path d="M17.6847 10.6152C17.7674 10.3787 17.7674 10.1212 17.6847 9.88477C17.0617 8.35804 15.998 7.05151 14.6293 6.13182C13.2606 5.21212 11.649 4.72095 10.0001 4.72095C8.35111 4.72095 6.73951 5.21212 5.37084 6.13182C4.00218 7.05151 2.93847 8.35804 2.31541 9.88477C2.23275 10.1212 2.23275 10.3787 2.31541 10.6152C2.93847 12.1419 4.00218 13.4484 5.37084 14.3681C6.73951 15.2878 8.35111 15.779 10.0001 15.779C11.649 15.779 13.2606 15.2878 14.6293 14.3681C15.998 13.4484 17.0617 12.1419 17.6847 10.6152Z" stroke="#8C8C8C" stroke-width="2.21332" stroke-linecap="round" stroke-linejoin="round"/>
</svg>
