<svg width="17" height="21" viewBox="0 0 17 21" fill="none" xmlns="http://www.w3.org/2000/svg">
<path d="M9 20.25L8.75 17.25H8.5C6.13333 17.25 4.125 16.425 2.475 14.775C0.825 13.125 0 11.1167 0 8.75C0 6.38333 0.825 4.375 2.475 2.725C4.125 1.075 6.13333 0.25 8.5 0.25C9.68333 0.25 10.7877 0.470667 11.813 0.912C12.8383 1.35333 13.7383 1.96167 14.513 2.737C15.2877 3.51233 15.8957 4.41233 16.337 5.437C16.7783 6.46167 16.9993 7.566 17 8.75C17 10 16.796 11.2 16.388 12.35C15.98 13.5 15.4213 14.5667 14.712 15.55C14.0027 16.5333 13.161 17.425 12.187 18.225C11.213 19.025 10.1507 19.7 9 20.25ZM11 16.6C12.1833 15.6 13.146 14.4293 13.888 13.088C14.63 11.7467 15.0007 10.3007 15 8.75C15 6.93333 14.3707 5.396 13.112 4.138C11.8533 2.88 10.316 2.25067 8.5 2.25C6.684 2.24933 5.14667 2.87867 3.888 4.138C2.62933 5.39733 2 6.93467 2 8.75C2 10.5653 2.62933 12.103 3.888 13.363C5.14667 14.623 6.684 15.252 8.5 15.25H11V16.6ZM8.475 14.225C8.75833 14.225 9 14.125 9.2 13.925C9.4 13.725 9.5 13.4833 9.5 13.2C9.5 12.9167 9.4 12.675 9.2 12.475C9 12.275 8.75833 12.175 8.475 12.175C8.19167 12.175 7.95 12.275 7.75 12.475C7.55 12.675 7.45 12.9167 7.45 13.2C7.45 13.4833 7.55 13.725 7.75 13.925C7.95 14.125 8.19167 14.225 8.475 14.225ZM7.75 11.05H9.25C9.25 10.55 9.3 10.2 9.4 10C9.5 9.8 9.81667 9.43333 10.35 8.9C10.65 8.6 10.9 8.275 11.1 7.925C11.3 7.575 11.4 7.2 11.4 6.8C11.4 5.95 11.1127 5.31267 10.538 4.888C9.96333 4.46333 9.284 4.25067 8.5 4.25C7.76667 4.25 7.15 4.45433 6.65 4.863C6.15 5.27167 5.8 5.76733 5.6 6.35L7 6.9C7.08333 6.61667 7.24167 6.33767 7.475 6.063C7.70833 5.78833 8.05 5.65067 8.5 5.65C8.95 5.64933 9.28767 5.77433 9.513 6.025C9.73833 6.27567 9.85067 6.55067 9.85 6.85C9.85 7.13333 9.76667 7.38767 9.6 7.613C9.43333 7.83833 9.23333 8.06733 9 8.3C8.41667 8.8 8.06267 9.196 7.938 9.488C7.81333 9.78 7.75067 10.3007 7.75 11.05Z" fill="#8C8C8C"/>
</svg>
